<svg width="148" height="149" viewBox="0 0 148 149" fill="none" xmlns="http://www.w3.org/2000/svg">
<path d="M64.4121 83.4837C-2.17277 151.107 -31.0749 25.2858 46.4704 2.31802C79.1486 -7.37515 135.097 13.6894 118.83 58.8031C107.891 89.0807 85.0268 62.5489 64.4121 83.4837Z" fill="#5988C6"/>
<path opacity="0.9" d="M64.4121 83.4837C-2.17277 151.107 -31.0749 25.2858 46.4704 2.31802C79.1486 -7.37515 135.097 13.6894 118.83 58.8031C107.891 89.0807 85.0268 62.5489 64.4121 83.4837Z" fill="white"/>
<path d="M57.9717 37.4531C58.0279 37.6434 58.1274 37.9332 58.2139 38.1754L58.4907 38.9496C58.681 39.4644 58.8886 39.9748 59.1092 40.4808C59.5405 41.4824 60.0256 42.4599 60.5625 43.4091C61.6266 45.269 62.9199 46.9516 64.4554 48.0286L64.7236 48.2146C64.7236 48.2146 64.7236 48.2449 64.7884 48.2535C65.0812 48.246 65.3677 48.1673 65.6232 48.0243C66.5097 47.5547 67.3252 46.962 68.0455 46.2638C68.8777 45.502 69.6703 44.6978 70.4201 43.8546C71.19 42.9895 71.9469 42.0942 72.6606 41.2161L74.7238 42.4618C73.6521 44.7345 72.3055 46.8669 70.7142 48.8115C69.84 49.8926 68.8042 50.8321 67.6432 51.597C66.8803 52.0884 66.0173 52.4031 65.1172 52.5183C64.5444 52.5766 63.9657 52.5237 63.413 52.3626C63.128 52.2791 62.8526 52.166 62.5912 52.0253L62.0937 51.7484C60.8848 51.0194 59.7902 50.1157 58.8454 49.0667C57.9422 48.08 57.1368 47.008 56.4405 45.8659C55.7573 44.7571 55.1545 43.6007 54.6368 42.4056C54.3816 41.8174 54.1394 41.2205 53.9188 40.6192C53.8063 40.3165 53.6982 40.0137 53.5987 39.7023C53.4992 39.3908 53.4084 39.1054 53.3046 38.7204L57.9717 37.4531Z" fill="#B97964"/>
<path d="M62.4397 45.096L56.9075 48.1584C56.9075 48.1584 56.7432 47.9205 56.475 47.5095C56.2804 47.2068 56.0425 46.8088 55.7397 46.3417C54.1133 43.6989 51.4143 38.8718 52.1194 36.8259C53.1964 33.677 57.1671 33.7289 59.1178 37.3795C60.0611 39.1984 60.9057 41.0668 61.6482 42.9766C61.8514 43.4869 62.0201 43.9325 62.1499 44.2742C62.3359 44.7975 62.4397 45.096 62.4397 45.096Z" fill="#5988C6"/>
<path opacity="0.2" d="M62.4397 45.096L56.9075 48.1584C56.9075 48.1584 56.7432 47.9205 56.475 47.5095C56.2804 47.2068 56.0425 46.8088 55.7397 46.3417C54.1133 43.6989 51.4143 38.8718 52.1194 36.8259C53.1964 33.677 57.1671 33.7289 59.1178 37.3795C60.0611 39.1984 60.9057 41.0668 61.6482 42.9766C61.8514 43.4869 62.0201 43.9325 62.1499 44.2742C62.3359 44.7975 62.4397 45.096 62.4397 45.096Z" fill="black"/>
<path opacity="0.2" d="M62.1672 44.2958L56.4923 47.5096C56.2976 47.2068 56.0597 46.8089 55.757 46.3417L61.6654 42.9939C61.8514 43.5043 62.0201 43.9498 62.1672 44.2958Z" fill="black"/>
<path opacity="0.2" d="M52.0373 37.2065C53.2743 36.6096 54.7017 37.107 56.1983 39.4773C57.6949 41.8476 58.9795 45.827 59.1395 46.9386L56.9293 48.1584C56.9293 48.1584 51.5831 40.3597 52.0373 37.2065Z" fill="black"/>
<path d="M57.1672 62.5273H40.017C39.8959 60.9961 40.2506 56.0133 39.9868 49.6679C39.8237 44.9647 39.2535 40.2845 38.2826 35.6797C38.2047 35.3336 38.1269 34.9919 38.0447 34.6459C38.0447 34.6459 38.9098 34.4686 40.1598 34.2869C41.1936 34.1355 42.4912 33.9798 43.7628 33.9192C46.1903 33.7807 48.6236 33.7807 51.0511 33.9192C52.1714 34.023 53.2657 34.209 54.1394 34.3777C55.2554 34.6026 56.0166 34.8103 56.0166 34.8103C56.0166 34.8103 60.1387 44.4948 57.1672 62.5273Z" fill="#5988C6"/>
<path opacity="0.2" d="M57.1672 62.5273H40.017C39.8959 60.9961 40.2506 56.0133 39.9868 49.6679C39.8237 44.9647 39.2535 40.2845 38.2826 35.6797C38.2047 35.3336 38.1269 34.9919 38.0447 34.6459C38.0447 34.6459 38.9098 34.4686 40.1598 34.2869C41.1936 34.1355 42.4912 33.9798 43.7628 33.9192C46.1903 33.7807 48.6236 33.7807 51.0511 33.9192C52.1714 34.023 53.2657 34.209 54.1394 34.3777C55.2554 34.6026 56.0166 34.8103 56.0166 34.8103C56.0166 34.8103 60.1387 44.4948 57.1672 62.5273Z" fill="black"/>
<path d="M33.7797 139.195L36.323 141.47L41.1588 136.431L38.6198 134.156L33.7797 139.195Z" fill="#B97964"/>
<path d="M42.4868 143.931H45.6919L46.1115 136.504H42.9021L42.4868 143.931Z" fill="#B97964"/>
<path d="M41.1589 136.435L38.6632 139.03L36.1199 136.755L38.6156 134.156L41.1589 136.435Z" fill="#A76755"/>
<path d="M42.9021 136.508H46.1115L45.8952 140.336H42.6858L42.9021 136.508Z" fill="#A76755"/>
<path d="M57.0028 62.3629C57.0028 62.3629 60.3809 85.7459 61.5358 98.4754C62.4614 108.683 40.3804 139.134 40.3804 139.134L36.1069 135.116C36.1069 135.116 52.2363 107.818 50.9949 96.4512C49.7924 85.4388 45.7179 62.3499 45.7179 62.3499L57.0028 62.3629Z" fill="#5988C6"/>
<path opacity="0.7" d="M57.0028 62.3629C57.0028 62.3629 60.3809 85.7459 61.5358 98.4754C62.4614 108.683 40.3804 139.134 40.3804 139.134L36.1069 135.116C36.1069 135.116 52.2363 107.818 50.9949 96.4512C49.7924 85.4388 45.7179 62.3499 45.7179 62.3499L57.0028 62.3629Z" fill="black"/>
<path d="M45.8603 143.58H42.2703C42.2402 143.579 42.2101 143.584 42.1819 143.595C42.1536 143.605 42.1277 143.621 42.1056 143.641C42.0835 143.662 42.0657 143.687 42.0531 143.714C42.0405 143.741 42.0335 143.771 42.0324 143.801L41.8594 146.652C41.8594 146.801 41.9183 146.945 42.0235 147.052C42.1287 147.159 42.2718 147.22 42.4217 147.222C43.676 147.201 44.2729 147.123 45.882 147.123C46.8552 147.123 50.9989 147.227 52.3441 147.227C53.6893 147.227 53.6417 145.895 53.0837 145.773C50.5231 145.233 47.3526 144.476 46.4486 143.779C46.2825 143.645 46.0739 143.575 45.8603 143.58Z" fill="#263238"/>
<path d="M37.0239 140.553L33.9313 138.472C33.8812 138.433 33.8195 138.412 33.7561 138.412C33.6926 138.412 33.631 138.433 33.5809 138.472L31.2193 140.856C31.1724 140.908 31.1377 140.97 31.1177 141.037C31.0978 141.105 31.093 141.176 31.1037 141.245C31.1145 141.315 31.1405 141.381 31.1799 141.439C31.2194 141.498 31.2712 141.546 31.3317 141.582C33.3041 143.1 34.7271 144.242 35.8474 145.505C37.145 146.985 37.8501 147.192 40.8778 147.192C42.2792 147.192 43.0708 146.011 42.4998 145.83C37.4521 144.234 38.8016 143.537 37.5776 141.197C37.4474 140.941 37.2575 140.72 37.0239 140.553Z" fill="#263238"/>
<path d="M72.2799 41.7611L73.3829 38.2316L76.2463 40.3294C76.2463 40.3294 74.6805 43.474 73.6208 43.1885L72.2799 41.7611Z" fill="#B97964"/>
<path d="M76.3976 36.8821L78.011 38.8588L76.2462 40.3294L73.3828 38.2316L76.3976 36.8821Z" fill="#B97964"/>
<path opacity="0.2" d="M39.9867 49.6679C39.8236 44.9647 39.2534 40.2844 38.2825 35.6796C39.4287 35.5802 41.3881 35.6796 41.7125 37.5439C42.0629 39.5336 41.6217 44.2136 39.9867 49.6679Z" fill="black"/>
<path opacity="0.5" d="M50.9946 96.4598C50.3761 90.7893 48.992 81.9049 47.8025 74.6297C48.4254 73.4099 50.1685 70.9444 50.1685 70.9444C51.7343 76.3555 55.1383 96.7496 50.2853 124.298C45.2246 132.456 40.3802 139.143 40.3802 139.143L39.7184 128.623C44.3941 119.826 51.8554 104.328 50.9946 96.4598Z" fill="black"/>
<path d="M41.1545 39.3043L40.3975 40.6019C40.138 41.0518 39.8871 41.5059 39.6449 41.9644C39.1518 42.8814 38.6775 43.8041 38.2219 44.7327C37.7893 45.6626 37.3568 46.5969 36.9718 47.5312C36.6 48.4527 36.2752 49.3925 35.9986 50.347L35.9467 50.52L35.9208 50.6108C35.9208 50.6368 35.9208 50.6108 35.9208 50.6108C35.9066 50.6346 35.8977 50.6612 35.8948 50.6887C35.8816 50.8225 35.8816 50.9572 35.8948 51.091C35.9395 51.4993 36.025 51.9021 36.15 52.2934C36.4497 53.2322 36.8154 54.1485 37.2443 55.0357C38.1094 56.8956 39.1605 58.7858 40.2116 60.6111L38.3127 62.0947C36.7353 60.4905 35.3091 58.7443 34.0522 56.8783C33.3856 55.8913 32.8067 54.8477 32.3221 53.7597C32.0485 53.139 31.837 52.4929 31.6906 51.8306C31.6062 51.4309 31.5627 51.0237 31.5608 50.6152C31.5576 50.369 31.575 50.1231 31.6127 49.8799L31.643 49.7025V49.5901L31.6906 49.3695C32.1565 47.0853 32.8746 44.86 33.8316 42.7343C34.2858 41.6876 34.7832 40.6668 35.3152 39.6676C35.5834 39.1659 35.8559 38.6728 36.1414 38.1797C36.4268 37.6866 36.708 37.2195 37.0454 36.6961L41.1545 39.3043Z" fill="#B97964"/>
<path d="M42.3008 40.4852C41.5011 42.7003 40.5724 44.8667 39.5196 46.9732C39.2903 47.449 39.087 47.8729 38.9054 48.2146C38.6026 48.8158 38.4123 49.1792 38.4123 49.1792L31.9242 45.5805C31.9242 45.5805 32.0064 45.308 32.1534 44.8495C32.2659 44.5034 32.413 44.0493 32.586 43.5259C33.6673 40.4419 35.8776 34.94 38.0446 34.6243C41.2843 34.1744 43.6157 36.5966 42.3008 40.4852Z" fill="#5988C6"/>
<path opacity="0.2" d="M39.5195 46.9948C39.2903 47.4706 39.087 47.8945 38.9053 48.2362L32.1448 44.8711C32.2572 44.525 32.4043 44.0709 32.5773 43.5475L39.5195 46.9948Z" fill="black"/>
<path d="M46.9981 144.117C46.7066 144.11 46.4166 144.072 46.133 144.004C46.1186 144 46.1054 143.993 46.0947 143.982C46.0841 143.971 46.0765 143.958 46.0725 143.944C46.0709 143.93 46.0733 143.915 46.0794 143.902C46.0855 143.889 46.0951 143.878 46.1071 143.87C46.2066 143.797 47.1192 143.178 47.5085 143.33C47.553 143.347 47.5923 143.376 47.6225 143.413C47.6528 143.45 47.6731 143.494 47.6815 143.542C47.7013 143.612 47.7029 143.686 47.6863 143.757C47.6696 143.828 47.6353 143.894 47.5864 143.948C47.4174 144.074 47.2082 144.134 46.9981 144.117ZM46.3493 143.896C46.9246 144.009 47.3441 143.991 47.4955 143.844C47.5266 143.808 47.5478 143.764 47.5569 143.717C47.566 143.67 47.5627 143.622 47.5474 143.576C47.5443 143.553 47.535 143.531 47.5206 143.513C47.5061 143.495 47.487 143.481 47.4653 143.472C47.2533 143.39 46.7213 143.658 46.3493 143.896Z" fill="#5988C6"/>
<path d="M46.1634 144.013C46.1522 144.017 46.1401 144.017 46.1288 144.013C46.118 144.007 46.1087 143.998 46.102 143.987C46.0952 143.977 46.0911 143.965 46.0899 143.952C46.0899 143.914 46.0164 142.992 46.3408 142.681C46.3816 142.64 46.4314 142.609 46.4863 142.591C46.5411 142.573 46.5995 142.568 46.6565 142.577C46.7202 142.58 46.7812 142.603 46.8303 142.644C46.8795 142.685 46.9141 142.74 46.929 142.802C47.0026 143.152 46.5225 143.823 46.2024 144.013H46.1634ZM46.596 142.715C46.5663 142.715 46.5367 142.72 46.5092 142.731C46.4817 142.742 46.4567 142.759 46.4359 142.78C46.2579 143.088 46.1836 143.444 46.224 143.797C46.5008 143.563 46.8209 143.053 46.7733 142.824C46.7733 142.78 46.7387 142.728 46.6306 142.715H46.596Z" fill="#5988C6"/>
<path d="M39.1 142.283C38.528 142.195 37.9819 141.984 37.4996 141.664C37.4864 141.657 37.476 141.645 37.4698 141.631C37.4636 141.617 37.4619 141.601 37.465 141.586C37.4683 141.571 37.4763 141.557 37.4879 141.546C37.4995 141.535 37.5141 141.528 37.5298 141.526C37.7029 141.526 39.2211 141.413 39.5152 141.76C39.539 141.79 39.5553 141.825 39.5629 141.862C39.5704 141.9 39.5689 141.939 39.5584 141.976C39.5458 142.035 39.5187 142.091 39.4795 142.138C39.4403 142.185 39.3901 142.221 39.3335 142.244C39.2586 142.271 39.1795 142.284 39.1 142.283ZM37.8023 141.66C38.4944 142.041 39.0394 142.205 39.2816 142.093C39.3173 142.078 39.3489 142.055 39.3738 142.026C39.3986 141.996 39.416 141.961 39.4244 141.924C39.4316 141.911 39.4354 141.897 39.4354 141.883C39.4354 141.868 39.4316 141.854 39.4244 141.842C39.2427 141.677 38.4122 141.647 37.7937 141.673L37.8023 141.66Z" fill="#5988C6"/>
<path d="M37.5385 141.69C37.5257 141.69 37.5131 141.687 37.5018 141.681C37.4904 141.675 37.4808 141.666 37.4737 141.656C37.4683 141.644 37.4655 141.632 37.4655 141.619C37.4655 141.606 37.4683 141.594 37.4737 141.582C37.4996 141.53 38.0792 140.354 38.8189 140.717C39.0221 140.817 39.0438 140.938 39.0265 141.02C38.9486 141.366 37.9841 141.686 37.5429 141.699L37.5385 141.69ZM38.5377 140.795C38.1441 140.795 37.8067 141.297 37.6726 141.53C38.1354 141.47 38.8362 141.184 38.8794 140.981C38.8794 140.933 38.8448 140.89 38.754 140.843C38.6865 140.81 38.6125 140.794 38.5377 140.795Z" fill="#5988C6"/>
<path d="M39.3511 59.932L42.5432 59.3784L40.9039 63.0722C40.9039 63.0722 37.9886 63.0722 38.1227 61.554L39.3511 59.932Z" fill="#B97964"/>
<path d="M44.922 61.234L43.4254 64.2185L40.9037 63.0722L42.543 59.3784L44.922 61.234Z" fill="#B97964"/>
<path d="M35.8473 134.882L40.6398 139.389L42.1796 137.733L36.7037 132.741L35.8473 134.882Z" fill="#5988C6"/>
<path opacity="0.7" d="M35.8473 134.882L40.6398 139.389L42.1796 137.733L36.7037 132.741L35.8473 134.882Z" fill="white"/>
<path d="M50.9212 62.3629C50.9212 62.3629 51.2283 86.8705 50.7093 96.049C50.1383 106.105 47.2879 139.411 47.2879 139.411H41.4054C41.4054 139.411 41.5784 106.914 41.2281 96.9616C40.8431 86.1482 39.8483 62.3586 39.8483 62.3586L50.9212 62.3629Z" fill="#5988C6"/>
<path opacity="0.7" d="M50.9212 62.3629C50.9212 62.3629 51.2283 86.8705 50.7093 96.049C50.1383 106.105 47.2879 139.411 47.2879 139.411H41.4054C41.4054 139.411 41.5784 106.914 41.2281 96.9616C40.8431 86.1482 39.8483 62.3586 39.8483 62.3586L50.9212 62.3629Z" fill="black"/>
<path d="M41.1588 139.411H47.5041L47.8588 137.183L40.8517 137.529L41.1588 139.411Z" fill="#5988C6"/>
<path opacity="0.7" d="M41.1588 139.411H47.5041L47.8588 137.183L40.8517 137.529L41.1588 139.411Z" fill="white"/>
<path opacity="0.2" d="M42.3008 40.4852C41.5011 42.7003 40.5724 44.8667 39.5196 46.9732C39.2903 47.449 39.087 47.8729 38.9054 48.2146C38.6026 48.8158 38.4123 49.1792 38.4123 49.1792L31.9242 45.5805C31.9242 45.5805 32.0064 45.308 32.1534 44.8495C32.2659 44.5034 32.413 44.0493 32.586 43.5259C33.6673 40.4419 35.8776 34.94 38.0446 34.6243C41.2843 34.1744 43.6157 36.5966 42.3008 40.4852Z" fill="black"/>
<path d="M53.789 36.415C53.443 37.5612 52.4914 39.0924 49.8313 39.8753L49.1393 40.0829L48.4342 39.9575C43.0059 38.9842 41.0075 36.0646 40.6485 35.498L39.9219 34.2869C40.9556 34.1355 42.2532 33.9798 43.5249 33.9192C45.9524 33.7807 48.3857 33.7807 50.8132 33.9192C51.9334 34.023 53.0278 34.209 53.9015 34.3777C54.0221 35.0564 53.9836 35.7537 53.789 36.415Z" fill="#5988C6"/>
<path opacity="0.4" d="M53.789 36.415C53.443 37.5612 52.4914 39.0924 49.8313 39.8753L49.1393 40.0829L48.4342 39.9575C43.0059 38.9842 41.0075 36.0646 40.6485 35.498L39.9219 34.2869C40.9556 34.1355 42.2532 33.9798 43.5249 33.9192C45.9524 33.7807 48.3857 33.7807 50.8132 33.9192C51.9334 34.023 53.0278 34.209 53.9015 34.3777C54.0221 35.0564 53.9836 35.7537 53.789 36.415Z" fill="black"/>
<path d="M49.1912 36.9773C44.8399 36.1944 43.4774 33.9495 43.4774 33.9495C45.0648 32.3837 44.455 28.1059 43.91 25.7572L45.8607 27.3749L48.5165 29.5809C48.4378 29.9345 48.3814 30.2928 48.3478 30.6536C48.2051 32.0939 48.577 33.4045 50.6965 33.9062C50.7051 33.8933 52.4612 36.004 49.1912 36.9773Z" fill="#B97964"/>
<path d="M48.5249 29.5679C48.4462 29.9216 48.3898 30.2798 48.3562 30.6406C47.3657 30.4416 46.0421 29.3862 45.9037 28.3741C45.855 28.039 45.8434 27.6996 45.8691 27.362L48.5249 29.5679Z" fill="#A76755"/>
<path d="M50.3287 17.552C51.9118 18.2657 52.7899 22.7165 50.7613 23.6767C48.7327 24.637 47.3356 16.1981 50.3287 17.552Z" fill="#263238"/>
<path d="M43.1356 22.3662C43.8147 25.4847 44.0526 27.3403 45.8952 28.7634C46.4893 29.2314 47.2 29.5283 47.9505 29.622C48.701 29.7157 49.4628 29.6026 50.1538 29.295C50.8447 28.9873 51.4385 28.4968 51.871 27.8764C52.3036 27.256 52.5585 26.5292 52.6082 25.7745C52.8504 22.8722 51.6999 18.2614 48.4169 17.379C47.7116 17.1688 46.9635 17.1478 46.2475 17.3181C45.5315 17.4884 44.8729 17.844 44.3379 18.3493C43.8028 18.8546 43.41 19.4917 43.199 20.1968C42.988 20.9018 42.9661 21.65 43.1356 22.3662Z" fill="#B97964"/>
<path d="M39.498 19.2735C37.9798 19.9439 38.8406 22.0201 39.8743 23.3394C41.306 25.1733 42.8199 26.0297 43.8494 25.1863C44.775 24.7235 45.3849 21.9942 44.5803 20.3116C46.0034 19.373 48.9576 20.5322 49.8789 19.014C50.8002 17.4958 51.4577 17.6212 53.0797 18.6247C54.7017 19.6282 55.9993 15.6618 51.7821 14.9222C54.1178 15.9733 53.5815 18.0192 51.8729 15.9213C50.6662 14.4421 47.7725 12.8071 45.7612 15.013C44.2776 16.6221 39.0655 14.135 39.498 19.2735Z" fill="#263238"/>
<path d="M42.396 25.6188C42.9018 26.2274 43.601 26.6442 44.377 26.7997C45.3588 26.964 45.5794 26.0557 45.082 25.1733C44.6495 24.3818 43.5768 23.3394 42.6987 23.5729C41.8207 23.8065 41.7601 24.8532 42.396 25.6188Z" fill="#B97964"/>
<path d="M48.0362 22.6776C48.0752 22.9328 48.2439 23.1101 48.4126 23.1101C48.5812 23.1101 48.6851 22.8679 48.6418 22.6127C48.5985 22.3575 48.4385 22.1801 48.2698 22.1801C48.1011 22.1801 47.9973 22.418 48.0362 22.6776Z" fill="#263238"/>
<path d="M50.9211 22.3315C50.9601 22.5867 51.1288 22.7641 51.2974 22.7641C51.4661 22.7641 51.57 22.5175 51.531 22.2623C51.4921 22.0071 51.3234 21.8298 51.1547 21.8298C50.986 21.8298 50.9211 22.0763 50.9211 22.3315Z" fill="#263238"/>
<path d="M50.0562 22.5695C50.4853 23.3164 51.0118 24.0029 51.6219 24.611C51.4625 24.7569 51.2729 24.8659 51.0665 24.9302C50.8602 24.9945 50.6422 25.0125 50.4281 24.983L50.0562 22.5695Z" fill="#A24E3F"/>
<path d="M49.4634 25.7962C49.1639 25.7998 48.8666 25.7431 48.5895 25.6294C48.3123 25.5157 48.0608 25.3473 47.8501 25.1344C47.8361 25.1199 47.8282 25.1005 47.8282 25.0803C47.8282 25.0601 47.8361 25.0408 47.8501 25.0262C47.8646 25.0122 47.884 25.0044 47.9041 25.0044C47.9243 25.0044 47.9437 25.0122 47.9582 25.0262C48.1916 25.2526 48.473 25.4235 48.7816 25.5261C49.0901 25.6287 49.4178 25.6604 49.7403 25.6188C49.7503 25.6176 49.7604 25.6185 49.7701 25.6214C49.7797 25.6243 49.7887 25.6291 49.7964 25.6356C49.8041 25.6421 49.8104 25.6501 49.8149 25.6591C49.8194 25.6681 49.8219 25.678 49.8225 25.688C49.8243 25.6978 49.8241 25.7078 49.8217 25.7175C49.8194 25.7271 49.815 25.7362 49.8088 25.744C49.8027 25.7518 49.7949 25.7581 49.7861 25.7627C49.7772 25.7672 49.7675 25.7698 49.7576 25.7702C49.6602 25.7849 49.5619 25.7935 49.4634 25.7962Z" fill="#263238"/>
<path d="M46.9939 21.8471C46.9698 21.8536 46.9444 21.8536 46.9204 21.8471C46.8853 21.8271 46.8594 21.7943 46.8481 21.7555C46.8369 21.7168 46.841 21.6752 46.8598 21.6395C46.9736 21.4292 47.1364 21.2495 47.3344 21.1154C47.5324 20.9814 47.7598 20.8971 47.9974 20.8696C48.0337 20.8757 48.0666 20.8945 48.0904 20.9226C48.1142 20.9507 48.1272 20.9863 48.1272 21.0231C48.1272 21.06 48.1142 21.0956 48.0904 21.1237C48.0666 21.1518 48.0337 21.1706 47.9974 21.1767C47.8109 21.198 47.6326 21.2648 47.478 21.3711C47.3234 21.4774 47.1973 21.6201 47.1107 21.7866C47.0968 21.8046 47.0792 21.8193 47.059 21.8298C47.0388 21.8403 47.0166 21.8462 46.9939 21.8471Z" fill="#263238"/>
<path d="M52.0328 21.1724C52.0079 21.1717 51.9835 21.1651 51.9617 21.153C51.9399 21.141 51.9212 21.1239 51.9074 21.1031C51.8028 20.9391 51.6617 20.8014 51.4951 20.7009C51.3286 20.6004 51.141 20.5397 50.9472 20.5235C50.907 20.5235 50.8685 20.5076 50.8401 20.4792C50.8117 20.4508 50.7958 20.4123 50.7958 20.3722C50.7958 20.332 50.8117 20.2935 50.8401 20.2651C50.8685 20.2367 50.907 20.2208 50.9472 20.2208C51.1913 20.2347 51.4285 20.3067 51.6392 20.4309C51.8498 20.555 52.0278 20.7277 52.1583 20.9345C52.1698 20.9509 52.1779 20.9694 52.1821 20.989C52.1864 21.0086 52.1867 21.0288 52.1831 21.0486C52.1795 21.0683 52.172 21.0871 52.161 21.1039C52.1501 21.1207 52.1359 21.1351 52.1193 21.1464C52.0937 21.1634 52.0636 21.1724 52.0328 21.1724Z" fill="#263238"/>
<g opacity="0.9">
<path opacity="0.9" d="M97.1768 71.2299C97.5445 70.3085 98.1728 69.5142 98.9847 68.9442C99.7967 68.3742 100.757 68.0532 101.749 68.0204H139.881C142.165 68.0204 143.709 69.8717 143.342 72.1598L131.278 144.182C131.065 145.321 130.471 146.353 129.592 147.109C128.714 147.864 127.605 148.298 126.447 148.338H30.8298C30.3092 148.358 29.7909 148.259 29.3147 148.048C28.8385 147.836 28.4172 147.518 28.083 147.119C27.7489 146.719 27.5108 146.248 27.3871 145.742C27.2634 145.236 27.2574 144.708 27.3695 144.199L37.625 82.8868C37.842 81.7513 38.4382 80.7233 39.3161 79.9712C40.1939 79.2192 41.3012 78.7876 42.4565 78.7474H86.4974C91.0045 78.7301 95.4293 75.6201 97.1768 71.2299Z" fill="#5988C6"/>
</g>
<path opacity="0.5" d="M97.1768 71.2299C97.5445 70.3085 98.1728 69.5142 98.9847 68.9442C99.7967 68.3742 100.757 68.0532 101.749 68.0204H139.881C142.165 68.0204 143.709 69.8717 143.342 72.1598L131.278 144.182C131.065 145.321 130.471 146.353 129.592 147.109C128.714 147.864 127.605 148.298 126.447 148.338H30.8298C30.3092 148.358 29.7909 148.259 29.3147 148.048C28.8385 147.836 28.4172 147.518 28.083 147.119C27.7489 146.719 27.5108 146.248 27.3871 145.742C27.2634 145.236 27.2574 144.708 27.3695 144.199L37.625 82.8868C37.842 81.7513 38.4382 80.7233 39.3161 79.9712C40.1939 79.2192 41.3012 78.7876 42.4565 78.7474H86.4974C91.0045 78.7301 95.4293 75.6201 97.1768 71.2299Z" fill="white"/>
<path opacity="0.9" d="M81.999 7.28352L53.1444 107.546L119.15 126.538L148 26.2763L81.999 7.28352Z" fill="#5988C6"/>
<path opacity="0.7" d="M81.999 7.28352L53.1444 107.546L119.15 126.538L148 26.2763L81.999 7.28352Z" fill="white"/>
<g style="mix-blend-mode:multiply" opacity="0.9">
<path d="M80.7187 11.7257L53.1444 107.546L116.905 125.894L142.749 26.7218L80.7187 11.7257Z" fill="#5988C6"/>
</g>
<path opacity="0.6" d="M80.7187 11.7257L53.1444 107.546L116.905 125.894L142.749 26.7218L80.7187 11.7257Z" fill="#5988C6"/>
<g opacity="0.9">
<g style="mix-blend-mode:multiply" opacity="0.9">
<path d="M80.7187 11.7257L53.1444 107.546L116.905 125.894L142.749 26.7218L80.7187 11.7257Z" fill="white"/>
</g>
<path opacity="0.6" d="M80.7187 11.7257L53.1444 107.546L116.905 125.894L142.749 26.7218L80.7187 11.7257Z" fill="white"/>
</g>
<path d="M104.09 38.8712C108.416 33.9243 107.913 26.407 102.966 22.0809C98.0194 17.7548 90.5021 18.258 86.176 23.2049C81.8499 28.1518 82.3532 35.6691 87.3001 39.9952C92.247 44.3213 99.7642 43.8181 104.09 38.8712Z" fill="#5988C6"/>
<path d="M92.5226 40.0872C90.7313 39.5696 89.1337 38.5325 87.9317 37.1071C86.7297 35.6816 85.9772 33.9318 85.7695 32.0788C85.5618 30.2258 85.9081 28.3529 86.7647 26.6967C87.6213 25.0405 88.9497 23.6754 90.5819 22.7741C92.2142 21.8727 94.077 21.4755 95.935 21.6327C97.7929 21.7898 99.5626 22.4943 101.02 23.6571C102.478 24.8198 103.558 26.3886 104.124 28.1652C104.69 29.9417 104.717 31.8463 104.201 33.638C103.859 34.8289 103.285 35.9406 102.512 36.9095C101.74 37.8783 100.784 38.6853 99.6993 39.2844C98.6145 39.8834 97.4223 40.2626 96.1909 40.4003C94.9594 40.5381 93.7129 40.4317 92.5226 40.0872Z" fill="white"/>
<path d="M99.7223 50.0166L78.714 43.9727L77.3555 48.6948L98.3638 54.7387L99.7223 50.0166Z" fill="#5988C6"/>
<path d="M78.865 87.0396L67.2842 83.7079L62.0032 102.064L73.584 105.396L78.865 87.0396Z" fill="#5988C6"/>
<path d="M119.844 98.8309L108.263 95.4992L102.982 113.856L114.563 117.187L119.844 98.8309Z" fill="#5988C6"/>
<path d="M99.3523 92.9375L87.7715 89.6058L82.4906 107.962L94.0713 111.294L99.3523 92.9375Z" fill="#5988C6"/>
<path d="M116.698 54.8966L102.486 50.8079L101.128 55.53L115.34 59.6187L116.698 54.8966Z" fill="#5988C6"/>
<path d="M127.768 69.1913L75.7621 54.2299L75.2024 56.1752L127.208 71.1367L127.768 69.1913Z" fill="white"/>
<path d="M100.433 65.8027L74.5732 58.3633L74.0136 60.3086L99.8729 67.7481L100.433 65.8027Z" fill="white"/>
<path d="M122.153 72.0516L104.856 67.0756L104.297 69.0209L121.593 73.9969L122.153 72.0516Z" fill="white"/>
<path d="M114.956 74.4534L73.3838 62.4936L72.8241 64.4389L114.396 76.3988L114.956 74.4534Z" fill="white"/>
<path d="M119.455 80.8066L71.7194 66.8838L71.1526 68.8271L118.888 82.7499L119.455 80.8066Z" fill="white"/>
<path d="M76.5236 72.3512L71.0034 70.7631L70.4438 72.7085L75.964 74.2966L76.5236 72.3512Z" fill="white"/>
<path d="M105.346 80.644L80.9537 73.6267L80.3941 75.5721L104.786 82.5894L105.346 80.644Z" fill="white"/>
<path d="M121.822 89.8604L69.8162 74.8989L69.2565 76.8443L121.262 91.8058L121.822 89.8604Z" fill="white"/>
<path d="M74.3172 10.7914L48.9489 112.005L115.56 128.705L140.924 27.4917L74.3172 10.7914Z" fill="#5988C6"/>
<path opacity="0.8" d="M74.3172 10.7914L48.9489 112.005L115.56 128.705L140.924 27.4917L74.3172 10.7914Z" fill="white"/>
<path d="M93.4391 44.7566C99.3567 41.8984 101.837 34.7843 98.9787 28.8666C96.1206 22.949 89.0064 20.4688 83.0888 23.327C77.1712 26.1851 74.691 33.2993 77.5491 39.2169C80.4073 45.1345 87.5214 47.6147 93.4391 44.7566Z" fill="#5988C6"/>
<path d="M97.5311 35.7483C98.4685 30.6257 95.0757 25.7131 89.9531 24.7756C84.8305 23.8382 79.9179 27.231 78.9805 32.3536C78.0431 37.4762 81.4359 42.3889 86.5585 43.3263C91.6811 44.2637 96.5937 40.8709 97.5311 35.7483Z" fill="white"/>
<path d="M93.5086 52.8747L72.304 47.5603L71.1094 52.3265L92.314 57.6409L93.5086 52.8747Z" fill="#5988C6"/>
<path d="M73.9423 90.5984L62.2533 87.6688L57.6097 106.197L69.2987 109.126L73.9423 90.5984Z" fill="#5988C6"/>
<path d="M115.299 100.965L103.61 98.0354L98.9666 116.563L110.656 119.493L115.299 100.965Z" fill="#5988C6"/>
<path d="M94.6222 95.7816L82.9332 92.8521L78.2897 111.38L89.9787 114.309L94.6222 95.7816Z" fill="#5988C6"/>
<path d="M110.638 57.166L96.2931 53.5708L95.0986 58.337L109.443 61.9322L110.638 57.166Z" fill="#5988C6"/>
<path d="M122.197 71.0679L69.7056 57.9122L69.2135 59.8758L121.705 73.0315L122.197 71.0679Z" fill="white"/>
<path d="M94.763 68.6246L68.6621 62.083L68.17 64.0466L94.2709 70.5881L94.763 68.6246Z" fill="white"/>
<path d="M116.685 74.1174L99.2267 69.742L98.7346 71.7055L116.193 76.081L116.685 74.1174Z" fill="white"/>
<path d="M109.575 76.7716L67.6145 66.2552L67.1224 68.2188L109.083 78.7351L109.575 76.7716Z" fill="white"/>
<path d="M114.805 82.5194L66.5725 70.431L66.0804 72.3945L114.313 84.4829L114.805 82.5194Z" fill="white"/>
<path d="M71.0955 76.0035L65.5237 74.6071L65.0316 76.5706L70.6033 77.9671L71.0955 76.0035Z" fill="white"/>
<path d="M100.187 83.2894L75.5671 77.119L75.075 79.0825L99.6949 85.2529L100.187 83.2894Z" fill="white"/>
<path d="M116.97 91.9308L64.4784 78.7751L63.9863 80.7386L116.478 93.8943L116.97 91.9308Z" fill="white"/>
<path opacity="0.5" d="M71.709 86.2649C71.7912 84.6429 73.2099 83.4967 75.139 83.4967H113.276C115.56 83.4967 117.761 85.0927 118.194 87.0651L129.643 144.748C130.076 146.721 128.57 148.321 126.287 148.321H30.6569C28.3687 148.321 26.1671 146.721 25.7346 144.748L16.3182 96.3084C15.8857 94.336 17.3909 92.7357 19.6791 92.7357H63.7027C68.2228 92.7357 71.5273 90.0539 71.709 86.2649Z" fill="#5988C6"/>
</svg>
