<svg width="162" height="143" viewBox="0 0 162 143" fill="none" xmlns="http://www.w3.org/2000/svg">
<path d="M16.7703 120.198C-8.82754 95.596 -11.1822 22.5477 53.306 36.2027C71.2525 39.9986 75.6588 53.6443 83.659 50.9776C96.4143 46.7044 89.7131 15.3003 110.083 4.10552C131.55 -7.68594 152.824 8.12628 157.951 23.7044C165.428 46.4244 164.4 87.1965 138.853 117.444C125.294 133.509 101.426 142.45 78.8075 142.363C56.1884 142.275 31.1689 134.027 16.7703 120.198Z" fill="#5988C6"/>
<path opacity="0.9" d="M16.7703 120.198C-8.82754 95.596 -11.1822 22.5477 53.306 36.2027C71.2525 39.9986 75.6588 53.6443 83.659 50.9776C96.4143 46.7044 89.7131 15.3003 110.083 4.10552C131.55 -7.68594 152.824 8.12628 157.951 23.7044C165.428 46.4244 164.4 87.1965 138.853 117.444C125.294 133.509 101.426 142.45 78.8075 142.363C56.1884 142.275 31.1689 134.027 16.7703 120.198Z" fill="white"/>
<path d="M22 93.6237V101.057C22.0013 102.44 22.5514 103.767 23.5296 104.745C24.5078 105.723 25.8341 106.273 27.2175 106.274H98.3468C99.7289 106.272 101.053 105.721 102.03 104.743C103.006 103.765 103.555 102.439 103.555 101.057V93.6237H22Z" fill="#5988C6"/>
<path d="M98.337 46.0175H27.2175C24.336 46.0175 22 48.3534 22 51.235V100.074C22 102.956 24.336 105.292 27.2175 105.292H98.337C101.219 105.292 103.555 102.956 103.555 100.074V51.235C103.555 48.3534 101.219 46.0175 98.337 46.0175Z" fill="#5988C6"/>
<path opacity="0.8" d="M98.337 46.0175H27.2175C24.336 46.0175 22 48.3534 22 51.235V100.074C22 102.956 24.336 105.292 27.2175 105.292H98.337C101.219 105.292 103.555 102.956 103.555 100.074V51.235C103.555 48.3534 101.219 46.0175 98.337 46.0175Z" fill="white"/>
<path d="M54.0665 93.943H52.8334V93.1963H56.1889V93.9234H54.9558V97.048H54.0665V93.943Z" fill="#263238"/>
<path d="M59.1221 97.0676L58.3803 95.9917H57.5697V97.0676H56.6804V93.1963H58.3459C58.6511 93.19 58.9542 93.2486 59.2351 93.3682C59.4717 93.4727 59.673 93.6433 59.8149 93.8595C59.954 94.0814 60.0241 94.3396 60.0163 94.6013C60.0239 94.8638 59.952 95.1224 59.81 95.3432C59.6679 95.5611 59.4644 95.7321 59.2253 95.8345L60.09 97.0726L59.1221 97.0676ZM58.8961 94.1199C58.7199 93.9922 58.504 93.9313 58.2869 93.9479H57.5697V95.2892H58.2968C58.5144 95.3044 58.7303 95.2417 58.906 95.1123C58.9713 95.0483 59.0233 94.9718 59.0587 94.8875C59.0942 94.8031 59.1124 94.7125 59.1124 94.621C59.1124 94.5295 59.0942 94.4389 59.0587 94.3545C59.0233 94.2702 58.9713 94.1937 58.906 94.1297L58.8961 94.1199Z" fill="#263238"/>
<path d="M63.696 96.3504V97.0676H60.7139V93.1963H63.6223V93.9086H61.5982V94.7487H63.3865V95.4415H61.5982V96.3307L63.696 96.3504Z" fill="#263238"/>
<path d="M67.9358 93.1963V97.048H67.2038L65.2829 94.7094V97.048H64.4034V93.1963H65.1404L67.0564 95.5348V93.1963H67.9358Z" fill="#263238"/>
<path d="M68.8693 93.1963H70.6183C71.0021 93.1886 71.3824 93.2711 71.7286 93.437C72.0372 93.5846 72.2966 93.8184 72.4753 94.1101C72.6525 94.4179 72.7458 94.7669 72.7458 95.1221C72.7458 95.4773 72.6525 95.8263 72.4753 96.1342C72.2966 96.4259 72.0372 96.6596 71.7286 96.8073C71.3824 96.9732 71.0021 97.0556 70.6183 97.048H68.8693V93.1963ZM70.574 96.316C70.9125 96.3332 71.2442 96.2167 71.4977 95.9917C71.6048 95.8825 71.6884 95.7524 71.7433 95.6096C71.7982 95.4668 71.8233 95.3143 71.817 95.1614C71.8255 94.9996 71.7992 94.8378 71.7398 94.6869C71.6805 94.5361 71.5896 94.3997 71.4731 94.2869C71.2179 94.0655 70.887 93.9511 70.5495 93.9676H69.7388V96.3553L70.574 96.316Z" fill="#263238"/>
<path d="M38.3599 83.7634H31.0298V87.1926H38.3599V83.7634Z" fill="#5988C6"/>
<path d="M49.596 80.6879H42.2659V87.1976H49.596V80.6879Z" fill="#263238"/>
<path d="M60.8268 79.7987H53.4967V87.1976H60.8268V79.7987Z" fill="#5988C6"/>
<path d="M72.0626 74.0997H64.7325V87.1976H72.0626V74.0997Z" fill="#263238"/>
<path d="M83.2937 65.4579H75.9636V87.1926H83.2937V65.4579Z" fill="#5988C6"/>
<path d="M94.5245 58.0688H87.1945V87.1976H94.5245V58.0688Z" fill="#263238"/>
<path d="M57.9624 15.2724C56.4263 13.6741 54.5831 12.4029 52.5433 11.535C50.5036 10.6671 48.3095 10.2204 46.0928 10.2219V20.539C47.342 20.539 48.5778 20.7964 49.7231 21.2951C50.8685 21.7938 51.8988 22.5232 52.7498 23.4376L57.9624 18.225V15.2724Z" fill="#5988C6"/>
<path opacity="0.3" d="M57.9624 15.2724C56.4263 13.6741 54.5831 12.4029 52.5433 11.535C50.5036 10.6671 48.3095 10.2204 46.0928 10.2219V20.539C47.342 20.539 48.5778 20.7964 49.7231 21.2951C50.8685 21.7938 51.8988 22.5232 52.7498 23.4376L57.9624 18.225V15.2724Z" fill="white"/>
<path d="M52.7498 20.485L57.9624 15.2724C56.4263 13.6741 54.5831 12.4029 52.5433 11.535C50.5036 10.6671 48.3095 10.2204 46.0928 10.2219V17.5913C47.3416 17.5906 48.5772 17.8473 49.7225 18.3451C50.8678 18.843 51.8983 19.5714 52.7498 20.485Z" fill="#5988C6"/>
<path d="M51.7673 26.3805C53.003 27.6981 53.8187 29.3535 54.1108 31.1362C53.7637 33.2732 52.6676 35.217 51.0186 36.6198C49.3696 38.0226 47.2753 38.7929 45.1103 38.7929C42.9453 38.7929 40.8509 38.0226 39.2019 36.6198C37.5529 35.217 36.4568 33.2732 36.1098 31.1362C36.4572 28.9992 37.5533 27.0554 39.2022 25.6522C40.8511 24.2491 42.9452 23.478 45.1103 23.4769V13.1598C40.7348 13.1598 36.5386 14.8979 33.4447 17.9918C30.3508 21.0857 28.6127 25.282 28.6127 29.6574C28.6127 30.1487 28.6421 30.64 28.6815 31.1313C28.6421 31.6226 28.6127 32.1139 28.6127 32.6051C28.6873 36.9306 30.458 41.0537 33.5433 44.0862C36.6287 47.1188 40.7817 48.8181 45.1078 48.8181C49.4339 48.8181 53.587 47.1188 56.6723 44.0862C59.7576 41.0537 61.5283 36.9306 61.603 32.6051C61.603 32.1139 61.603 31.6226 61.5342 31.1313C61.5784 30.64 61.603 30.1487 61.603 29.6574C61.6097 25.3856 59.9514 21.2793 56.9799 18.2103L51.7673 23.4327V26.3805Z" fill="#5988C6"/>
<path opacity="0.3" d="M51.7673 26.3805C53.003 27.6981 53.8187 29.3535 54.1108 31.1362C53.7637 33.2732 52.6676 35.217 51.0186 36.6198C49.3696 38.0226 47.2753 38.7929 45.1103 38.7929C42.9453 38.7929 40.8509 38.0226 39.2019 36.6198C37.5529 35.217 36.4568 33.2732 36.1098 31.1362C36.4572 28.9992 37.5533 27.0554 39.2022 25.6522C40.8511 24.2491 42.9452 23.478 45.1103 23.4769V13.1598C40.7348 13.1598 36.5386 14.8979 33.4447 17.9918C30.3508 21.0857 28.6127 25.282 28.6127 29.6574C28.6127 30.1487 28.6421 30.64 28.6815 31.1313C28.6421 31.6226 28.6127 32.1139 28.6127 32.6051C28.6873 36.9306 30.458 41.0537 33.5433 44.0862C36.6287 47.1188 40.7817 48.8181 45.1078 48.8181C49.4339 48.8181 53.587 47.1188 56.6723 44.0862C59.7576 41.0537 61.5283 36.9306 61.603 32.6051C61.603 32.1139 61.603 31.6226 61.5342 31.1313C61.5784 30.64 61.603 30.1487 61.603 29.6574C61.6097 25.3856 59.9514 21.2793 56.9799 18.2103L51.7673 23.4327V26.3805Z" fill="white"/>
<path opacity="0.6" d="M56.9798 18.2201L51.7672 23.4327C53.1984 24.9664 54.0574 26.9464 54.1996 29.0394C54.3417 31.1323 53.7582 33.2103 52.5473 34.9233C51.3365 36.6364 49.5723 37.8798 47.5519 38.4442C45.5315 39.0087 43.3783 38.8596 41.455 38.0221C39.5317 37.1847 37.9557 35.71 36.9925 33.8464C36.0293 31.9828 35.7377 29.8443 36.1669 27.7909C36.5961 25.7375 37.7198 23.8947 39.3487 22.5729C40.9777 21.2512 43.0124 20.5311 45.1101 20.5341V13.1647C41.3034 13.1614 37.6125 14.4738 34.6625 16.8797C31.7124 19.2857 29.6846 22.6373 28.9224 26.3669C28.1602 30.0966 28.7105 33.9751 30.48 37.3455C32.2496 40.716 35.1296 43.3713 38.6325 44.8617C42.1353 46.3521 46.0456 46.5861 49.7012 45.5241C53.3568 44.462 56.5329 42.1691 58.6918 39.0337C60.8506 35.8983 61.8595 32.1131 61.5475 28.3192C61.2355 24.5253 59.6218 20.9558 56.9798 18.2152V18.2201Z" fill="white"/>
<path d="M41.3174 32.0844V32.9933H37.6769V32.276L39.534 30.5221C39.6929 30.3815 39.8274 30.2154 39.9319 30.0308C39.9988 29.907 40.0342 29.7686 40.0351 29.6279C40.0401 29.5439 40.0249 29.4598 39.9907 29.3829C39.9565 29.3059 39.9044 29.2383 39.8386 29.1858C39.6696 29.0716 39.4671 29.0179 39.2638 29.0335C39.0675 29.0312 38.8731 29.0714 38.6939 29.1514C38.5227 29.2341 38.3756 29.3593 38.2664 29.5149L37.4558 28.9892C37.651 28.7055 37.9192 28.4797 38.2321 28.3358C38.587 28.1699 38.9752 28.0876 39.3669 28.0951C39.6902 28.0883 40.0114 28.1486 40.3102 28.272C40.5603 28.3737 40.7766 28.544 40.9342 28.7632C41.0845 28.9846 41.1618 29.2474 41.1552 29.5149C41.1564 29.7695 41.1011 30.0212 40.9931 30.2519C40.8286 30.5483 40.6123 30.8129 40.3544 31.033L39.2441 32.0795L41.3174 32.0844Z" fill="#263238"/>
<path d="M42.7619 32.7673C42.439 32.5585 42.1845 32.2595 42.0298 31.9075C41.6761 31.0518 41.6761 30.0906 42.0298 29.2349C42.1845 28.8829 42.439 28.5839 42.7619 28.3751C43.0817 28.1768 43.4517 28.0745 43.828 28.0803C44.2042 28.0745 44.5743 28.1768 44.8941 28.3751C45.2142 28.5871 45.4679 28.8851 45.6261 29.2349C45.9799 30.0906 45.9799 31.0518 45.6261 31.9075C45.4693 32.2582 45.2152 32.5566 44.8941 32.7673C44.5743 32.9656 44.2042 33.0679 43.828 33.0621C43.4517 33.0679 43.0817 32.9656 42.7619 32.7673ZM44.5158 31.7405C44.6809 31.3728 44.7663 30.9743 44.7663 30.5712C44.7663 30.1681 44.6809 29.7696 44.5158 29.4019C44.4421 29.2863 44.3404 29.1911 44.2202 29.1251C44.1 29.0592 43.9651 29.0246 43.828 29.0246C43.6908 29.0246 43.5559 29.0592 43.4357 29.1251C43.3155 29.1911 43.2138 29.2863 43.1402 29.4019C42.9751 29.7696 42.8897 30.1681 42.8897 30.5712C42.8897 30.9743 42.9751 31.3728 43.1402 31.7405C43.2138 31.8561 43.3155 31.9513 43.4357 32.0173C43.5559 32.0832 43.6908 32.1178 43.828 32.1178C43.9651 32.1178 44.1 32.0832 44.2202 32.0173C44.3404 31.9513 44.4421 31.8561 44.5158 31.7405Z" fill="#263238"/>
<path d="M46.6825 30.4189C46.4657 30.1429 46.3479 29.802 46.3479 29.4511C46.3479 29.1001 46.4657 28.7593 46.6825 28.4832C46.7924 28.3649 46.9265 28.2716 47.0757 28.2097C47.2249 28.1478 47.3857 28.1188 47.5471 28.1246C47.7079 28.1185 47.868 28.1474 48.0164 28.2094C48.1649 28.2713 48.2981 28.3647 48.4069 28.4832C48.6204 28.7607 48.7362 29.1009 48.7362 29.4511C48.7362 29.8012 48.6204 30.1414 48.4069 30.4189C48.2981 30.5374 48.1649 30.6308 48.0164 30.6928C47.868 30.7547 47.7079 30.7836 47.5471 30.7775C47.3857 30.7833 47.2249 30.7543 47.0757 30.6924C46.9265 30.6305 46.7924 30.5373 46.6825 30.4189ZM47.9156 30.021C48.0028 29.8436 48.0481 29.6487 48.0481 29.4511C48.0481 29.2535 48.0028 29.0585 47.9156 28.8812C47.8751 28.8214 47.8205 28.7724 47.7567 28.7386C47.6929 28.7048 47.6218 28.6871 47.5496 28.6871C47.4774 28.6871 47.4062 28.7048 47.3424 28.7386C47.2786 28.7724 47.2241 28.8214 47.1836 28.8812C47.0818 29.0513 47.0338 29.2482 47.046 29.4461C47.0328 29.6457 47.0808 29.8445 47.1836 30.016C47.2248 30.0748 47.2796 30.1228 47.3433 30.156C47.407 30.1891 47.4778 30.2064 47.5496 30.2064C47.6214 30.2064 47.6922 30.1891 47.7559 30.156C47.8196 30.1228 47.8744 30.0748 47.9156 30.016V30.021ZM50.4163 28.1786H51.2318L47.9451 32.9933H47.1295L50.4163 28.1786ZM50.2001 32.8852C50.0164 32.7768 49.8693 32.616 49.7776 32.4234C49.6771 32.2028 49.6251 31.9632 49.6251 31.7208C49.6251 31.4784 49.6771 31.2389 49.7776 31.0183C49.8693 30.8257 50.0164 30.6649 50.2001 30.5565C50.3859 30.4468 50.5985 30.3907 50.8142 30.3943C50.9757 30.3885 51.1364 30.4176 51.2856 30.4795C51.4348 30.5413 51.569 30.6346 51.6789 30.753C51.8956 31.029 52.0135 31.3698 52.0135 31.7208C52.0135 32.0718 51.8956 32.4126 51.6789 32.6887C51.569 32.807 51.4348 32.9003 51.2856 32.9622C51.1364 33.0241 50.9757 33.0531 50.8142 33.0473C50.5985 33.051 50.3859 32.9949 50.2001 32.8852ZM51.1827 32.2907C51.2812 32.1176 51.3273 31.9196 51.3153 31.7208C51.329 31.5234 51.2828 31.3265 51.1827 31.1558C51.1439 31.0936 51.0895 31.0427 51.0248 31.0082C50.9601 30.9737 50.8875 30.9569 50.8142 30.9593C50.7424 30.9581 50.6714 30.9751 50.6079 31.0086C50.5444 31.0421 50.4903 31.091 50.4507 31.1509C50.3601 31.3273 50.3129 31.5226 50.3129 31.7208C50.3129 31.919 50.3601 32.1144 50.4507 32.2907C50.4919 32.3495 50.5467 32.3975 50.6104 32.4306C50.6741 32.4638 50.7449 32.4811 50.8167 32.4811C50.8885 32.4811 50.9592 32.4638 51.023 32.4306C51.0867 32.3975 51.1415 32.3495 51.1827 32.2907Z" fill="#263238"/>
<path d="M56.9798 77.8286C56.9312 77.8293 56.883 77.8202 56.838 77.8019C56.793 77.7836 56.7521 77.7565 56.7178 77.7222C56.6834 77.6878 56.6563 77.6469 56.638 77.6019C56.6197 77.5569 56.6106 77.5087 56.6113 77.4601V71.6531C56.6117 71.0196 56.3608 70.4118 55.9137 69.963L45.7046 59.754C45.4136 59.465 45.1826 59.1214 45.0249 58.7428C44.8673 58.3642 44.786 57.9582 44.7859 57.5481V51.9522C44.7872 51.8549 44.8264 51.7619 44.8952 51.6931C44.964 51.6243 45.057 51.585 45.1544 51.5838C45.2521 51.5838 45.3458 51.6226 45.4149 51.6917C45.484 51.7608 45.5228 51.8545 45.5228 51.9522V57.5481C45.5223 57.8615 45.5842 58.1719 45.7048 58.4612C45.8254 58.7505 46.0024 59.0129 46.2254 59.2332L56.4344 69.4422C56.7254 69.732 56.9559 70.0766 57.1128 70.4561C57.2697 70.8356 57.3497 71.2424 57.3482 71.6531V77.4749C57.3444 77.57 57.3039 77.66 57.2352 77.726C57.1665 77.7919 57.075 77.8287 56.9798 77.8286Z" fill="#263238"/>
<path d="M80.1148 26.9897H79.3287V28.0017H78.2429V26.9897H75.6489V26.238L77.9187 23.1871H79.088L76.9852 26.0808H78.2773V25.1817H79.3287V26.0808H80.1148V26.9897Z" fill="#263238"/>
<path d="M83.6078 25.3979C83.7681 25.5285 83.896 25.6946 83.9812 25.883C84.0665 26.0714 84.1068 26.277 84.0991 26.4836C84.1024 26.7661 84.0257 27.0437 83.878 27.2844C83.717 27.5379 83.4845 27.738 83.2099 27.8593C82.8597 28.0164 82.4783 28.092 82.0946 28.0803C81.7625 28.0778 81.4321 28.0315 81.1121 27.9428C80.8132 27.8678 80.5303 27.7396 80.2769 27.5645L80.7141 26.7096C80.9055 26.8516 81.1199 26.9597 81.3479 27.029C81.5864 27.1035 81.8349 27.1416 82.0848 27.142C82.3155 27.155 82.5449 27.0986 82.7431 26.9798C82.8196 26.9301 82.8819 26.8614 82.9241 26.7805C82.9662 26.6996 82.9868 26.6092 82.9839 26.518C82.9961 26.4205 82.9787 26.3215 82.934 26.2339C82.8894 26.1463 82.8194 26.0742 82.7333 26.0267C82.4629 25.8967 82.1628 25.8407 81.8637 25.8646H80.6306L80.8812 23.1576H83.8289V24.0517H81.8195L81.7409 24.9655H82.1339C82.6604 24.9356 83.181 25.0884 83.6078 25.3979Z" fill="#263238"/>
<path d="M84.7035 25.4224C84.4871 25.1472 84.3695 24.8072 84.3695 24.4571C84.3695 24.1069 84.4871 23.767 84.7035 23.4917C84.8134 23.3733 84.9475 23.28 85.0967 23.2181C85.2459 23.1563 85.4067 23.1272 85.5681 23.133C85.7289 23.127 85.889 23.1559 86.0375 23.2178C86.1859 23.2797 86.3191 23.3732 86.4279 23.4917C86.641 23.7684 86.7566 24.1078 86.7566 24.4571C86.7566 24.8063 86.641 25.1458 86.4279 25.4224C86.3194 25.5416 86.1863 25.6357 86.0379 25.6985C85.8895 25.7613 85.7292 25.7911 85.5681 25.786C85.4064 25.7909 85.2455 25.7609 85.0963 25.6982C84.9471 25.6355 84.8132 25.5414 84.7035 25.4224ZM85.9366 25.0294C86.0377 24.8573 86.084 24.6585 86.0693 24.4595C86.084 24.2605 86.0377 24.0617 85.9366 23.8896C85.8978 23.8274 85.8434 23.7765 85.7787 23.742C85.714 23.7075 85.6414 23.6906 85.5681 23.6931C85.4959 23.6924 85.4246 23.7101 85.361 23.7445C85.2975 23.7789 85.2436 23.8288 85.2046 23.8896C85.1018 24.0612 85.0538 24.26 85.067 24.4595C85.0548 24.6574 85.1028 24.8544 85.2046 25.0245C85.2426 25.0863 85.2962 25.137 85.36 25.1715C85.4238 25.206 85.4956 25.2231 85.5681 25.221C85.6409 25.2235 85.713 25.2072 85.7775 25.1736C85.8421 25.14 85.8969 25.0904 85.9366 25.0294ZM88.4373 23.1871H89.2528L85.9661 28.0017H85.1506L88.4373 23.1871ZM88.2211 27.8936C88.0375 27.7852 87.8903 27.6244 87.7986 27.4318C87.6981 27.2112 87.6462 26.9717 87.6462 26.7293C87.6462 26.4869 87.6981 26.2473 87.7986 26.0267C87.8862 25.8238 88.0336 25.6524 88.2211 25.5354C88.4083 25.4295 88.6202 25.3753 88.8352 25.3782C88.9967 25.3724 89.1574 25.4015 89.3066 25.4634C89.4558 25.5252 89.59 25.6185 89.6999 25.7369C89.9348 26.0085 90.0547 26.3609 90.034 26.7195C90.0455 26.8972 90.022 27.0754 89.9647 27.244C89.9074 27.4126 89.8174 27.5682 89.6999 27.702C89.5902 27.821 89.4563 27.9151 89.3071 27.9778C89.1579 28.0405 88.997 28.0705 88.8352 28.0656C88.6186 28.0663 88.406 28.0068 88.2211 27.8936ZM89.2037 27.2943C89.3038 27.1236 89.35 26.9267 89.3364 26.7293C89.3489 26.5304 89.3028 26.3323 89.2037 26.1594C89.1642 26.0978 89.1096 26.0475 89.0451 26.0131C88.9806 25.9787 88.9083 25.9614 88.8352 25.9629C88.7627 25.9608 88.6909 25.9778 88.6271 26.0123C88.5633 26.0468 88.5097 26.0976 88.4717 26.1594C88.3689 26.3309 88.3209 26.5297 88.3341 26.7293C88.3209 26.9288 88.3689 27.1276 88.4717 27.2992C88.5122 27.359 88.5667 27.4079 88.6305 27.4417C88.6944 27.4756 88.7655 27.4933 88.8377 27.4933C88.9099 27.4933 88.981 27.4756 89.0448 27.4417C89.1086 27.4079 89.1632 27.359 89.2037 27.2992V27.2943Z" fill="#263238"/>
<path d="M96.0033 32.7673L89.6165 29.0777C88.7282 30.776 87.3277 32.1515 85.6135 33.0089C83.8994 33.8663 81.9588 34.1621 80.0671 33.8543C78.1754 33.5466 76.4287 32.6509 75.0747 31.2943C73.7208 29.9378 72.8285 28.1893 72.5244 26.297C72.7523 24.931 73.2873 23.6345 74.0889 22.5052C74.8905 21.3759 75.938 20.4433 77.1524 19.7775V16.8298L73.4726 10.443C70.9137 11.8745 68.783 13.9626 67.3002 16.4921C65.8174 19.0216 65.0362 21.9009 65.0371 24.8329C65.0371 25.3242 65.0617 25.8155 65.1059 26.3068C65.0666 26.7981 65.0371 27.2894 65.0371 27.7807C65.0435 31.4389 66.2656 34.9913 68.5113 37.8791C70.757 40.767 73.8988 42.8265 77.4428 43.7339C80.9867 44.6412 84.7317 44.3449 88.0889 42.8916C91.446 41.4382 94.2249 38.9103 95.9885 35.7052L96.0033 32.7673Z" fill="#263238"/>
<path opacity="0.6" d="M81.5346 33.9955C79.5064 33.9944 77.5363 33.3182 75.935 32.0736C74.3336 30.829 73.1921 29.0867 72.6904 27.1216C72.1887 25.1565 72.3554 23.0802 73.1641 21.2203C73.9729 19.3604 75.3778 17.8226 77.1572 16.8494L73.4774 10.4626C71.2477 11.7106 69.3385 13.4596 67.9003 15.5717C66.4622 17.6837 65.5345 20.101 65.1903 22.633C64.8462 25.1649 65.095 27.7421 65.9173 30.1614C66.7395 32.5807 68.1126 34.7759 69.9283 36.5737C71.744 38.3716 73.9526 39.723 76.3799 40.5213C78.8071 41.3196 81.3867 41.5431 83.9151 41.174C86.4435 40.8049 88.8516 39.8533 90.9493 38.3944C93.0471 36.9355 94.7772 35.0092 96.0032 32.7673L89.6164 29.0777C88.8466 30.5571 87.6865 31.7976 86.2618 32.6645C84.8372 33.5315 83.2023 33.9918 81.5346 33.9955Z" fill="white"/>
<path opacity="0.6" d="M96.0033 32.7673L89.6165 29.0777C88.7282 30.776 87.3277 32.1515 85.6135 33.0089C83.8994 33.8663 81.9588 34.1621 80.0671 33.8543C78.1754 33.5466 76.4287 32.6509 75.0747 31.2943C73.7208 29.9378 72.8285 28.1893 72.5244 26.297C72.7523 24.931 73.2873 23.6345 74.0889 22.5052C74.8905 21.3759 75.938 20.4433 77.1524 19.7775V16.8298L73.4726 10.443C70.9137 11.8745 68.783 13.9626 67.3002 16.4921C65.8174 19.0216 65.0362 21.9009 65.0371 24.8329C65.0371 25.3242 65.0617 25.8155 65.1059 26.3068C65.0666 26.7981 65.0371 27.2894 65.0371 27.7807C65.0435 31.4389 66.2656 34.9913 68.5113 37.8791C70.757 40.767 73.8988 42.8265 77.4428 43.7339C80.9867 44.6412 84.7317 44.3449 88.0889 42.8916C91.446 41.4382 94.2249 38.9103 95.9885 35.7052L96.0033 32.7673Z" fill="white"/>
<path d="M91.5865 30.0799L97.9733 33.7695C99.3078 31.3416 100.006 28.6154 100.002 25.845C100.002 25.3537 99.9729 24.8624 99.9287 24.3711C99.9729 23.8798 100.002 23.3885 100.002 22.8972C100.002 20.0191 99.2491 17.1911 97.8179 14.694C96.3866 12.197 94.327 10.1178 91.8436 8.66305C89.3602 7.20827 86.5394 6.42849 83.6614 6.40117C80.7834 6.37384 77.9483 7.09991 75.4377 8.50726V11.455L79.1175 17.8418C80.4 17.1392 81.8326 16.7554 83.2946 16.7226C84.7565 16.6899 86.2049 17.0093 87.5175 17.6538C88.8302 18.2983 89.9685 19.249 90.8366 20.4258C91.7047 21.6026 92.277 22.9709 92.5052 24.4153C92.3461 25.372 92.036 26.2973 91.5865 27.1567V30.0799Z" fill="#263238"/>
<path opacity="0.4" d="M91.5865 30.0799L97.9733 33.7695C99.3078 31.3416 100.006 28.6154 100.002 25.845C100.002 25.3537 99.9729 24.8624 99.9287 24.3711C99.9729 23.8798 100.002 23.3885 100.002 22.8972C100.002 20.0191 99.2491 17.1911 97.8179 14.694C96.3866 12.197 94.327 10.1178 91.8436 8.66305C89.3602 7.20827 86.5394 6.42849 83.6614 6.40117C80.7834 6.37384 77.9483 7.09991 75.4377 8.50726V11.455L79.1175 17.8418C80.4 17.1392 81.8326 16.7554 83.2946 16.7226C84.7565 16.6899 86.2049 17.0093 87.5175 17.6538C88.8302 18.2983 89.9685 19.249 90.8366 20.4258C91.7047 21.6026 92.277 22.9709 92.5052 24.4153C92.3461 25.372 92.036 26.2973 91.5865 27.1567V30.0799Z" fill="white"/>
<path d="M83.4997 6.40454C80.6776 6.399 77.902 7.12336 75.4425 8.50728L79.1223 14.8941C80.8416 13.9538 82.8178 13.5918 84.7588 13.8616C86.6998 14.1313 88.5024 15.0186 89.9001 16.392C91.2978 17.7655 92.2164 19.5523 92.5201 21.4883C92.8238 23.4242 92.4964 25.4065 91.5864 27.142L97.9732 30.8316C99.3494 28.3197 100.048 25.4928 99.9994 22.629C99.9511 19.7653 99.1579 16.9635 97.6978 14.4994C96.2377 12.0354 94.1611 9.99405 91.6724 8.57639C89.1838 7.15872 86.3688 6.4136 83.5046 6.41437L83.4997 6.40454Z" fill="#263238"/>
<path d="M68.3779 72.1689C68.2805 72.1677 68.1876 72.1284 68.1187 72.0596C68.0499 71.9908 68.0107 71.8978 68.0094 71.8005V67.4623C68.0105 66.6328 68.341 65.8376 68.9281 65.2515L79.1372 55.0474C79.5843 54.5986 79.8352 53.9908 79.8348 53.3573V47.2702C79.8361 47.1729 79.8753 47.0799 79.9441 47.0111C80.013 46.9423 80.106 46.903 80.2033 46.9018C80.3006 46.903 80.3936 46.9423 80.4624 47.0111C80.5312 47.0799 80.5705 47.1729 80.5718 47.2702V53.3573C80.5703 54.1859 80.2419 54.9804 79.6579 55.5682L69.4489 65.7723C69.2257 65.9935 69.0487 66.2567 68.9281 66.5469C68.8075 66.837 68.7457 67.1482 68.7463 67.4623V71.8005C68.7463 71.8982 68.7075 71.9919 68.6384 72.061C68.5693 72.1301 68.4756 72.1689 68.3779 72.1689Z" fill="#263238"/>
<path d="M118.23 92.027C118.474 92.1438 118.681 92.3257 118.829 92.5527C118.978 92.789 119.055 93.064 119.05 93.3436C119.054 93.6428 118.97 93.9365 118.809 94.1887C118.644 94.4312 118.417 94.6247 118.151 94.7487C117.862 94.8834 117.546 94.9506 117.227 94.9453C116.935 94.9616 116.642 94.9147 116.369 94.8079C116.096 94.7011 115.849 94.5368 115.645 94.3262C115.236 93.8315 115.032 93.1984 115.075 92.5576C115.062 92.071 115.169 91.5886 115.385 91.1525C115.577 90.7784 115.876 90.4704 116.245 90.2682C116.639 90.0596 117.081 89.9548 117.527 89.9636C117.777 89.9624 118.026 89.9921 118.269 90.052C118.481 90.0976 118.683 90.179 118.868 90.2927L118.455 91.1132C118.187 90.9429 117.874 90.8589 117.556 90.8724C117.377 90.8604 117.196 90.8861 117.027 90.9479C116.858 91.0097 116.704 91.1061 116.574 91.2311C116.315 91.5131 116.176 91.8849 116.186 92.2677C116.345 92.1201 116.532 92.0061 116.737 91.9326C116.941 91.8592 117.158 91.8278 117.375 91.8403C117.67 91.8347 117.963 91.8986 118.23 92.027ZM117.738 93.9185C117.813 93.855 117.873 93.7749 117.912 93.6846C117.951 93.5942 117.969 93.496 117.964 93.3977C117.969 93.2986 117.952 93.1997 117.912 93.1086C117.873 93.0174 117.814 92.9365 117.738 92.872C117.572 92.7332 117.36 92.663 117.144 92.6755C116.928 92.6672 116.716 92.7389 116.549 92.8769C116.473 92.9404 116.413 93.0202 116.372 93.1104C116.331 93.2005 116.311 93.2987 116.313 93.3977C116.314 93.491 116.334 93.5832 116.373 93.668C116.412 93.7528 116.469 93.8282 116.539 93.889C116.715 94.0285 116.935 94.0985 117.158 94.0855C117.367 94.1038 117.576 94.0443 117.743 93.9185H117.738Z" fill="#263238"/>
<path d="M120.455 94.6701C120.134 94.4594 119.88 94.161 119.723 93.8104C119.369 92.9546 119.369 91.9935 119.723 91.1377C119.876 90.7771 120.131 90.4684 120.455 90.2485C120.775 90.0502 121.145 89.9479 121.521 89.9537C121.897 89.9479 122.267 90.0502 122.587 90.2485C122.909 90.459 123.163 90.7575 123.319 91.1083C123.673 91.964 123.673 92.9251 123.319 93.7809C123.165 94.1329 122.91 94.4319 122.587 94.6407C122.267 94.839 121.897 94.9413 121.521 94.9354C121.148 94.9502 120.778 94.8581 120.455 94.6701ZM122.214 93.6433C122.379 93.2756 122.464 92.8771 122.464 92.4741C122.464 92.071 122.379 91.6725 122.214 91.3048C122.14 91.1891 122.038 91.0939 121.918 91.028C121.798 90.962 121.663 90.9275 121.526 90.9275C121.389 90.9275 121.254 90.962 121.134 91.028C121.014 91.0939 120.912 91.1891 120.838 91.3048C120.673 91.6725 120.588 92.071 120.588 92.4741C120.588 92.8771 120.673 93.2756 120.838 93.6433C120.912 93.759 121.014 93.8542 121.134 93.9201C121.254 93.9861 121.389 94.0207 121.526 94.0207C121.663 94.0207 121.798 93.9861 121.918 93.9201C122.038 93.8542 122.14 93.759 122.214 93.6433Z" fill="#263238"/>
<path d="M124.385 92.2874C124.168 92.0113 124.051 91.6705 124.051 91.3195C124.051 90.9686 124.168 90.6277 124.385 90.3517C124.498 90.2378 124.632 90.1473 124.78 90.0856C124.928 90.0239 125.087 89.9921 125.247 89.9921C125.408 89.9921 125.567 90.0239 125.715 90.0856C125.863 90.1473 125.997 90.2378 126.11 90.3517C126.323 90.6291 126.439 90.9694 126.439 91.3195C126.439 91.6696 126.323 92.0099 126.11 92.2874C125.997 92.4013 125.863 92.4918 125.715 92.5535C125.567 92.6152 125.408 92.647 125.247 92.647C125.087 92.647 124.928 92.6152 124.78 92.5535C124.632 92.4918 124.498 92.4013 124.385 92.2874ZM125.618 91.8894C125.706 91.7121 125.751 91.5171 125.751 91.3195C125.751 91.1219 125.706 90.927 125.618 90.7496C125.578 90.6897 125.523 90.6407 125.458 90.6073C125.394 90.5738 125.322 90.5569 125.25 90.558C125.177 90.5565 125.105 90.5738 125.04 90.6082C124.976 90.6426 124.921 90.693 124.881 90.7545C124.781 90.9252 124.735 91.1221 124.749 91.3195C124.737 91.5183 124.783 91.7163 124.881 91.8894C124.923 91.9482 124.978 91.9962 125.043 92.0293C125.107 92.0624 125.178 92.0796 125.25 92.0796C125.322 92.0796 125.393 92.0624 125.457 92.0293C125.521 91.9962 125.577 91.9482 125.618 91.8894ZM128.119 90.0471H128.935L125.648 94.8618H124.827L128.119 90.0471ZM127.898 94.7537C127.717 94.6424 127.57 94.4824 127.475 94.2919C127.378 94.0704 127.328 93.8312 127.328 93.5893C127.328 93.3475 127.378 93.1082 127.475 92.8868C127.57 92.6963 127.717 92.5362 127.898 92.4249C128.086 92.3153 128.3 92.2593 128.517 92.2628C128.678 92.2568 128.838 92.2857 128.986 92.3476C129.135 92.4095 129.268 92.503 129.377 92.6215C129.593 92.8975 129.711 93.2383 129.711 93.5893C129.711 93.9403 129.593 94.2811 129.377 94.5571C129.268 94.6756 129.135 94.7691 128.986 94.831C128.838 94.8929 128.678 94.9219 128.517 94.9158C128.296 94.9212 128.079 94.865 127.888 94.7537H127.898ZM128.881 94.1592C128.979 93.9861 129.025 93.7881 129.013 93.5893C129.027 93.3919 128.981 93.195 128.881 93.0243C128.841 92.9628 128.786 92.9124 128.722 92.878C128.657 92.8436 128.585 92.8263 128.512 92.8278C128.44 92.8262 128.369 92.8429 128.305 92.8764C128.242 92.91 128.188 92.9592 128.149 93.0194C128.055 93.1947 128.006 93.3905 128.006 93.5893C128.006 93.7881 128.055 93.9839 128.149 94.1592C128.188 94.2194 128.242 94.2687 128.305 94.3022C128.369 94.3357 128.44 94.3525 128.512 94.3508C128.582 94.3533 128.652 94.339 128.715 94.3091C128.778 94.2792 128.833 94.2345 128.876 94.1789L128.881 94.1592Z" fill="#263238"/>
<path d="M108.468 85.3896L114.854 89.0743C115.741 87.3752 117.141 85.9988 118.855 85.1407C120.569 84.2826 122.51 83.9865 124.402 84.2944C126.294 84.6023 128.041 85.4985 129.394 86.8558C130.748 88.213 131.639 89.9623 131.941 91.855C131.718 93.2206 131.187 94.5175 130.388 95.6477C129.59 96.778 128.545 97.712 127.333 98.3794V101.327L131.013 107.714C133.571 106.282 135.701 104.193 137.184 101.664C138.667 99.1347 139.448 96.2559 139.448 93.324C139.448 92.8327 139.424 92.3169 139.38 91.8256C139.419 91.3343 139.448 90.843 139.448 90.3763C139.442 86.718 138.22 83.1657 135.974 80.2778C133.729 77.39 130.587 75.3304 127.043 74.4231C123.499 73.5157 119.754 73.812 116.397 75.2653C113.04 76.7187 110.261 79.2467 108.497 82.4517L108.468 85.3896Z" fill="#5988C6"/>
<path d="M112.889 88.0917L106.502 84.407C105.172 86.8362 104.475 89.5618 104.478 92.3316C104.478 92.8229 104.478 93.3142 104.552 93.8055C104.508 94.2968 104.478 94.788 104.478 95.2793C104.478 98.1575 105.231 100.985 106.663 103.483C108.094 105.98 110.153 108.059 112.637 109.514C115.12 110.968 117.941 111.748 120.819 111.775C123.697 111.803 126.532 111.077 129.043 109.669V106.722L125.363 100.335C124.081 101.034 122.651 101.415 121.191 101.447C119.732 101.479 118.286 101.16 116.975 100.518C115.664 99.8755 114.526 98.9279 113.657 97.7548C112.788 96.5817 112.213 95.2173 111.98 93.776C112.139 92.8176 112.449 91.8905 112.899 91.0297L112.889 88.0917Z" fill="#5988C6"/>
<path opacity="0.3" d="M108.468 85.3896L114.854 89.0743C115.741 87.3752 117.141 85.9988 118.855 85.1407C120.569 84.2826 122.51 83.9865 124.402 84.2944C126.294 84.6023 128.041 85.4985 129.394 86.8558C130.748 88.213 131.639 89.9623 131.941 91.855C131.718 93.2206 131.187 94.5175 130.388 95.6477C129.59 96.778 128.545 97.712 127.333 98.3794V101.327L131.013 107.714C133.571 106.282 135.701 104.193 137.184 101.664C138.667 99.1347 139.448 96.2559 139.448 93.324C139.448 92.8327 139.424 92.3169 139.38 91.8256C139.419 91.3343 139.448 90.843 139.448 90.3763C139.442 86.718 138.22 83.1657 135.974 80.2778C133.729 77.39 130.587 75.3304 127.043 74.4231C123.499 73.5157 119.754 73.812 116.397 75.2653C113.04 76.7187 110.261 79.2467 108.497 82.4517L108.468 85.3896Z" fill="white"/>
<path opacity="0.3" d="M112.889 88.0917L106.502 84.407C105.172 86.8362 104.475 89.5618 104.478 92.3316C104.478 92.8229 104.478 93.3142 104.552 93.8055C104.508 94.2968 104.478 94.788 104.478 95.2793C104.478 98.1575 105.231 100.985 106.663 103.483C108.094 105.98 110.153 108.059 112.637 109.514C115.12 110.968 117.941 111.748 120.819 111.775C123.697 111.803 126.532 111.077 129.043 109.669V106.722L125.363 100.335C124.081 101.034 122.651 101.415 121.191 101.447C119.732 101.479 118.286 101.16 116.975 100.518C115.664 99.8755 114.526 98.9279 113.657 97.7548C112.788 96.5817 112.213 95.2173 111.98 93.776C112.139 92.8176 112.449 91.8905 112.899 91.0297L112.889 88.0917Z" fill="white"/>
<path d="M122.941 81.2333C124.969 81.2344 126.939 81.9106 128.541 83.1552C130.142 84.3998 131.284 86.1421 131.785 88.1072C132.287 90.0723 132.12 92.1485 131.311 94.0085C130.503 95.8684 129.098 97.4062 127.318 98.3794L130.998 104.766C133.228 103.518 135.138 101.769 136.577 99.656C138.015 97.5435 138.943 95.1256 139.288 92.5931C139.632 90.0606 139.383 87.4827 138.561 85.0628C137.739 82.6428 136.366 80.447 134.55 78.6485C132.734 76.85 130.525 75.498 128.097 74.6992C125.669 73.9003 123.089 73.6765 120.56 74.0452C118.031 74.414 115.622 75.3653 113.524 76.8242C111.425 78.283 109.694 80.2095 108.468 82.4517L114.854 86.1364C115.626 84.6586 116.788 83.4203 118.213 82.556C119.639 81.6916 121.274 81.2342 122.941 81.2333Z" fill="#5988C6"/>
<path opacity="0.6" d="M120.976 108.824C123.798 108.827 126.573 108.103 129.033 106.722L125.353 100.335C123.634 101.276 121.656 101.639 119.714 101.369C117.772 101.1 115.969 100.212 114.571 98.8375C113.172 97.463 112.254 95.6749 111.951 93.7378C111.648 91.8007 111.977 89.8175 112.889 88.0819L106.502 84.3972C105.128 86.9097 104.43 89.7367 104.48 92.6003C104.529 95.4639 105.323 98.2654 106.783 100.729C108.243 103.193 110.32 105.234 112.809 106.652C115.297 108.069 118.112 108.815 120.976 108.814V108.824Z" fill="white"/>
<path d="M101.093 94.9649H86.0646C85.2361 94.9635 84.4416 94.6351 83.8538 94.0511L79.6385 89.8309C79.5695 89.7618 79.5308 89.6682 79.5308 89.5705C79.5308 89.4729 79.5695 89.3792 79.6385 89.3101C79.7076 89.2411 79.8013 89.2024 79.8989 89.2024C79.9966 89.2024 80.0902 89.2411 80.1593 89.3101L84.3746 93.5303C84.8237 93.977 85.4312 94.2278 86.0646 94.228H101.103C101.201 94.228 101.295 94.2668 101.364 94.3359C101.433 94.405 101.472 94.4987 101.472 94.5965C101.472 94.6459 101.463 94.6949 101.444 94.7406C101.425 94.7863 101.397 94.8276 101.362 94.8621C101.326 94.8966 101.284 94.9235 101.238 94.9412C101.192 94.9589 101.143 94.9669 101.093 94.9649Z" fill="#263238"/>
</svg>
