<svg width="162" height="140" viewBox="0 0 162 140" fill="none" xmlns="http://www.w3.org/2000/svg">
<path d="M48.8371 31.3687C81.7029 -2.02755 139.427 -2.75049 158.912 46.499C164.31 60.1406 163.271 79.8909 150.656 89.8708C133.75 103.247 118.145 85.5674 100.456 87.6678C82.8365 89.7553 71.4535 110.164 53.1234 111.734C37.1076 113.073 20.1293 103.889 10.4189 91.6418C-0.228378 78.1926 -6.71341 60.7908 11.2316 50.9735C20.6854 45.806 33.3432 48.1929 39.3277 44.7451C43.9306 42.1015 44.9572 35.2956 48.8371 31.3687Z" fill="#5988C6"/>
<path opacity="0.9" d="M48.8371 31.3687C81.7029 -2.02755 139.427 -2.75049 158.912 46.499C164.31 60.1406 163.271 79.8909 150.656 89.8708C133.75 103.247 118.145 85.5674 100.456 87.6678C82.8365 89.7553 71.4535 110.164 53.1234 111.734C37.1076 113.073 20.1293 103.889 10.4189 91.6418C-0.228378 78.1926 -6.71341 60.7908 11.2316 50.9735C20.6854 45.806 33.3432 48.1929 39.3277 44.7451C43.9306 42.1015 44.9572 35.2956 48.8371 31.3687Z" fill="#F4F9FF"/>
<path d="M127.454 32.7827L127.317 35.8725L127.762 35.8922L127.899 32.8024L127.454 32.7827Z" fill="#5988C6"/>
<path d="M127.931 22.0999L127.565 30.3435L128.01 30.3633L128.375 22.1196L127.931 22.0999Z" fill="#5988C6"/>
<path d="M120.909 71.7675H35.4353C34.9573 71.7705 34.4838 71.6758 34.0438 71.4891C33.6037 71.3025 33.2065 71.0279 32.8764 70.6822C32.5463 70.3365 32.2903 69.927 32.1242 69.4788C31.9581 69.0306 31.8854 68.5531 31.9105 68.0758L34.7937 3.69178C34.8488 2.70336 35.2768 1.77266 35.9914 1.08749C36.7059 0.402332 37.6538 0.0137262 38.6436 9.98825e-05H124.125C124.604 -0.00351062 125.077 0.0907976 125.518 0.277216C125.958 0.463634 126.356 0.738219 126.686 1.08406C127.016 1.4299 127.272 1.83967 127.438 2.28814C127.604 2.73662 127.676 3.2143 127.65 3.69178L124.767 68.0758C124.711 69.0653 124.281 69.9967 123.565 70.6819C122.849 71.367 121.9 71.755 120.909 71.7675Z" fill="#5988C6"/>
<path opacity="0.5" d="M120.28 71.7675H35.4353C34.9573 71.7705 34.4838 71.6758 34.0438 71.4892C33.6037 71.3025 33.2065 71.0279 32.8764 70.6822C32.5463 70.3365 32.2903 69.927 32.1242 69.4788C31.9581 69.0306 31.8854 68.5532 31.9105 68.0759L34.7937 3.69181C34.8488 2.70339 35.2768 1.77268 35.9914 1.08752C36.7059 0.402361 37.6538 0.0137545 38.6436 0.000128161H123.497C123.975 -0.00282809 124.448 0.0918916 124.889 0.278478C125.329 0.465064 125.726 0.739586 126.057 1.08523C126.387 1.43086 126.644 1.84034 126.81 2.28855C126.977 2.73676 127.05 3.21427 127.026 3.69181L124.138 68.0759C124.082 69.0654 123.652 69.9967 122.936 70.6819C122.22 71.3671 121.271 71.7551 120.28 71.7675Z" fill="white"/>
<path opacity="0.4" d="M95.3662 54.6053L80.0691 54.4684L81.9812 33.007H96.6581L95.3662 54.6053Z" fill="#5988C6"/>
<path opacity="0.4" d="M58.4109 30.4233L43.1095 30.3548L44.9232 8.89349L60.2247 8.96194L58.4109 30.4233Z" fill="#5988C6"/>
<path opacity="0.4" d="M97.9971 29.3025L82.6058 29.9527L83.5512 8.5684L98.3265 7.94385L97.9971 29.3025Z" fill="#5988C6"/>
<path opacity="0.4" d="M114.975 46.9995L99.9391 45.8188L102.027 24.3789L116.755 25.9189L114.975 46.9995Z" fill="#5988C6"/>
<path opacity="0.4" d="M77.2115 24.5158L65.4392 24.1992L66.6241 7.70001L78.2596 7.8754L77.2115 24.5158Z" fill="#5988C6"/>
<path opacity="0.4" d="M56.6826 68.5849L45.1199 68.3411L46.3005 51.8376L57.4055 51.628L56.6826 68.5849Z" fill="#5988C6"/>
<path opacity="0.4" d="M119.398 21.8251L107.613 21.855L108.952 5.33872L120.51 5.30878L119.398 21.8251Z" fill="#5988C6"/>
<path opacity="0.4" d="M61.6193 47.8465L73.2761 49.1897L75.3593 32.3782L64.2372 31.4457L61.6193 47.8465Z" fill="#5988C6"/>
<path d="M94.7674 53.9765L79.4702 53.8396L81.3824 32.3782L96.6795 32.5194L94.7674 53.9765Z" fill="white"/>
<path d="M58.2913 29.9399L42.9941 29.803L44.9063 8.34167L60.2034 8.48284L58.2913 29.9399Z" fill="white"/>
<path d="M97.3981 28.6737L82.0068 29.3239L82.9479 7.94382L98.3435 7.29361L97.3981 28.6737Z" fill="white"/>
<path d="M114.505 46.7813L99.3401 45.1943L101.428 23.7501L116.592 25.3371L114.505 46.7813Z" fill="white"/>
<path d="M76.9847 23.8912L65.2124 23.5747L66.3931 7.0712L78.1654 7.38775L76.9847 23.8912Z" fill="white"/>
<path d="M56.2933 68.0288L44.521 67.7122L45.7017 51.213L57.4739 51.5296L56.2933 68.0288Z" fill="white"/>
<path d="M119 21.5941L107.215 21.624L108.554 5.10343L120.339 5.07349L119 21.5941Z" fill="white"/>
<path d="M61.0203 47.2176L72.6771 48.5608L75.2908 32.16L63.6382 30.8168L61.0203 47.2176Z" fill="white"/>
<path opacity="0.4" d="M67.1846 55.0758C67.1846 55.0758 67.1161 59.5546 66.4745 60.885C68.5663 61.4839 72.6002 61.4753 72.6002 61.4753C72.6002 61.4753 73.4814 57.1676 73.336 55.4865C72.1339 55.1999 67.1846 55.0758 67.1846 55.0758Z" fill="#5988C6"/>
<path d="M67.1846 55.0758C67.1846 55.0758 66.6884 59.5461 66.051 60.885C67.9302 61.3331 69.8384 61.649 71.7618 61.8304C71.7618 61.8304 73.5413 57.1805 73.336 55.4737C72.134 55.1999 67.1846 55.0758 67.1846 55.0758Z" fill="white"/>
<path opacity="0.4" d="M98.6816 55.8073C98.6816 55.8073 101.107 61.9416 100.97 64.1061C104.256 63.7382 109.975 61.8518 109.975 61.8518C109.975 61.8518 108.751 55.0972 107.575 52.8685C105.736 53.1851 98.6816 55.8073 98.6816 55.8073Z" fill="#5988C6"/>
<path d="M97.8899 55.3453C97.8899 55.3453 99.9261 63.2249 99.7892 65.3894C103.074 65.0173 109.414 62.4763 109.414 62.4763C109.414 62.4763 108.559 54.4256 107.275 52.2097C105.453 52.5391 97.8899 55.3453 97.8899 55.3453Z" fill="white"/>
<path opacity="0.4" d="M105.902 54.092C105.892 54.2807 105.81 54.4586 105.674 54.5891C105.537 54.7195 105.355 54.7927 105.166 54.7935C105.075 54.7948 104.985 54.7774 104.901 54.7422C104.817 54.707 104.741 54.6549 104.678 54.589C104.615 54.5232 104.566 54.4451 104.534 54.3596C104.503 54.274 104.489 54.1829 104.495 54.092C104.504 53.9028 104.586 53.7244 104.723 53.5933C104.859 53.4621 105.041 53.3881 105.23 53.3861C105.322 53.3854 105.412 53.4034 105.496 53.4391C105.58 53.4747 105.656 53.5273 105.719 53.5934C105.782 53.6596 105.831 53.738 105.862 53.8237C105.894 53.9095 105.907 54.0008 105.902 54.092Z" fill="#5988C6"/>
<path d="M58.8772 8.49139C58.8559 8.81159 58.7154 9.11219 58.4834 9.33391C58.2513 9.55563 57.9447 9.68237 57.6238 9.68915C57.4683 9.69116 57.3141 9.66115 57.1707 9.601C57.0273 9.54084 56.8978 9.45182 56.7902 9.33948C56.6827 9.22713 56.5995 9.09387 56.5456 8.94797C56.4918 8.80206 56.4686 8.64665 56.4774 8.49139C56.4987 8.17118 56.6393 7.87058 56.8713 7.64886C57.1033 7.42715 57.4099 7.3004 57.7308 7.29362C57.8861 7.29224 58.0401 7.32267 58.1832 7.38304C58.3263 7.44342 58.4555 7.53245 58.5629 7.64466C58.6703 7.75687 58.7536 7.88989 58.8077 8.03551C58.8617 8.18113 58.8854 8.33627 58.8772 8.49139Z" fill="#5988C6"/>
<path d="M66.8295 31.2018C66.8186 31.4311 66.7203 31.6475 66.5549 31.8066C66.3894 31.9657 66.1693 32.0555 65.9398 32.0574C65.829 32.0588 65.7191 32.0373 65.617 31.9942C65.5149 31.9512 65.4228 31.8875 65.3465 31.8071C65.2702 31.7268 65.2113 31.6316 65.1735 31.5274C65.1358 31.4232 65.1199 31.3124 65.127 31.2018C65.1379 30.9725 65.2362 30.7561 65.4017 30.597C65.5671 30.4379 65.7872 30.3482 66.0168 30.3463C66.1276 30.3449 66.2374 30.3664 66.3395 30.4094C66.4416 30.4525 66.5337 30.5162 66.61 30.5965C66.6863 30.6769 66.7452 30.7721 66.783 30.8763C66.8208 30.9804 66.8366 31.0913 66.8295 31.2018Z" fill="#5988C6"/>
<path d="M103.049 14.1979C103.036 14.4265 102.937 14.6417 102.772 14.8004C102.607 14.9591 102.388 15.0495 102.159 15.0534C102.048 15.0542 101.939 15.0322 101.837 14.989C101.735 14.9458 101.643 14.8821 101.566 14.802C101.49 14.7219 101.43 14.627 101.392 14.5231C101.353 14.4192 101.336 14.3085 101.342 14.1979C101.354 13.9689 101.453 13.7531 101.618 13.5942C101.783 13.4353 102.003 13.3453 102.232 13.3423C102.343 13.3416 102.453 13.3635 102.555 13.4068C102.657 13.45 102.749 13.5136 102.825 13.5937C102.902 13.6739 102.961 13.7688 102.999 13.8727C103.038 13.9766 103.055 14.0872 103.049 14.1979Z" fill="#5988C6"/>
<path d="M68.763 18.4243C69.225 20.7813 69.6827 25.0975 68.0358 26.6717C69.3728 28.8323 71.3623 30.5116 73.7166 31.4671C76.8693 29.495 75.3592 26.6717 75.3592 26.6717C72.7327 26.0429 72.7926 24.1051 73.2589 22.2614L68.763 18.4243Z" fill="#B55B52"/>
<path d="M65.6358 19.2285C63.698 19.0317 57.9359 27.1722 69.0922 30.804C67.2784 29.1229 66.3758 27.493 66.8507 25.5681C67.1344 24.0771 67.2121 22.5543 67.0817 21.0422C67.0817 21.0422 67.7447 19.4424 65.6358 19.2285Z" fill="#263238"/>
<path d="M66.8167 29.1314C66.4191 28.6775 66.1061 28.1559 65.8927 27.5914C65.7605 27.2162 65.727 26.8132 65.7955 26.4212C65.8641 26.0292 66.0324 25.6615 66.2842 25.3534C66.536 25.0453 66.8628 24.8072 67.2333 24.662C67.6038 24.5168 68.0054 24.4694 68.3995 24.5243C69.6011 24.6893 70.8189 24.698 72.0227 24.55C74.7519 24.212 76.1807 25.5852 77.6565 28.5283C77.6565 28.5283 76.9678 29.8116 74.9016 30.3121C72.8355 30.8126 66.8167 29.1314 66.8167 29.1314Z" fill="#5988C6"/>
<path d="M78.8457 16.3453C78.773 16.6576 78.8756 16.9485 79.081 16.9955C79.2863 17.0426 79.5087 16.833 79.5857 16.5207C79.6627 16.2084 79.5558 15.9175 79.3505 15.8705C79.1451 15.8234 78.9227 16.033 78.8457 16.3453Z" fill="#263238"/>
<path d="M79.2562 15.8662L80.0562 15.8277C80.0562 15.8277 79.5343 16.3196 79.2562 15.8662Z" fill="#263238"/>
<path d="M79.7611 14.5914C79.7975 14.5932 79.8337 14.5843 79.8652 14.5659C79.8967 14.5474 79.9221 14.5202 79.9384 14.4876C79.9548 14.455 79.9612 14.4183 79.9571 14.3821C79.9529 14.3458 79.9384 14.3115 79.9151 14.2834C79.728 14.0507 79.4878 13.8663 79.2146 13.7457C78.9414 13.6251 78.6432 13.5718 78.3452 13.5904C78.3204 13.5931 78.2964 13.6006 78.2746 13.6127C78.2527 13.6247 78.2335 13.6409 78.218 13.6604C78.2024 13.6799 78.1909 13.7023 78.1841 13.7262C78.1773 13.7502 78.1754 13.7753 78.1783 13.8001C78.1848 13.8496 78.2102 13.8948 78.2494 13.9259C78.2885 13.9571 78.3382 13.9717 78.388 13.9669C78.6244 13.9546 78.8604 13.999 79.0762 14.0965C79.2921 14.194 79.4814 14.3417 79.6285 14.5273C79.6627 14.565 79.7103 14.588 79.7611 14.5914Z" fill="#263238"/>
<path d="M78.4563 17.2992C78.5622 18.0777 78.7753 18.8378 79.0894 19.5579C78.9034 19.6326 78.7034 19.6659 78.5032 19.6556C78.303 19.6452 78.1075 19.5914 77.9302 19.498L78.4563 17.2992Z" fill="#A02724"/>
<path d="M68.6431 12.5467C67.9586 16.4309 67.5865 18.0564 69.0452 20.4861C71.2396 24.1393 76.1548 24.1308 77.9899 20.5332C79.6368 17.295 80.4838 11.4901 77.1044 9.06889C76.3623 8.53091 75.495 8.19156 74.5849 8.08306C73.6748 7.97457 72.752 8.10052 71.9042 8.44897C71.0565 8.79742 70.3118 9.3568 69.7411 10.074C69.1703 10.7912 68.7923 11.6423 68.6431 12.5467Z" fill="#B55B52"/>
<path d="M75.5431 15.6266C76.7195 15.1475 79.5171 14.0867 80.2015 12.4141C80.886 10.7415 78.0627 6.27553 75.65 7.15674C69.3661 5.81781 64.9857 8.82505 65.0113 13.5733C65.037 18.5355 67.009 21.3588 70.243 22.0946C73.477 22.8303 76.2874 19.4424 75.5431 15.6266Z" fill="#263238"/>
<path d="M66.5128 16.9912C65.2294 16.8158 64.545 18.1163 65.0113 19.1943C65.4776 20.2722 67.0346 21.9791 67.6335 21.9791C68.2324 21.9791 69.4173 21.5513 69.7168 20.8797C70.0162 20.2081 67.3769 17.1153 66.5128 16.9912Z" fill="#5988C6"/>
<path d="M74.4738 15.2673C74.3863 15.6341 74.3722 16.0146 74.4324 16.3868C74.4926 16.759 74.6259 17.1156 74.8246 17.4361C75.3593 18.2917 76.3046 17.9794 76.7239 17.1153C77.1003 16.341 77.2714 14.9764 76.4629 14.4032C76.2839 14.2816 76.077 14.2072 75.8616 14.1871C75.6461 14.1669 75.429 14.2015 75.2305 14.2877C75.032 14.374 74.8585 14.509 74.7262 14.6803C74.5939 14.8515 74.5071 15.0535 74.4738 15.2673Z" fill="#B55B52"/>
<path d="M65.4607 30.6329C65.4607 30.7912 65.4607 31.0607 65.4607 31.2703V31.9633C65.4607 32.4281 65.4821 32.8944 65.5249 33.3621C65.5901 34.2853 65.7101 35.2037 65.8842 36.1127C66.1999 37.8514 66.8539 39.5112 67.8092 40.9978C68.16 41.4513 68.0231 41.3786 68.3225 41.5839C68.6418 41.7832 68.9835 41.944 69.3406 42.063C70.2206 42.3613 71.1214 42.5944 72.0356 42.7603C73.9392 43.1196 75.954 43.3677 77.9303 43.5687L77.9859 45.5836C75.8903 45.8577 73.7739 45.9393 71.6634 45.8274C70.5507 45.7761 69.4451 45.6214 68.361 45.3654C67.7349 45.215 67.1278 44.994 66.5515 44.7066C66.1916 44.5183 65.8567 44.2855 65.5548 44.0136C65.4693 43.9366 65.3837 43.8468 65.2982 43.757L65.1399 43.573L64.849 43.2265C64.1132 42.3031 63.5006 41.2879 63.0267 40.2065C62.5651 39.1647 62.2069 38.08 61.9573 36.9682C61.7029 35.8833 61.5299 34.7808 61.4397 33.6701C61.4012 33.1183 61.3755 32.5664 61.3669 32.0103C61.3669 31.7323 61.3669 31.4542 61.3669 31.1762C61.3669 30.8981 61.3883 30.6372 61.4183 30.2821L65.4607 30.6329Z" fill="#B55B52"/>
<path d="M77.8062 43.419L82.0454 42.7517L79.9579 46.2081C79.9579 46.2081 77.3912 46.1012 76.6897 44.6168L77.8062 43.419Z" fill="#B55B52"/>
<path d="M84.1414 43.9153L84.1542 46.4862L79.9578 46.2081L82.0453 42.7517L84.1414 43.9153Z" fill="#B55B52"/>
<path d="M93.0775 54.862H79.8166C79.7288 54.8727 79.6397 54.8601 79.5582 54.8255C79.4768 54.7909 79.4059 54.7356 79.3526 54.6649C79.2993 54.5943 79.2655 54.5109 79.2546 54.4231C79.2437 54.3353 79.256 54.2462 79.2904 54.1647L85.4119 36.3309C85.4933 36.1305 85.6313 35.9583 85.8091 35.8352C85.9869 35.7121 86.1967 35.6436 86.4128 35.6379H99.6738C99.7614 35.6262 99.8506 35.638 99.9322 35.6719C100.014 35.7059 100.085 35.7609 100.138 35.8313C100.192 35.9017 100.226 35.985 100.237 36.0728C100.247 36.1605 100.235 36.2496 100.2 36.3309L94.0785 54.1647C93.9964 54.3649 93.8583 54.5371 93.6807 54.6608C93.5032 54.7844 93.2938 54.8543 93.0775 54.862Z" fill="#5988C6"/>
<path d="M92.8422 54.2973H80.0347C79.9856 54.3039 79.9356 54.2973 79.8899 54.2781C79.8442 54.2589 79.8045 54.2278 79.7748 54.1882C79.7451 54.1485 79.7266 54.1015 79.7212 54.0523C79.7157 54.003 79.7235 53.9532 79.7438 53.908L85.7925 36.2709C85.839 36.1593 85.9165 36.0633 86.0158 35.9943C86.1151 35.9254 86.2321 35.8863 86.3529 35.8817H99.1861C99.2352 35.8756 99.285 35.8825 99.3306 35.9017C99.3762 35.921 99.4159 35.9518 99.4458 35.9913C99.4757 36.0307 99.4947 36.0773 99.5009 36.1264C99.5071 36.1754 99.5003 36.2253 99.4812 36.2709L93.4282 53.908C93.38 54.0236 93.2986 54.1222 93.1943 54.1915C93.09 54.2608 92.9674 54.2976 92.8422 54.2973Z" fill="white"/>
<path d="M61.4995 27.5187L65.7772 29.2512L68.0572 31.7794L68.3524 35.2657C68.3524 35.2657 63.3688 39.0472 60.7209 38.6879C59.8055 32.2798 60.3787 28.755 61.4995 27.5187Z" fill="#263238"/>
<path d="M82.5417 30.3463C82.6058 33.2252 82.1995 39.2183 80.1761 51.6622H64.0448C64.3143 45.0959 64.6351 40.9679 61.4781 27.5102C63.647 27.0642 65.8462 26.781 68.0573 26.6632C70.4953 26.4876 72.9428 26.4876 75.3808 26.6632C76.9592 26.8086 78.6447 27.061 79.928 27.2835C80.6517 27.4106 81.3085 27.786 81.7855 28.3449C82.2625 28.9039 82.5299 29.6116 82.5417 30.3463Z" fill="#263238"/>
<path opacity="0.2" d="M79.3889 31.4671L82.2593 36.1426C82.1096 37.8067 81.8914 39.8001 81.5791 42.1828L79.2264 40.7925C78.2639 33.7172 79.3889 31.4671 79.3889 31.4671Z" fill="black"/>
<path d="M82.8068 31.5441C83.4028 33.4177 83.9732 35.2999 84.5179 37.1907L85.3392 40.0268L86.1306 42.8715L86.5199 44.296L86.7123 45.0103C86.7566 45.1928 86.8109 45.3728 86.8749 45.5493C86.9558 45.7834 87.0635 46.0073 87.1957 46.2167C87.2257 46.2594 87.2214 46.268 87.1957 46.2808C87.1701 46.2937 87.1658 46.3193 87.2171 46.3279C87.4694 46.3295 87.7171 46.2598 87.9315 46.1268C88.2849 45.9355 88.62 45.7122 88.9325 45.4595C89.2747 45.1857 89.6126 44.8863 89.9463 44.5697C90.28 44.2532 90.6094 43.8981 90.9088 43.5816L92.6199 44.6596C92.3859 45.144 92.1231 45.614 91.8328 46.0669C91.5477 46.5318 91.2289 46.975 90.8789 47.393C90.5052 47.8491 90.0836 48.2635 89.6212 48.6293C89.0409 49.0987 88.3529 49.4162 87.6192 49.5533C87.1386 49.634 86.6461 49.6062 86.1776 49.472C85.7153 49.3352 85.2858 49.1052 84.9157 48.7961C84.3515 48.3084 83.8954 47.7081 83.5768 47.0337C83.4396 46.7573 83.3224 46.4713 83.226 46.1782L82.9864 45.4723L82.5073 44.065L81.5705 41.2417L80.6679 38.4055C80.0562 36.5148 79.4787 34.6155 78.9226 32.7119L82.8068 31.5441Z" fill="#B55B52"/>
<path d="M78.4264 30.5131C79.1066 28.8876 81.2369 27.8395 81.2369 27.8395C83.5298 29.3325 84.304 30.0383 85.8269 37.6313C83.6068 39.5733 79.9279 39.5733 79.9279 39.5733L77.9431 34.4401C77.9431 34.4401 77.7463 32.1515 78.4264 30.5131Z" fill="#263238"/>
<path d="M90.3828 44.3345L91.9057 40.6214L93.7708 44.2019C93.7708 44.2019 92.3591 46.3407 90.7165 46.1696L90.3828 44.3345Z" fill="#B55B52"/>
<path d="M94.7161 41.37C94.6784 41.3709 94.641 41.3624 94.6074 41.3452C94.5738 41.328 94.545 41.3027 94.5236 41.2716L90.0791 35.1887C90.042 35.1363 90.0271 35.0716 90.0375 35.0083C90.0479 34.9451 90.0828 34.8885 90.1347 34.8507C90.1863 34.814 90.2504 34.7992 90.313 34.8096C90.3755 34.82 90.4314 34.8548 90.4683 34.9064L94.9086 40.9893C94.9363 41.0245 94.9534 41.0669 94.9579 41.1115C94.9623 41.1561 94.954 41.201 94.9337 41.241C94.9135 41.281 94.8823 41.3144 94.8437 41.3372C94.8052 41.3601 94.7609 41.3715 94.7161 41.37Z" fill="#263238"/>
<path d="M95.2293 39.8985L96.2089 42.0544L93.7706 44.2019L91.9055 40.6214L95.2293 39.8985Z" fill="#B55B52"/>
<path d="M80.1758 51.6622C80.1758 51.6622 84.2055 82.1581 85.5829 94.1956C87.6148 111.974 92.1535 135.69 92.1535 135.69L89.4457 136.173C89.4457 136.173 79.9833 112.966 78.5546 95.3934C74.0672 82.449 67.6293 51.6622 67.6293 51.6622H80.1758Z" fill="#B55B52"/>
<path d="M91.9354 132.776L88.4319 134.488C88.3611 134.52 88.3046 134.576 88.273 134.647C88.2415 134.718 88.2371 134.799 88.2608 134.873L89.3901 138.218C89.4249 138.302 89.4768 138.378 89.5428 138.441C89.6087 138.504 89.687 138.553 89.7728 138.584C89.8586 138.615 89.9499 138.628 90.041 138.621C90.132 138.615 90.2206 138.59 90.3013 138.547C91.7386 137.816 91.7429 137.717 93.5695 136.836C94.6945 136.284 96.5211 135.45 98.0739 134.697C99.6267 133.944 98.9594 132.443 98.245 132.627C95.0453 133.457 94.04 133.007 92.684 132.708C92.434 132.644 92.1696 132.668 91.9354 132.776Z" fill="#263238"/>
<path d="M75.9623 51.6622C75.9623 51.6622 73.3443 80.5454 71.1413 92.4589C68.827 104.971 67.0988 134.787 67.0732 135.698H64.3226C64.3226 135.698 60.5582 102.182 64.0702 90.966C64.652 77.2772 64.0445 51.6622 64.0445 51.6622H75.9623Z" fill="#B55B52"/>
<path d="M67.3984 135.138H64.2671C64.1894 135.136 64.1137 135.163 64.0545 135.213C63.9953 135.264 63.9568 135.334 63.9463 135.411L63.4843 138.992C63.476 139.083 63.4867 139.174 63.5158 139.261C63.545 139.347 63.5919 139.427 63.6535 139.494C63.7151 139.561 63.7901 139.615 63.8737 139.651C63.9573 139.688 64.0476 139.707 64.1388 139.706C65.713 139.681 65.0842 139.587 67.0733 139.587C68.2968 139.587 70.0677 139.715 71.7788 139.715C73.4899 139.715 73.537 138.042 72.8311 137.893C69.6656 137.212 69.1566 136.276 68.0786 135.386C67.8882 135.226 67.6473 135.138 67.3984 135.138Z" fill="#263238"/>
<path opacity="0.2" d="M64.1044 90.1361L71.4065 90.9403C71.7016 89.195 72.0053 87.1802 72.3005 85.0071L64.2541 84.1815C64.207 86.2989 64.1728 88.3137 64.1044 90.1361Z" fill="black"/>
<path opacity="0.2" d="M84.6292 86.2733L75.5433 85.3408C76.1422 87.5695 76.7411 89.6784 77.3186 91.5862L85.3778 92.4674C85.1682 90.658 84.9116 88.5533 84.6292 86.2733Z" fill="black"/>
<path d="M80.176 51.6622L85.9937 91.5049L63.3731 88.6389C65.5804 71.5836 58.8772 57.9077 64.0447 51.6622H80.176Z" fill="#5988C6"/>
<path opacity="0.2" d="M66.1664 59.8369C68.6393 61.986 71.5076 63.6323 74.6106 64.6836C69.5287 64.628 67.1716 62.8228 66.1664 59.8369Z" fill="black"/>
</svg>
