<svg width="162" height="143" viewBox="0 0 162 143" fill="none" xmlns="http://www.w3.org/2000/svg">
<path d="M26.8246 27.8941C15.0562 33.208 8.05449 45.2939 5.60223 57.2879C3.71394 66.5998 4.49934 76.6261 9.24094 85.0315C17.0782 98.9096 33.9767 106.062 50.2986 109.734C69.4364 114.045 89.8315 114.885 108.652 109.483C127.472 104.081 144.538 91.9371 152.692 75.1932C157.041 66.2656 158.758 55.9761 156.068 46.5096C153.377 37.0431 145.912 28.5458 135.957 25.4377C123.449 21.5483 109.262 26.6909 99.9873 35.464C95.392 39.8129 90.571 45.4903 84.0455 45.0307C79.989 44.7508 76.6428 42.073 73.6014 39.5288C70.1048 36.5794 50.5869 17.1618 26.8246 27.8941Z" fill="#5988C6"/>
<g opacity="0.9">
<path d="M26.8246 27.8941C15.0562 33.208 8.05449 45.2939 5.60223 57.2879C3.71394 66.5998 4.49934 76.6261 9.24094 85.0315C17.0782 98.9096 33.9767 106.062 50.2986 109.734C69.4364 114.045 89.8315 114.885 108.652 109.483C127.472 104.081 144.538 91.9371 152.692 75.1932C157.041 66.2656 158.758 55.9761 156.068 46.5096C153.377 37.0431 145.912 28.5458 135.957 25.4377C123.449 21.5483 109.262 26.6909 99.9873 35.464C95.392 39.8129 90.571 45.4903 84.0455 45.0307C79.989 44.7508 76.6428 42.073 73.6014 39.5288C70.1048 36.5794 50.5869 17.1618 26.8246 27.8941Z" fill="white"/>
</g>
<path d="M12.487 133.271C12.487 133.129 11.0081 118.891 14.275 106.78L14.6928 106.889C11.4509 118.925 12.9047 133.087 12.9047 133.229L12.487 133.271Z" fill="#263238"/>
<path d="M16.0296 109.851C16.0296 109.851 11.5303 118.206 12.4285 128.053C12.4285 128.053 14.3001 115.954 16.0296 109.851Z" fill="#5988C6"/>
<path d="M7.08533 105.715C7.08533 105.715 13.6526 114.952 12.5162 126.745C12.5079 126.758 9.95536 111.927 7.08533 105.715Z" fill="#5988C6"/>
<path d="M12.487 129.594C12.487 129.594 13.9074 117.4 6.36263 113.878C6.34174 113.878 10.3648 116.853 12.487 129.594Z" fill="#5988C6"/>
<path d="M13.2599 106.968L13.122 106.993C13.0719 107.002 13.0242 107.022 12.9821 107.051C12.94 107.079 12.9045 107.116 12.8777 107.16C12.8509 107.203 12.8335 107.252 12.8267 107.302C12.8198 107.353 12.8237 107.404 12.8379 107.453L13.005 108.059C13.0218 108.12 13.0542 108.176 13.0992 108.22C13.1441 108.265 13.2 108.297 13.2612 108.314C13.3225 108.33 13.387 108.33 13.4483 108.314C13.5096 108.298 13.5656 108.266 13.6108 108.222L13.8364 108.004C13.8804 107.962 13.9342 107.932 13.9927 107.916C14.0513 107.9 14.113 107.899 14.1721 107.913C14.2313 107.926 14.2862 107.954 14.3318 107.995C14.3775 108.035 14.4125 108.085 14.4338 108.142L14.7388 108.978C14.757 109.028 14.7862 109.074 14.8244 109.112C14.8625 109.15 14.9087 109.179 14.9595 109.197C15.0102 109.215 15.0644 109.222 15.118 109.216C15.1716 109.211 15.2233 109.194 15.2693 109.166L15.9712 108.748C16.0181 108.72 16.0581 108.682 16.0881 108.636C16.1182 108.59 16.1376 108.538 16.1448 108.484C16.152 108.43 16.1469 108.375 16.1299 108.323C16.1128 108.271 16.0843 108.223 16.0464 108.184L15.9336 108.067C15.8855 108.015 15.8532 107.951 15.8406 107.882C15.8279 107.813 15.8355 107.741 15.8624 107.676C15.8892 107.611 15.9342 107.555 15.992 107.514C16.0498 107.474 16.118 107.451 16.1884 107.449H16.7983C16.8499 107.447 16.9007 107.435 16.9472 107.413C16.9938 107.391 17.035 107.359 17.0682 107.319C17.1014 107.28 17.1258 107.233 17.1398 107.184C17.1537 107.134 17.157 107.082 17.1493 107.031L17.0824 106.509C17.0751 106.451 17.0542 106.396 17.0213 106.348C16.9885 106.301 16.9447 106.261 16.8935 106.234C16.8424 106.207 16.7855 106.192 16.7275 106.191C16.6695 106.19 16.6122 106.203 16.5602 106.229L16.5184 106.25C16.4511 106.281 16.376 106.291 16.303 106.278C16.2299 106.266 16.1623 106.232 16.1089 106.18C16.0556 106.129 16.0192 106.062 16.0043 105.99C15.9894 105.917 15.9968 105.842 16.0255 105.773L16.226 105.314C16.2485 105.262 16.2586 105.206 16.2556 105.149C16.2525 105.093 16.2364 105.038 16.2084 104.989C16.1804 104.94 16.1414 104.898 16.0944 104.867C16.0474 104.835 15.9938 104.815 15.9377 104.808L15.2902 104.721C15.2392 104.713 15.1871 104.716 15.1374 104.73C15.0877 104.744 15.0416 104.769 15.002 104.802C14.9625 104.835 14.9305 104.876 14.9082 104.923C14.8858 104.969 14.8736 105.02 14.8724 105.072C14.8687 105.151 14.8393 105.227 14.7889 105.288C14.7384 105.349 14.6694 105.392 14.5923 105.411C14.5153 105.43 14.4341 105.423 14.3611 105.392C14.2881 105.361 14.2272 105.307 14.1873 105.239L14.1038 105.088C14.0763 105.04 14.0384 104.999 13.9929 104.968C13.9474 104.937 13.8954 104.916 13.8408 104.908C13.7862 104.899 13.7304 104.903 13.6776 104.919C13.6248 104.935 13.5762 104.963 13.5356 105.001L13.0552 105.452C13.0188 105.486 12.9898 105.528 12.9699 105.574C12.9501 105.62 12.9399 105.669 12.9399 105.719C12.9399 105.769 12.9501 105.819 12.9699 105.865C12.9898 105.911 13.0188 105.952 13.0552 105.986L13.4395 106.342C13.4882 106.388 13.5233 106.447 13.541 106.511C13.5586 106.576 13.5582 106.645 13.5396 106.709C13.5211 106.774 13.4853 106.832 13.4359 106.878C13.3866 106.924 13.3257 106.955 13.2599 106.968Z" fill="#5988C6"/>
<path opacity="0.7" d="M13.2599 106.968L13.122 106.993C13.0719 107.002 13.0242 107.022 12.9821 107.051C12.94 107.079 12.9045 107.116 12.8777 107.16C12.8509 107.203 12.8335 107.252 12.8267 107.302C12.8198 107.353 12.8237 107.404 12.8379 107.453L13.005 108.059C13.0218 108.12 13.0542 108.176 13.0992 108.22C13.1441 108.265 13.2 108.297 13.2612 108.314C13.3225 108.33 13.387 108.33 13.4483 108.314C13.5096 108.298 13.5656 108.266 13.6108 108.222L13.8364 108.004C13.8804 107.962 13.9342 107.932 13.9927 107.916C14.0513 107.9 14.113 107.899 14.1721 107.913C14.2313 107.926 14.2862 107.954 14.3318 107.995C14.3775 108.035 14.4125 108.085 14.4338 108.142L14.7388 108.978C14.757 109.028 14.7862 109.074 14.8244 109.112C14.8625 109.15 14.9087 109.179 14.9595 109.197C15.0102 109.215 15.0644 109.222 15.118 109.216C15.1716 109.211 15.2233 109.194 15.2693 109.166L15.9712 108.748C16.0181 108.72 16.0581 108.682 16.0881 108.636C16.1182 108.59 16.1376 108.538 16.1448 108.484C16.152 108.43 16.1469 108.375 16.1299 108.323C16.1128 108.271 16.0843 108.223 16.0464 108.184L15.9336 108.067C15.8855 108.015 15.8532 107.951 15.8406 107.882C15.8279 107.813 15.8355 107.741 15.8624 107.676C15.8892 107.611 15.9342 107.555 15.992 107.514C16.0498 107.474 16.118 107.451 16.1884 107.449H16.7983C16.8499 107.447 16.9007 107.435 16.9472 107.413C16.9938 107.391 17.035 107.359 17.0682 107.319C17.1014 107.28 17.1258 107.233 17.1398 107.184C17.1537 107.134 17.157 107.082 17.1493 107.031L17.0824 106.509C17.0751 106.451 17.0542 106.396 17.0213 106.348C16.9885 106.301 16.9447 106.261 16.8935 106.234C16.8424 106.207 16.7855 106.192 16.7275 106.191C16.6695 106.19 16.6122 106.203 16.5602 106.229L16.5184 106.25C16.4511 106.281 16.376 106.291 16.303 106.278C16.2299 106.266 16.1623 106.232 16.1089 106.18C16.0556 106.129 16.0192 106.062 16.0043 105.99C15.9894 105.917 15.9968 105.842 16.0255 105.773L16.226 105.314C16.2485 105.262 16.2586 105.206 16.2556 105.149C16.2525 105.093 16.2364 105.038 16.2084 104.989C16.1804 104.94 16.1414 104.898 16.0944 104.867C16.0474 104.835 15.9938 104.815 15.9377 104.808L15.2902 104.721C15.2392 104.713 15.1871 104.716 15.1374 104.73C15.0877 104.744 15.0416 104.769 15.002 104.802C14.9625 104.835 14.9305 104.876 14.9082 104.923C14.8858 104.969 14.8736 105.02 14.8724 105.072C14.8687 105.151 14.8393 105.227 14.7889 105.288C14.7384 105.349 14.6694 105.392 14.5923 105.411C14.5153 105.43 14.4341 105.423 14.3611 105.392C14.2881 105.361 14.2272 105.307 14.1873 105.239L14.1038 105.088C14.0763 105.04 14.0384 104.999 13.9929 104.968C13.9474 104.937 13.8954 104.916 13.8408 104.908C13.7862 104.899 13.7304 104.903 13.6776 104.919C13.6248 104.935 13.5762 104.963 13.5356 105.001L13.0552 105.452C13.0188 105.486 12.9898 105.528 12.9699 105.574C12.9501 105.62 12.9399 105.669 12.9399 105.719C12.9399 105.769 12.9501 105.819 12.9699 105.865C12.9898 105.911 13.0188 105.952 13.0552 105.986L13.4395 106.342C13.4882 106.388 13.5233 106.447 13.541 106.511C13.5586 106.576 13.5582 106.645 13.5396 106.709C13.5211 106.774 13.4853 106.832 13.4359 106.878C13.3866 106.924 13.3257 106.955 13.2599 106.968Z" fill="white"/>
<path d="M13.8614 126.457L14.3878 122.384H9.79241L10.3146 126.457C9.24279 126.826 8.3127 127.52 7.65379 128.443C6.99488 129.365 6.63992 130.47 6.63831 131.604C6.67923 132.863 6.98378 134.1 7.53232 135.234C7.79272 135.78 8.20334 136.241 8.71607 136.562C9.22881 136.883 9.82244 137.051 10.4274 137.047H13.7695C14.3741 137.052 14.9675 136.884 15.4797 136.563C15.9919 136.241 16.4016 135.78 16.6604 135.234C17.2121 134.101 17.5181 132.864 17.5586 131.604C17.5586 130.467 17.2018 129.359 16.5385 128.435C15.8752 127.512 14.9389 126.82 13.8614 126.457Z" fill="#5988C6"/>
<path opacity="0.7" d="M13.8614 126.457L14.3878 122.384H9.79241L10.3146 126.457C9.24279 126.826 8.3127 127.52 7.65379 128.443C6.99488 129.365 6.63992 130.47 6.63831 131.604C6.67923 132.863 6.98378 134.1 7.53232 135.234C7.79272 135.78 8.20334 136.241 8.71607 136.562C9.22881 136.883 9.82244 137.051 10.4274 137.047H13.7695C14.3741 137.052 14.9675 136.884 15.4797 136.563C15.9919 136.241 16.4016 135.78 16.6604 135.234C17.2121 134.101 17.5181 132.864 17.5586 131.604C17.5586 130.467 17.2018 129.359 16.5385 128.435C15.8752 127.512 14.9389 126.82 13.8614 126.457Z" fill="white"/>
<path d="M105.201 86.8655V136.792H106.563L107.775 89.418H109.379V86.8655H105.201Z" fill="#263238"/>
<path d="M106.408 136.792H107.708L109.379 86.8697H107.662L106.408 136.792Z" fill="#263238"/>
<g opacity="0.3">
<path d="M106.659 136.792H107.708L109.262 89.4765H107.795L106.659 136.792Z" fill="white"/>
</g>
<path opacity="0.5" d="M105.201 86.8655V136.792H106.563L107.775 89.418H109.379V86.8655H105.201Z" fill="white"/>
<path d="M23.4158 136.792H24.715L26.3861 86.9365H24.6691L23.4158 136.792Z" fill="#263238"/>
<path opacity="0.3" d="M23.4158 136.792H24.715L26.3861 86.9365H24.6691L23.4158 136.792Z" fill="white"/>
<path d="M44.3498 86.9365V136.792H42.9754L41.3586 89.3553H24.7776L23.5661 136.792H22.2084V86.9365H44.3498Z" fill="#263238"/>
<path opacity="0.5" d="M44.3498 86.9365V136.792H42.9754L41.3586 89.3553H24.7776L23.5661 136.792H22.2084V86.9365H44.3498Z" fill="white"/>
<path d="M44.3497 136.792H45.6448L46.0626 86.9365H44.3497V136.792Z" fill="#263238"/>
<path opacity="0.3" d="M44.3497 136.792H45.6448L46.0626 86.9365H44.3497V136.792Z" fill="white"/>
<path d="M109.379 86.9365V89.3595H124.351L125.968 136.792H127.343V86.9365H109.379Z" fill="#263238"/>
<path opacity="0.5" d="M109.379 86.9365V89.3595H124.351L125.968 136.792H127.343V86.9365H109.379Z" fill="white"/>
<path d="M127.343 136.792H128.642L129.06 86.9365H127.343V136.792Z" fill="#263238"/>
<g opacity="0.3">
<path d="M127.343 136.792H128.642L129.06 86.9365H127.343V136.792Z" fill="white"/>
</g>
<path d="M45.4193 86.9198L131.332 86.9198V83.7156L45.4193 83.7156V86.9198Z" fill="#263238"/>
<path opacity="0.8" d="M45.4193 86.9198L131.332 86.9198V83.7156L45.4193 83.7156V86.9198Z" fill="white"/>
<path d="M19.9357 86.9198H47.4161V83.7156H19.9357V86.9198Z" fill="#263238"/>
<path opacity="0.6" d="M19.9357 86.9198H47.4161V83.7156H19.9357V86.9198Z" fill="white"/>
<path d="M39.0483 82.8341V83.2769C39.0483 83.3877 39.0924 83.4939 39.1707 83.5723C39.249 83.6506 39.3553 83.6947 39.4661 83.6947H55.3411C55.4423 83.6947 55.5394 83.6547 55.6114 83.5836C55.6833 83.5124 55.7243 83.4157 55.7254 83.3145V82.8967C55.7254 82.7948 55.6849 82.697 55.6129 82.625C55.5408 82.5529 55.443 82.5124 55.3411 82.5124H51.3932C51.2887 82.5125 51.1855 82.4899 51.0905 82.4462C50.9956 82.4025 50.9113 82.3387 50.8434 82.2593C50.7755 82.1799 50.7256 82.0867 50.6972 81.9861C50.6688 81.8856 50.6625 81.7801 50.6788 81.6769L52.0658 73.6725H43.0421L39.1778 82.22C39.0943 82.414 39.0503 82.6228 39.0483 82.8341Z" fill="#263238"/>
<path opacity="0.2" d="M55.7297 82.8925V83.3103C55.7297 83.3602 55.7198 83.4097 55.7007 83.4558C55.6816 83.5019 55.6536 83.5438 55.6183 83.5791C55.583 83.6144 55.5411 83.6424 55.495 83.6615C55.4489 83.6806 55.3994 83.6905 55.3495 83.6905H39.4745C39.3637 83.6905 39.2575 83.6465 39.1791 83.5681C39.1008 83.4898 39.0568 83.3835 39.0568 83.2727V82.8299C39.0582 82.7118 39.0722 82.5941 39.0985 82.479C39.1224 82.3803 39.1545 82.2839 39.1946 82.1907L43.0589 73.6433H52.0826L50.6831 81.6393C50.677 81.6864 50.677 81.7341 50.6831 81.7813C50.6863 81.944 50.7447 82.1008 50.8487 82.2261C50.9527 82.3513 51.0961 82.4375 51.2554 82.4706C51.3054 82.477 51.3559 82.477 51.4058 82.4706H55.3579C55.4108 82.4714 55.463 82.4833 55.511 82.5055C55.5591 82.5277 55.602 82.5597 55.637 82.5994C55.672 82.6391 55.6984 82.6857 55.7143 82.7362C55.7303 82.7867 55.7355 82.8399 55.7297 82.8925Z" fill="white"/>
<path d="M38.6724 82.1949L42.5367 73.6475H43.0464L39.182 82.1949C39.0938 82.3964 39.0483 82.614 39.0484 82.8341V83.2769C39.0484 83.3877 39.0924 83.4939 39.1707 83.5723C39.2491 83.6506 39.3553 83.6947 39.4661 83.6947H38.9565C38.8457 83.6947 38.7394 83.6506 38.6611 83.5723C38.5827 83.4939 38.5387 83.3877 38.5387 83.2769V82.8341C38.5387 82.6141 38.5842 82.3964 38.6724 82.1949Z" fill="#263238"/>
<path opacity="0.3" d="M43.0464 73.6475H52.0701L51.715 75.6903H42.1232L43.0464 73.6475Z" fill="black"/>
<path d="M67.2139 74.5373H28.7171C28.3437 74.5373 27.9856 74.389 27.7216 74.1249C27.4575 73.8609 27.3092 73.5028 27.3092 73.1294V45.319C27.3092 44.9456 27.4575 44.5875 27.7216 44.3235C27.9856 44.0594 28.3437 43.9111 28.7171 43.9111H67.2139C67.5873 43.9111 67.9454 44.0594 68.2094 44.3235C68.4734 44.5875 68.6217 44.9456 68.6217 45.319V73.1378C68.6195 73.5097 68.4702 73.8657 68.2064 74.1279C67.9427 74.3901 67.5858 74.5373 67.2139 74.5373Z" fill="#263238"/>
<g opacity="0.2">
<path d="M67.2139 74.5373H28.7171C28.3437 74.5373 27.9856 74.389 27.7216 74.1249C27.4575 73.8609 27.3092 73.5028 27.3092 73.1294V45.319C27.3092 44.9456 27.4575 44.5875 27.7216 44.3235C27.9856 44.0594 28.3437 43.9111 28.7171 43.9111H67.2139C67.5873 43.9111 67.9454 44.0594 68.2094 44.3235C68.4734 44.5875 68.6217 44.9456 68.6217 45.319V73.1378C68.6195 73.5097 68.4702 73.8657 68.2064 74.1279C67.9427 74.3901 67.5858 74.5373 67.2139 74.5373Z" fill="white"/>
</g>
<path d="M67.1847 44.7633H28.7422C28.3199 44.7633 27.9777 45.1056 27.9777 45.5279V68.5173C27.9777 68.9396 28.3199 69.2818 28.7422 69.2818H67.1847C67.6069 69.2818 67.9492 68.9396 67.9492 68.5173V45.5279C67.9492 45.1056 67.6069 44.7633 67.1847 44.7633Z" fill="#5988C6"/>
<path opacity="0.6" d="M67.1847 44.7633H28.7422C28.3199 44.7633 27.9777 45.1056 27.9777 45.5279V68.5173C27.9777 68.9396 28.3199 69.2818 28.7422 69.2818H67.1847C67.6069 69.2818 67.9492 68.9396 67.9492 68.5173V45.5279C67.9492 45.1056 67.6069 44.7633 67.1847 44.7633Z" fill="white"/>
<path d="M27.8649 43.9111H28.7004C28.327 43.9111 27.9689 44.0594 27.7049 44.3235C27.4409 44.5875 27.2926 44.9456 27.2926 45.319V73.1378C27.2926 73.5112 27.4409 73.8693 27.7049 74.1333C27.9689 74.3973 28.327 74.5456 28.7004 74.5456H27.8649C27.4915 74.5456 27.1334 74.3973 26.8694 74.1333C26.6054 73.8693 26.457 73.5112 26.457 73.1378V45.319C26.457 44.9456 26.6054 44.5875 26.8694 44.3235C27.1334 44.0594 27.4915 43.9111 27.8649 43.9111Z" fill="#5988C6"/>
<path opacity="0.3" d="M27.8649 43.9111H28.7004C28.327 43.9111 27.9689 44.0594 27.7049 44.3235C27.4409 44.5875 27.2926 44.9456 27.2926 45.319V73.1378C27.2926 73.5112 27.4409 73.8693 27.7049 74.1333C27.9689 74.3973 28.327 74.5456 28.7004 74.5456H27.8649C27.4915 74.5456 27.1334 74.3973 26.8694 74.1333C26.6054 73.8693 26.457 73.5112 26.457 73.1378V45.319C26.457 44.9456 26.6054 44.5875 26.8694 44.3235C27.1334 44.0594 27.4915 43.9111 27.8649 43.9111Z" fill="white"/>
<g opacity="0.2">
<path d="M44.5922 44.7633H43.1133L35.7565 69.2776H37.2354L44.5922 44.7633Z" fill="white"/>
<path d="M34.2608 69.2777L41.6176 44.7633H36.0614L28.7046 69.2777H34.2608Z" fill="white"/>
</g>
<path opacity="0.2" d="M41.7931 82.8926V83.3103C41.793 83.4176 41.8341 83.5208 41.908 83.5986C41.9819 83.6764 42.0828 83.7227 42.19 83.7281H55.3495C55.4503 83.7281 55.547 83.688 55.6183 83.6167C55.6896 83.5454 55.7297 83.4487 55.7297 83.3479V82.9302C55.7297 82.8289 55.6897 82.7318 55.6186 82.6599C55.5474 82.5879 55.4507 82.5469 55.3495 82.5458H51.3975C51.3475 82.552 51.297 82.552 51.2471 82.5458H42.19C42.0941 82.5492 42.0022 82.5856 41.93 82.6487C41.8577 82.7119 41.8093 82.798 41.7931 82.8926Z" fill="white"/>
<path opacity="0.2" d="M39.0861 82.4748H51.2471C51.0874 82.4424 50.9436 82.3564 50.8395 82.231C50.7354 82.1056 50.6773 81.9484 50.6748 81.7855H39.3952L39.0861 82.4748Z" fill="black"/>
<path d="M69.2109 82.7255H70.3639C70.3913 82.7266 70.4187 82.7223 70.4445 82.7128C70.4703 82.7033 70.4939 82.6888 70.5141 82.6702C70.5343 82.6516 70.5506 82.6292 70.5621 82.6042C70.5736 82.5793 70.5801 82.5524 70.5811 82.5249V81.4137C70.5801 81.3862 70.5736 81.3593 70.5621 81.3343C70.5506 81.3094 70.5343 81.287 70.5141 81.2684C70.4939 81.2497 70.4703 81.2353 70.4445 81.2258C70.4187 81.2163 70.3913 81.212 70.3639 81.2132H69.5284C69.4814 81.2118 69.4352 81.2257 69.3968 81.2528C69.3584 81.2799 69.3298 81.3188 69.3153 81.3635L68.9936 82.4706C68.9855 82.5024 68.985 82.5357 68.9924 82.5677C68.9998 82.5997 69.0148 82.6294 69.0361 82.6544C69.0574 82.6794 69.0844 82.6989 69.1148 82.7113C69.1452 82.7236 69.1782 82.7285 69.2109 82.7255Z" fill="#263238"/>
<path d="M67.6317 82.7255H68.7806C68.8364 82.7277 68.8909 82.708 68.9323 82.6705C68.9737 82.633 68.9987 82.5807 69.002 82.5249V81.4137C68.9987 81.3579 68.9737 81.3056 68.9323 81.2681C68.8909 81.2306 68.8364 81.2109 68.7806 81.2132H67.945C67.898 81.2118 67.8519 81.2257 67.8134 81.2528C67.775 81.2799 67.7464 81.3188 67.732 81.3635L67.4061 82.4706C67.3976 82.5032 67.3972 82.5373 67.405 82.5701C67.4128 82.6028 67.4285 82.6331 67.4508 82.6583C67.4731 82.6835 67.5013 82.7028 67.5329 82.7145C67.5644 82.7262 67.5984 82.73 67.6317 82.7255Z" fill="#263238"/>
<path d="M66.0317 82.7255H67.1847C67.2121 82.7266 67.2395 82.7223 67.2653 82.7128C67.2911 82.7033 67.3147 82.6888 67.3349 82.6702C67.3551 82.6516 67.3714 82.6292 67.3829 82.6042C67.3944 82.5793 67.4009 82.5524 67.4019 82.5249V81.4137C67.4009 81.3862 67.3944 81.3593 67.3829 81.3343C67.3714 81.3094 67.3551 81.287 67.3349 81.2684C67.3147 81.2497 67.2911 81.2353 67.2653 81.2258C67.2395 81.2163 67.2121 81.212 67.1847 81.2132H66.3492C66.3022 81.2118 66.256 81.2257 66.2176 81.2528C66.1792 81.2799 66.1506 81.3188 66.1361 81.3635L65.8144 82.4706C65.8063 82.5024 65.8058 82.5357 65.8132 82.5677C65.8206 82.5997 65.8356 82.6294 65.8569 82.6544C65.8782 82.6794 65.9052 82.6989 65.9356 82.7113C65.966 82.7236 65.999 82.7285 66.0317 82.7255Z" fill="#263238"/>
<path d="M64.4441 82.7255H65.5929C65.6488 82.7277 65.7033 82.708 65.7447 82.6705C65.7861 82.633 65.8111 82.5807 65.8144 82.5249V81.4137C65.8111 81.3579 65.7861 81.3056 65.7447 81.2681C65.7033 81.2306 65.6488 81.2109 65.5929 81.2132H64.7574C64.7104 81.2118 64.6642 81.2257 64.6258 81.2528C64.5874 81.2799 64.5588 81.3188 64.5444 81.3635L64.2185 82.4706C64.21 82.5032 64.2096 82.5373 64.2174 82.5701C64.2252 82.6028 64.2409 82.6331 64.2632 82.6583C64.2855 82.6835 64.3137 82.7028 64.3453 82.7145C64.3768 82.7262 64.4107 82.73 64.4441 82.7255Z" fill="#263238"/>
<path d="M62.8525 82.7255H64.0055C64.0329 82.7266 64.0603 82.7223 64.0861 82.7128C64.1119 82.7033 64.1355 82.6888 64.1557 82.6702C64.1759 82.6516 64.1922 82.6292 64.2037 82.6042C64.2152 82.5793 64.2217 82.5524 64.2227 82.5249V81.4137C64.2217 81.3862 64.2152 81.3593 64.2037 81.3343C64.1922 81.3094 64.1759 81.287 64.1557 81.2684C64.1355 81.2497 64.1119 81.2353 64.0861 81.2258C64.0603 81.2163 64.0329 81.212 64.0055 81.2132H63.17C63.123 81.2118 63.0768 81.2257 63.0384 81.2528C63 81.2799 62.9714 81.3188 62.9569 81.3635L62.6352 82.4706C62.6271 82.5024 62.6266 82.5357 62.634 82.5677C62.6414 82.5997 62.6564 82.6294 62.6777 82.6544C62.699 82.6794 62.726 82.6989 62.7564 82.7113C62.7868 82.7236 62.8198 82.7285 62.8525 82.7255Z" fill="#263238"/>
<path d="M61.265 82.7255H62.4139C62.4697 82.7277 62.5242 82.708 62.5656 82.6705C62.607 82.633 62.632 82.5807 62.6353 82.5249V81.4137C62.632 81.3579 62.607 81.3056 62.5656 81.2681C62.5242 81.2306 62.4697 81.2109 62.4139 81.2132H61.5783C61.5313 81.2118 61.4852 81.2257 61.4467 81.2528C61.4083 81.2799 61.3797 81.3188 61.3653 81.3635L61.0394 82.4706C61.0309 82.5032 61.0305 82.5373 61.0383 82.5701C61.0461 82.6028 61.0618 82.6331 61.0841 82.6583C61.1064 82.6835 61.1346 82.7028 61.1662 82.7145C61.1977 82.7262 61.2317 82.73 61.265 82.7255Z" fill="#263238"/>
<path d="M59.6942 82.7255H60.8472C60.8746 82.7266 60.902 82.7223 60.9278 82.7128C60.9535 82.7033 60.9772 82.6888 60.9974 82.6702C61.0176 82.6516 61.0339 82.6292 61.0454 82.6042C61.0569 82.5793 61.0633 82.5524 61.0644 82.5249V81.4137C61.0633 81.3862 61.0569 81.3593 61.0454 81.3343C61.0339 81.3094 61.0176 81.287 60.9974 81.2684C60.9772 81.2497 60.9535 81.2353 60.9278 81.2258C60.902 81.2163 60.8746 81.212 60.8472 81.2132H60.0117C59.9646 81.2118 59.9185 81.2257 59.88 81.2528C59.8416 81.2799 59.813 81.3188 59.7986 81.3635L59.4769 82.4706C59.4687 82.5024 59.4683 82.5357 59.4757 82.5677C59.4831 82.5997 59.4981 82.6294 59.5194 82.6544C59.5407 82.6794 59.5677 82.6989 59.5981 82.7113C59.6285 82.7236 59.6615 82.7285 59.6942 82.7255Z" fill="#263238"/>
<path d="M58.0858 82.7255H59.2347C59.2905 82.7277 59.345 82.708 59.3864 82.6705C59.4278 82.633 59.4528 82.5807 59.4561 82.5249V81.4137C59.4528 81.3579 59.4278 81.3056 59.3864 81.2681C59.345 81.2306 59.2905 81.2109 59.2347 81.2132H58.3991C58.3521 81.2118 58.306 81.2257 58.2675 81.2528C58.2291 81.2799 58.2005 81.3188 58.1861 81.3635L57.8602 82.4706C57.8517 82.5032 57.8513 82.5373 57.8591 82.5701C57.8669 82.6028 57.8826 82.6331 57.9049 82.6583C57.9272 82.6835 57.9554 82.7028 57.987 82.7145C58.0185 82.7262 58.0525 82.73 58.0858 82.7255Z" fill="#263238"/>
<path d="M56.4942 82.7255H57.6472C57.6747 82.7266 57.7021 82.7223 57.7278 82.7128C57.7536 82.7033 57.7772 82.6888 57.7974 82.6702C57.8176 82.6516 57.8339 82.6292 57.8454 82.6042C57.8569 82.5793 57.8634 82.5524 57.8645 82.5249V81.4137C57.8634 81.3862 57.8569 81.3593 57.8454 81.3343C57.8339 81.3094 57.8176 81.287 57.7974 81.2684C57.7772 81.2497 57.7536 81.2353 57.7278 81.2258C57.7021 81.2163 57.6747 81.212 57.6472 81.2132H56.8117C56.7647 81.2118 56.7185 81.2257 56.6801 81.2528C56.6417 81.2799 56.6131 81.3188 56.5986 81.3635L56.277 82.4706C56.2688 82.5024 56.2684 82.5357 56.2758 82.5677C56.2831 82.5997 56.2981 82.6294 56.3194 82.6544C56.3407 82.6794 56.3677 82.6989 56.3981 82.7113C56.4286 82.7236 56.4615 82.7285 56.4942 82.7255Z" fill="#263238"/>
<path d="M54.9066 82.7255H56.0555C56.1113 82.7277 56.1658 82.708 56.2072 82.6705C56.2486 82.633 56.2737 82.5807 56.2769 82.5249V81.4137C56.2737 81.3579 56.2486 81.3056 56.2072 81.2681C56.1658 81.2306 56.1113 81.2109 56.0555 81.2132H55.22C55.1737 81.2127 55.1284 81.227 55.0908 81.2541C55.0533 81.2811 55.0253 81.3195 55.0111 81.3635L54.681 82.4748C54.6733 82.5071 54.6735 82.5407 54.6817 82.5729C54.6899 82.6051 54.7058 82.6347 54.728 82.6594C54.7502 82.6841 54.778 82.703 54.8091 82.7145C54.8403 82.726 54.8737 82.7298 54.9066 82.7255Z" fill="#263238"/>
<path d="M53.315 82.7255H54.468C54.4955 82.7266 54.5229 82.7223 54.5486 82.7128C54.5744 82.7033 54.598 82.6888 54.6182 82.6702C54.6384 82.6516 54.6547 82.6292 54.6662 82.6042C54.6777 82.5793 54.6842 82.5524 54.6853 82.5249V81.4137C54.6842 81.3862 54.6777 81.3593 54.6662 81.3343C54.6547 81.3094 54.6384 81.287 54.6182 81.2684C54.598 81.2497 54.5744 81.2353 54.5486 81.2258C54.5229 81.2163 54.4955 81.212 54.468 81.2132H53.6325C53.5855 81.2118 53.5393 81.2257 53.5009 81.2528C53.4625 81.2799 53.4339 81.3188 53.4194 81.3635L53.0978 82.4706C53.0896 82.5024 53.0892 82.5357 53.0966 82.5677C53.1039 82.5997 53.1189 82.6294 53.1402 82.6544C53.1615 82.6794 53.1885 82.6989 53.219 82.7113C53.2494 82.7236 53.2823 82.7285 53.315 82.7255Z" fill="#263238"/>
<path d="M51.7275 82.7255H52.8763C52.9322 82.7277 52.9867 82.708 53.0281 82.6705C53.0695 82.633 53.0945 82.5807 53.0978 82.5249V81.4137C53.0945 81.3579 53.0695 81.3056 53.0281 81.2681C52.9867 81.2306 52.9322 81.2109 52.8763 81.2132H52.0408C51.9945 81.2127 51.9493 81.227 51.9117 81.2541C51.8741 81.2811 51.8462 81.3195 51.8319 81.3635L51.5061 82.4706C51.4977 82.5028 51.4973 82.5365 51.5049 82.5689C51.5125 82.6012 51.5279 82.6313 51.5497 82.6563C51.5715 82.6814 51.5991 82.7008 51.6301 82.7129C51.661 82.7249 51.6945 82.7292 51.7275 82.7255Z" fill="#263238"/>
<path d="M50.1358 82.7255H51.2888C51.3163 82.7266 51.3437 82.7223 51.3694 82.7128C51.3952 82.7033 51.4188 82.6888 51.439 82.6702C51.4592 82.6516 51.4755 82.6292 51.487 82.6042C51.4985 82.5793 51.505 82.5524 51.5061 82.5249V81.4137C51.505 81.3862 51.4985 81.3593 51.487 81.3343C51.4755 81.3094 51.4592 81.287 51.439 81.2684C51.4188 81.2497 51.3952 81.2353 51.3694 81.2258C51.3437 81.2163 51.3163 81.212 51.2888 81.2132H50.4533C50.4063 81.2118 50.3601 81.2257 50.3217 81.2528C50.2833 81.2799 50.2547 81.3188 50.2402 81.3635L49.9186 82.4706C49.9104 82.5024 49.91 82.5357 49.9174 82.5677C49.9248 82.5997 49.9397 82.6294 49.961 82.6544C49.9823 82.6794 50.0093 82.6989 50.0398 82.7113C50.0702 82.7236 50.1031 82.7285 50.1358 82.7255Z" fill="#263238"/>
<path d="M48.5483 82.7255H49.6972C49.753 82.7277 49.8075 82.708 49.8489 82.6705C49.8903 82.633 49.9153 82.5807 49.9186 82.5249V81.4137C49.9153 81.3579 49.8903 81.3056 49.8489 81.2681C49.8075 81.2306 49.753 81.2109 49.6972 81.2132H48.8616C48.8153 81.2127 48.7701 81.227 48.7325 81.2541C48.6949 81.2811 48.667 81.3195 48.6527 81.3635L48.3269 82.4706C48.3185 82.5028 48.3181 82.5365 48.3257 82.5689C48.3333 82.6012 48.3487 82.6313 48.3705 82.6563C48.3923 82.6814 48.4199 82.7008 48.4509 82.7129C48.4818 82.7249 48.5153 82.7292 48.5483 82.7255Z" fill="#263238"/>
<path d="M46.9567 82.7255H48.1097C48.1371 82.7266 48.1645 82.7223 48.1903 82.7128C48.2161 82.7033 48.2397 82.6888 48.2599 82.6702C48.2801 82.6516 48.2964 82.6292 48.3079 82.6042C48.3194 82.5793 48.3259 82.5524 48.3269 82.5249V81.4137C48.3259 81.3862 48.3194 81.3593 48.3079 81.3343C48.2964 81.3094 48.2801 81.287 48.2599 81.2684C48.2397 81.2497 48.2161 81.2353 48.1903 81.2258C48.1645 81.2163 48.1371 81.212 48.1097 81.2132H47.2742C47.2272 81.2118 47.181 81.2257 47.1426 81.2528C47.1041 81.2799 47.0756 81.3188 47.0611 81.3635L46.7436 82.4748C46.7364 82.5059 46.7365 82.5384 46.744 82.5694C46.7516 82.6005 46.7663 82.6294 46.787 82.6538C46.8077 82.6781 46.8339 82.6973 46.8633 82.7098C46.8928 82.7222 46.9248 82.7276 46.9567 82.7255Z" fill="#263238"/>
<path d="M45.7994 82.8424C45.8082 83.0847 45.9123 83.3138 46.0891 83.4797C46.266 83.6456 46.5012 83.7348 46.7436 83.7281H70.556C70.7985 83.7383 71.0351 83.6522 71.2143 83.4887C71.3935 83.3251 71.5008 83.0973 71.5127 82.8549C71.5119 82.738 71.4866 82.6226 71.4384 82.5161C71.3902 82.4096 71.3201 82.3144 71.2328 82.2367C71.0518 82.0759 70.819 81.9855 70.5769 81.9818H46.7436C46.6548 81.9821 46.5664 81.9933 46.4804 82.0152C46.2928 82.0611 46.125 82.1664 46.0023 82.3155C45.8795 82.4646 45.8084 82.6495 45.7994 82.8424Z" fill="#263238"/>
<path opacity="0.2" d="M45.7994 82.8424C45.8082 83.0847 45.9123 83.3138 46.0891 83.4797C46.266 83.6456 46.5012 83.7348 46.7436 83.7281H70.556C70.7985 83.7383 71.0351 83.6522 71.2143 83.4887C71.3935 83.3251 71.5008 83.0973 71.5127 82.8549C71.5119 82.738 71.4866 82.6226 71.4384 82.5161C71.3902 82.4096 71.3201 82.3144 71.2328 82.2367C71.0518 82.0759 70.819 81.9855 70.5769 81.9818H46.7436C46.6548 81.9821 46.5664 81.9933 46.4804 82.0152C46.2928 82.0611 46.125 82.1664 46.0023 82.3155C45.8795 82.4646 45.8084 82.6495 45.7994 82.8424Z" fill="white"/>
<path d="M45.7994 82.8424C45.8082 83.0847 45.9123 83.3138 46.0891 83.4797C46.266 83.6456 46.5012 83.7349 46.7436 83.7281H54.8022C54.9891 83.6806 55.1552 83.5732 55.2752 83.4223C55.3952 83.2714 55.4623 83.0853 55.4665 82.8926C55.4708 82.8411 55.4708 82.7894 55.4665 82.738C55.4289 82.5589 55.3352 82.3965 55.1991 82.2743C55.1353 82.2208 55.0668 82.1733 54.9944 82.1322L54.8816 82.0821C54.7644 82.0367 54.6396 82.014 54.514 82.0153H46.4929C46.303 82.0587 46.1324 82.1631 46.0073 82.3124C45.8821 82.4617 45.8091 82.6478 45.7994 82.8424Z" fill="#263238"/>
<path d="M120.575 66.8004C120.575 66.8004 123.649 105.047 123.674 105.264L125.621 128.065H129.853C129.853 128.065 129.983 126.841 130.246 125.112C132.552 109.951 130.914 104.963 130.914 104.963C130.914 104.963 132.945 75.6945 133.655 73.4887C133.726 73.259 131.345 57.196 120.575 66.8004Z" fill="#263238"/>
<g opacity="0.2">
<path d="M120.575 66.8004C120.575 66.8004 123.649 105.047 123.674 105.264L125.621 128.065H129.853C129.853 128.065 129.983 126.841 130.246 125.112C132.552 109.951 130.914 104.963 130.914 104.963C130.914 104.963 132.945 75.6945 133.655 73.4887C133.726 73.259 131.345 57.196 120.575 66.8004Z" fill="black"/>
</g>
<path d="M120.6 66.2698C121.493 69.5721 123.594 72.4184 126.486 74.2449L129.41 76.0956C129.41 76.0956 144.63 61.4279 131.274 58.2112C128.688 57.5887 120.6 66.2698 120.6 66.2698Z" fill="#263238"/>
<path d="M158.746 124.322L156.089 126.114L153.603 122.923L150.913 119.468V119.464L154.038 117.32L154.464 117.951L156.557 121.068L158.746 124.322Z" fill="#FF8B7B"/>
<path opacity="0.2" d="M156.557 121.068L153.603 122.923L150.913 119.468L154.113 117.458L154.464 117.951L156.557 121.068Z" fill="black"/>
<path d="M141.187 81.0419C141.25 86.0926 142.348 95.2166 143.046 100.217C143.046 100.217 146.806 104.7 148.866 107.808L155.362 118.473L151.368 121.064L138.651 107.361C135.008 104.595 135.593 102.924 134.67 100.393C132.41 94.2098 130.956 87.5465 129.962 81.5098C129.502 78.7108 127.485 69.6161 128.186 66.8881C129.13 63.1951 130.229 56.8367 134.561 59.5731C138.192 61.8541 141.003 65.593 141.187 81.0419Z" fill="#263238"/>
<path d="M156.849 119.526L151.911 122.639L149.906 120.575L155.458 117.024L156.849 119.526Z" fill="#5988C6"/>
<path d="M155.567 126.227L157.576 122.705C157.607 122.643 157.662 122.594 157.728 122.57C157.794 122.546 157.866 122.548 157.931 122.576L160.939 123.758C161.08 123.819 161.191 123.933 161.248 124.075C161.305 124.218 161.304 124.377 161.244 124.518L161.215 124.573C160.492 125.788 160.087 126.336 159.205 127.881C158.666 128.834 157.609 131.01 156.862 132.326C156.114 133.642 154.773 132.97 154.969 132.356C155.838 129.607 155.7 128.065 155.475 126.845C155.431 126.635 155.464 126.416 155.567 126.227Z" fill="#263238"/>
<path d="M154.998 128.111C155.416 127.965 155.734 127.171 155.859 126.716C155.863 126.7 155.863 126.683 155.858 126.668C155.852 126.652 155.843 126.638 155.83 126.628C155.817 126.618 155.8 126.612 155.784 126.612C155.767 126.612 155.751 126.618 155.738 126.628C155.604 126.699 154.455 127.301 154.414 127.752C154.408 127.804 154.416 127.856 154.438 127.904C154.459 127.952 154.492 127.993 154.535 128.023C154.573 128.051 154.613 128.075 154.656 128.094C154.709 128.12 154.767 128.134 154.825 128.137C154.884 128.14 154.943 128.131 154.998 128.111ZM155.638 126.858C155.429 127.464 155.182 127.865 154.948 127.94C154.895 127.954 154.838 127.955 154.784 127.941C154.73 127.928 154.68 127.902 154.639 127.865C154.619 127.854 154.603 127.838 154.593 127.817C154.583 127.797 154.58 127.774 154.585 127.752C154.606 127.51 155.182 127.113 155.638 126.858Z" fill="#5988C6"/>
<path d="M155.821 126.758C155.834 126.749 155.844 126.738 155.852 126.725C155.859 126.712 155.863 126.697 155.863 126.682C155.861 126.668 155.856 126.654 155.847 126.642C155.838 126.631 155.826 126.621 155.813 126.616C155.775 126.591 154.873 126.085 154.38 126.252C154.319 126.272 154.263 126.306 154.216 126.35C154.169 126.394 154.132 126.447 154.108 126.507C154.076 126.566 154.065 126.635 154.076 126.702C154.087 126.768 154.121 126.829 154.171 126.875C154.198 126.896 154.228 126.914 154.259 126.929C154.783 127.061 155.338 127 155.821 126.758ZM155.592 126.682C155.174 126.841 154.472 126.908 154.284 126.745C154.255 126.716 154.221 126.674 154.263 126.574C154.279 126.536 154.302 126.501 154.333 126.473C154.363 126.445 154.399 126.424 154.438 126.411C154.832 126.381 155.225 126.471 155.566 126.67L155.592 126.682Z" fill="#5988C6"/>
<path d="M112.19 81.7855L109.383 81.6059C109.383 81.6059 107.415 67.4604 107.227 66.8965C106.968 65.8688 105.393 57.9814 104.771 55.9678L105.072 55.9218C104.737 54.8858 105.021 53.7662 106.112 53.4153C107.202 53.0643 108.698 53.6408 109.036 54.6685C109.738 56.7574 111.075 64.6948 111.275 65.6473C111.277 65.6696 111.277 65.6919 111.275 65.7142C111.914 69.8542 112.19 81.7855 112.19 81.7855Z" fill="#FF8B7B"/>
<path d="M112.19 81.7855C112.19 83.0722 111.02 83.7365 110.177 83.8242H105.723L105.464 83.7615C105.439 83.7546 105.416 83.7409 105.397 83.7219C105.379 83.7029 105.366 83.6793 105.36 83.6536C105.354 83.6279 105.355 83.6011 105.363 83.576C105.371 83.5508 105.386 83.5283 105.406 83.5109L106.208 82.8675C107.093 82.1531 108.297 81.9192 109.383 81.6142L112.19 81.7855Z" fill="#FF8B7B"/>
<path d="M106.73 49.1039C102.172 51.2972 105.356 60.4337 105.356 60.4337L110.958 59.9156C110.958 59.9156 111.513 53.2899 110.878 51.222C110.206 49.0538 108.911 47.6794 106.73 49.1039Z" fill="#5988C6"/>
<path opacity="0.2" d="M108.418 60.1454C108.418 60.1454 107.165 53.4612 108.393 52.2079C108.753 51.9382 109.159 51.7371 109.592 51.6147C111.092 52.2622 110.782 54.4221 110.782 54.4221L110.958 59.9073C110.244 60.0201 108.418 60.1454 108.418 60.1454Z" fill="black"/>
<path d="M107.586 54.9317C109.049 57.4675 112.182 60.8639 120.537 66.0902L130.839 58.1527C127.376 54.0126 125.216 51.2554 120.988 42.3195C120.79 41.8836 120.496 41.4983 120.128 41.1923C119.759 40.8863 119.327 40.6675 118.862 40.5523C118.082 40.3714 117.263 40.4954 116.573 40.8991C115.808 41.3461 114.977 41.8599 114.166 42.4281C112.319 43.6478 110.563 44.9993 108.911 46.472C107.758 47.5373 106.605 48.7572 105.782 49.6512C105.782 49.6512 105.782 49.7932 105.849 50.1233C106.139 51.8164 106.727 53.4445 107.586 54.9317Z" fill="#5988C6"/>
<path opacity="0.2" d="M121.615 43.2427C121.753 43.5978 121.891 43.9571 122.033 44.2704C122.717 45.8998 123.503 47.4848 124.385 49.0162C121.043 49.6094 117.625 47.7629 117.12 46.5598C116.798 45.8287 119.944 43.7315 121.615 43.2427Z" fill="black"/>
<path d="M130.484 57.3422L131.8 57.973C131.905 58.0232 131.884 58.1777 131.737 58.2822L120.575 66.8004C120.47 66.8797 120.341 66.8923 120.287 66.8338L119.384 65.8771C119.322 65.8144 119.384 65.6849 119.48 65.593L130.225 57.4091C130.259 57.3761 130.3 57.3526 130.346 57.3409C130.391 57.3292 130.439 57.3296 130.484 57.3422Z" fill="#5988C6"/>
<path opacity="0.6" d="M130.484 57.3422L131.8 57.973C131.905 58.0232 131.884 58.1777 131.737 58.2822L120.575 66.8004C120.47 66.8797 120.341 66.8923 120.287 66.8338L119.384 65.8771C119.322 65.8144 119.384 65.6849 119.48 65.593L130.225 57.4091C130.259 57.3761 130.3 57.3526 130.346 57.3409C130.391 57.3292 130.439 57.3296 130.484 57.3422Z" fill="white"/>
<path d="M119.48 65.593L130.225 57.409L119.48 65.593Z" fill="#5988C6"/>
<path d="M129.912 59.8571L130.213 59.619C130.279 59.5731 130.3 59.502 130.267 59.4686L129.08 58.2153C129.047 58.1777 128.968 58.1861 128.905 58.2362L128.604 58.4702C128.541 58.5203 128.521 58.5871 128.554 58.6247L129.736 59.8571C129.761 59.8783 129.792 59.89 129.824 59.89C129.856 59.89 129.887 59.8783 129.912 59.8571Z" fill="#263238"/>
<path d="M121.561 66.2406L121.861 66.0024C121.924 65.9565 121.949 65.8855 121.912 65.8479L120.729 64.6196C120.702 64.6017 120.668 64.594 120.636 64.5978C120.603 64.6016 120.572 64.6167 120.55 64.6405L120.249 64.8745C120.186 64.9246 120.161 64.9956 120.195 65.029L121.381 66.2614C121.414 66.299 121.494 66.2907 121.561 66.2406Z" fill="#263238"/>
<path d="M109.082 36.9053C110.055 38.8521 112.107 42.2067 114.158 42.4281C114.158 42.4281 115.353 45.3733 113.113 50.8168C108.276 49.7849 108.902 46.472 108.902 46.472C110.444 44.5671 109.32 43.2093 107.975 42.1482L109.082 36.9053Z" fill="#FF8B7B"/>
<path d="M113.452 51.4518L113.623 51.034C115.921 45.4443 114.743 42.2025 114.688 42.073L113.519 42.2693L113.644 42.637C113.644 42.6662 114.651 45.3274 112.779 50.1567C109.04 49.1666 109.258 46.0292 109.278 45.9206L108.443 46.8439C108.443 46.8815 107.678 50.211 112.984 51.3432L113.452 51.4518Z" fill="#5988C6"/>
<path opacity="0.6" d="M113.452 51.4518L113.623 51.034C115.921 45.4443 114.743 42.2025 114.688 42.073L113.519 42.2693L113.644 42.637C113.644 42.6662 114.651 45.3274 112.779 50.1567C109.04 49.1666 109.258 46.0292 109.278 45.9206L108.443 46.8439C108.443 46.8815 107.678 50.211 112.984 51.3432L113.452 51.4518Z" fill="white"/>
<path opacity="0.2" d="M108.961 37.4776C109.712 38.5023 110.235 39.6761 110.494 40.92C110.665 41.7806 110.164 43.5393 109.241 43.4265C108.892 42.9357 108.469 42.5017 107.988 42.1398L108.961 37.4776Z" fill="black"/>
<path d="M103.263 46.7603C99.3858 43.5393 98.2913 39.0693 98.2495 35.0838C98.2495 34.3319 98.4041 31.9047 99.156 31.8629C104.963 31.5287 98.3874 37.3565 103.263 46.7603Z" fill="#263238"/>
<path d="M108.046 33.2289C109.943 36.124 110.807 37.3105 110.465 39.7753C109.955 43.4808 105.986 45.177 103.271 42.9043C100.819 40.8573 98.1283 36.4624 100.021 33.3376C100.434 32.6476 101.017 32.0749 101.714 31.6736C102.411 31.2724 103.199 31.0561 104.003 31.0452C104.807 31.0343 105.601 31.2292 106.308 31.6114C107.016 31.9937 107.614 32.5505 108.046 33.2289Z" fill="#FF8B7B"/>
<path d="M104.574 41.7764C104.574 41.7764 105.042 40.8364 106.993 38.7225C107.599 39.6374 107.829 40.6401 106.843 41.7262C106.425 42.3236 105.447 42.3863 104.695 41.8683C104.653 41.84 104.613 41.8093 104.574 41.7764Z" fill="#263238"/>
<path d="M106.638 40.6985C106.223 41.0949 105.979 41.6373 105.957 42.2108C106.295 42.1587 106.603 41.9884 106.826 41.7304C107.033 41.5363 107.2 41.3031 107.317 41.0443C107.434 40.7855 107.498 40.5061 107.507 40.2223C107.17 40.2727 106.862 40.4415 106.638 40.6985Z" fill="#FF5652"/>
<path d="M104.641 41.6636C104.75 41.7255 104.873 41.758 104.998 41.758C105.124 41.758 105.247 41.7255 105.356 41.6636C105.93 41.0347 106.438 40.3488 106.872 39.6165C106.95 39.4975 106.994 39.3592 106.998 39.2169C107.003 39.0746 106.968 38.9339 106.897 38.8102C106.056 39.6869 105.3 40.6424 104.641 41.6636Z" fill="white"/>
<path d="M102.82 38.9147C102.946 39.6161 102.977 40.3314 102.912 41.0411C103.093 41.0527 103.275 41.0247 103.444 40.9591C103.614 40.8935 103.767 40.7917 103.893 40.6609L102.82 38.9147Z" fill="#FF5652"/>
<path d="M103.881 36.0154C103.854 36.0236 103.825 36.0236 103.797 36.0154C103.6 35.9522 103.39 35.9371 103.185 35.9712C102.98 36.0054 102.786 36.0878 102.619 36.2118C102.603 36.2255 102.584 36.2359 102.563 36.2423C102.543 36.2487 102.521 36.251 102.5 36.249C102.479 36.2471 102.458 36.2409 102.439 36.231C102.42 36.221 102.403 36.2074 102.39 36.1909C102.374 36.1764 102.362 36.159 102.353 36.1396C102.345 36.1202 102.341 36.0992 102.341 36.0781C102.341 36.057 102.345 36.036 102.353 36.0166C102.362 35.9972 102.374 35.9798 102.39 35.9653C102.598 35.807 102.842 35.7008 103.1 35.6558C103.358 35.6107 103.623 35.628 103.873 35.7063C103.914 35.7206 103.949 35.7499 103.971 35.7884C103.993 35.8269 103.999 35.8721 103.99 35.9152C103.979 35.9385 103.965 35.9594 103.946 35.9767C103.927 35.994 103.905 36.0072 103.881 36.0154Z" fill="#263238"/>
<path d="M100.021 38.9356H99.9916C99.9478 38.9358 99.9056 38.9196 99.8731 38.8902C99.8406 38.8609 99.8203 38.8204 99.8162 38.7768C99.7956 38.5143 99.8388 38.2507 99.9421 38.0085C100.045 37.7662 100.206 37.5526 100.409 37.3857C100.427 37.3726 100.446 37.3631 100.467 37.3577C100.488 37.3524 100.51 37.3512 100.531 37.3543C100.553 37.3574 100.573 37.3647 100.592 37.3759C100.61 37.387 100.626 37.4017 100.639 37.4191C100.664 37.4553 100.674 37.4993 100.668 37.5425C100.662 37.5858 100.639 37.6252 100.606 37.6531C100.447 37.7867 100.322 37.9567 100.243 38.1487C100.164 38.3407 100.132 38.549 100.15 38.756C100.154 38.7964 100.142 38.8366 100.119 38.8695C100.095 38.9024 100.06 38.9258 100.021 38.9356Z" fill="#263238"/>
<path d="M104.24 37.1643C104.407 37.3899 104.437 37.6572 104.278 37.7742C104.119 37.8912 103.86 37.7742 103.701 37.5612C103.543 37.3481 103.505 37.0724 103.664 36.9554C103.822 36.8384 104.069 36.9387 104.24 37.1643Z" fill="#263238"/>
<path d="M101.612 39.0275C101.78 39.2531 101.813 39.5205 101.65 39.6374C101.487 39.7544 101.232 39.6374 101.082 39.4244C100.932 39.2113 100.881 38.9314 101.044 38.8145C101.207 38.6975 101.445 38.8144 101.612 39.0275Z" fill="#263238"/>
<path d="M101.12 38.7935L100.455 39.0609C100.455 39.0609 101.053 39.2573 101.12 38.7935Z" fill="#263238"/>
<path d="M103.743 36.9387L103.083 37.2061C103.083 37.2061 103.676 37.3857 103.743 36.9387Z" fill="#263238"/>
<path d="M109.074 35.1381C110.653 35.7606 110.465 39.7753 110.465 39.7753C110.402 39.9299 112.186 37.557 111.183 31.9965C110.515 28.291 104.115 27.0878 99.3857 31.5287C98.4583 32.3934 99.0139 37.4275 99.3857 36.5167C99.8035 35.418 102.644 33.3209 104.399 32.8697C104.215 32.7611 108.155 34.7705 109.074 35.1381Z" fill="#263238"/>
<path d="M108.752 31.9255C109.013 31.7783 109.236 31.5719 109.402 31.323C109.569 31.0741 109.675 30.7896 109.712 30.4923C109.749 30.195 109.716 29.8931 109.615 29.611C109.515 29.3288 109.349 29.0742 109.132 28.8675C108.679 28.4964 108.143 28.2399 107.57 28.1197C106.998 27.9999 106.453 27.7807 105.957 27.4722C105.489 27.1254 105.356 26.691 105.31 25.9599C105.153 26.1078 105.029 26.2859 104.943 26.4834C104.858 26.6808 104.813 26.8936 104.813 27.1087C104.395 26.7954 104.324 26.34 104.161 25.3291C104.003 25.5873 103.902 25.8765 103.865 26.177C103.829 26.4775 103.857 26.7824 103.948 27.0711C103.639 26.95 103.438 26.7286 103.3 25.7468C102.786 27.0001 103.112 28.0988 103.375 28.2826C103.027 28.2884 102.691 28.4174 102.428 28.6467C102.165 28.8761 101.991 29.1911 101.938 29.5359C101.897 29.8808 101.94 30.2306 102.064 30.5552C102.187 30.8797 102.388 31.1694 102.649 31.3992C103.177 31.8539 103.815 32.1634 104.499 32.2973C105.873 32.6105 107.308 32.5191 108.631 32.0341C108.631 31.9255 108.752 31.9255 108.752 31.9255Z" fill="#263238"/>
<path d="M111.021 34.4321C111.358 35.0097 111.456 35.6967 111.292 36.3455C111.067 37.2061 110.185 37.181 109.621 36.5711C109.057 35.9611 108.602 34.9 109.136 34.2316C109.231 34.1157 109.347 34.0196 109.478 33.9487C109.61 33.8778 109.754 33.8335 109.903 33.8184C110.051 33.8032 110.201 33.8176 110.345 33.8605C110.488 33.9034 110.621 33.9742 110.736 34.0687C110.854 34.1698 110.951 34.2933 111.021 34.4321Z" fill="#FF8B7B"/>
<path d="M106.22 50.5201L102.59 51.0006L102.64 54.2006C102.64 54.2006 105.113 53.6617 106.12 52.3583L106.22 50.5201Z" fill="#FF8B7B"/>
<path d="M100.472 52.4252L100.305 54.7897L102.64 54.2007L102.59 51.0006L100.472 52.4252Z" fill="#FF8B7B"/>
<g opacity="0.2">
<path d="M102.415 53.879C102.39 53.8952 102.368 53.9166 102.352 53.9416L102.415 53.879Z" fill="black"/>
</g>
<path d="M121.343 44.4083C121.903 46.7728 121.782 51.2136 121.707 52.9808C121.684 53.8122 121.358 54.6068 120.792 55.2158C120.098 55.9385 118.929 56.4691 117.032 55.6712C115.135 54.8732 106.062 52.8429 106.083 52.3708L106.174 50.5452C106.174 50.5452 111.676 50.7207 117.579 51.3807C117.843 48.6193 117.312 45.1143 117.554 44.1827C117.96 42.6537 120.633 41.4129 121.343 44.4083Z" fill="#FF8B7B"/>
<path d="M117.688 40.5356C116.435 41.4547 116.28 48.4021 116.28 48.4021L122.68 48.5316C122.68 48.5316 122.68 43.8986 122.137 42.5409C121.293 40.3476 119.092 39.5037 117.688 40.5356Z" fill="#5988C6"/>
<path d="M129.544 133.793L126.286 133.484L125.843 126.808L129.828 126.603L129.544 133.793Z" fill="#FF8B7B"/>
<path opacity="0.2" d="M125.855 126.682L126.081 130.459L129.686 130.208L129.929 126.565L125.855 126.682Z" fill="black"/>
<path d="M125.63 132.527L129.887 132.239C129.963 132.236 130.039 132.258 130.102 132.301C130.166 132.344 130.215 132.405 130.242 132.477L131.395 135.781C131.424 135.859 131.434 135.943 131.425 136.025C131.415 136.108 131.386 136.187 131.34 136.256C131.294 136.325 131.232 136.382 131.159 136.422C131.087 136.462 131.006 136.485 130.923 136.487C129.427 136.563 128.713 136.525 126.824 136.654C125.671 136.734 122.705 137.051 121.114 137.16C119.522 137.269 119.121 135.714 119.76 135.526C122.601 134.691 124.205 133.701 125.041 132.803C125.115 132.72 125.206 132.653 125.307 132.605C125.408 132.558 125.518 132.531 125.63 132.527Z" fill="#263238"/>
<path d="M125.162 133.145C125.179 133.141 125.194 133.13 125.205 133.116C125.215 133.101 125.221 133.084 125.22 133.066C125.22 133.049 125.215 133.032 125.206 133.018C125.196 133.003 125.182 132.993 125.166 132.987C124.861 132.882 123.349 132.381 122.989 132.682C122.955 132.71 122.929 132.748 122.915 132.791C122.9 132.834 122.899 132.88 122.91 132.924C122.921 133.003 122.95 133.079 122.995 133.145C123.04 133.211 123.099 133.265 123.169 133.304C123.429 133.429 123.721 133.47 124.005 133.421C124.399 133.372 124.787 133.279 125.162 133.145ZM123.261 132.757C123.806 132.777 124.344 132.881 124.857 133.066C124.113 133.291 123.524 133.329 123.257 133.166C123.207 133.139 123.165 133.101 123.134 133.055C123.103 133.008 123.083 132.955 123.077 132.899C123.073 132.884 123.073 132.868 123.077 132.853C123.082 132.838 123.09 132.825 123.102 132.815C123.149 132.782 123.204 132.764 123.261 132.761V132.757Z" fill="#5988C6"/>
<path d="M125.199 133.133C125.206 133.12 125.21 133.106 125.21 133.091C125.21 133.076 125.206 133.062 125.199 133.049C125.199 132.982 124.652 131.491 123.825 131.679C123.608 131.725 123.549 131.842 123.562 131.93C123.562 132.347 124.594 133.012 125.095 133.154H125.128C125.154 133.154 125.178 133.147 125.199 133.133ZM123.946 131.825C124.468 131.771 124.848 132.569 124.999 132.907C124.481 132.702 123.746 132.164 123.746 131.93C123.746 131.884 123.787 131.842 123.879 131.833H123.934L123.946 131.825Z" fill="#5988C6"/>
<path d="M130.944 129.072L124.844 129.373L124.167 126.678L131.253 126.219L130.944 129.072Z" fill="#5988C6"/>
<path d="M53.4611 133.538L50.3864 132.836L51.9028 126.001L56.0011 127.418L53.4611 133.538Z" fill="#FFC3BD"/>
<path opacity="0.2" d="M56.9494 125.045L52.4668 123.278L51.4893 127.869L55.2867 129.064L56.9494 125.045Z" fill="black"/>
<path d="M66.2113 133.538L63.0906 133.099L64.3731 125.024L68.5758 126.089L66.2113 133.538Z" fill="#FFC3BD"/>
<path opacity="0.2" d="M69.3152 123.641L64.6989 122.263L63.9803 127.414L67.9449 128.115L69.3152 123.641Z" fill="black"/>
<path d="M84.8058 87.6049C84.8058 87.6049 67.03 89.6687 66.232 97.0171C65.4383 106.596 65.902 103.885 63.7255 126.022L68.9935 126.315C68.9935 126.315 74.3533 108.209 73.6306 101.015C79.5336 101.015 93.0482 101.533 95.0117 96.2067C95.9859 93.5018 96.4601 90.6424 96.4112 87.7679L84.8058 87.6049Z" fill="#5988C6"/>
<g opacity="0.2">
<path d="M84.8058 87.6049C84.8058 87.6049 67.03 89.6687 66.232 97.0171C65.4383 106.596 65.902 103.885 63.7255 126.022L68.9935 126.315C68.9935 126.315 74.3533 108.209 73.6306 101.015C79.5336 101.015 93.0482 101.533 95.0117 96.2067C95.9859 93.5018 96.4601 90.6424 96.4112 87.7679L84.8058 87.6049Z" fill="black"/>
</g>
<path d="M69.1189 127.209L63.0906 126.177L63.2995 123.278L70.1925 124.694L69.1189 127.209Z" fill="#263238"/>
<path d="M63.1698 131.549L66.6874 132.243C66.7516 132.259 66.8076 132.298 66.8446 132.353C66.8817 132.407 66.8971 132.474 66.8879 132.539L66.5955 135.882C66.5908 135.96 66.5703 136.037 66.5351 136.108C66.4998 136.179 66.4507 136.241 66.3906 136.293C66.3305 136.344 66.2607 136.382 66.1853 136.406C66.1099 136.429 66.0306 136.437 65.9521 136.429C64.7323 136.166 64.1557 135.965 62.61 135.66C61.6575 135.472 59.481 135.013 58.1567 134.866C56.8324 134.72 56.9911 133.17 57.5635 133.091C60.1369 132.748 61.599 132.335 62.5766 131.687C62.661 131.625 62.7571 131.581 62.8591 131.557C62.961 131.534 63.0668 131.531 63.1698 131.549Z" fill="#263238"/>
<path d="M61.5907 132.151C61.8676 132.189 62.1477 132.197 62.4263 132.176C62.4404 132.177 62.4542 132.172 62.4656 132.164C62.477 132.156 62.4852 132.144 62.4889 132.13C62.4952 132.118 62.4984 132.104 62.4984 132.09C62.4984 132.077 62.4952 132.063 62.4889 132.051C62.4012 131.963 61.6116 131.215 61.2064 131.299C61.1595 131.306 61.1155 131.327 61.0794 131.358C61.0433 131.389 61.0164 131.429 61.0017 131.474C60.9688 131.54 60.9537 131.613 60.9581 131.686C60.9625 131.76 60.9862 131.831 61.0268 131.892C61.1745 132.047 61.3765 132.14 61.5907 132.151ZM62.2633 132.038C61.6827 132.038 61.2733 131.971 61.1521 131.8C61.1273 131.76 61.1142 131.714 61.1142 131.666C61.1142 131.619 61.1273 131.573 61.1521 131.533C61.1587 131.51 61.171 131.49 61.1879 131.474C61.2048 131.458 61.2255 131.446 61.2482 131.441C61.4612 131.395 61.9375 131.746 62.2633 132.038Z" fill="#5988C6"/>
<path d="M62.4305 132.189H62.4639C62.4758 132.184 62.4866 132.177 62.4953 132.167C62.504 132.158 62.5104 132.147 62.514 132.134C62.514 132.097 62.7438 131.207 62.4764 130.852C62.4439 130.804 62.4002 130.765 62.3493 130.738C62.2983 130.711 62.2416 130.697 62.184 130.697C62.1214 130.688 62.0576 130.701 62.003 130.732C61.9484 130.764 61.9061 130.814 61.8832 130.873C61.7537 131.203 62.113 131.934 62.3929 132.172C62.3974 132.177 62.4032 132.182 62.4097 132.185C62.4162 132.188 62.4233 132.189 62.4305 132.189ZM62.2132 130.848C62.2427 130.852 62.2709 130.862 62.2961 130.878C62.3212 130.894 62.3428 130.915 62.3594 130.939C62.4797 131.27 62.4928 131.629 62.397 131.967C62.1426 131.682 62.008 131.309 62.0211 130.927C62.0211 130.885 62.067 130.839 62.1756 130.843L62.2132 130.848Z" fill="#5988C6"/>
<path d="M78.5727 87.6049C78.4349 87.6049 55.0945 90.0071 55.0652 97.9237C54.167 103.772 51.2761 126.022 51.2761 126.022L56.2099 127.635C56.2099 127.635 63.9218 112.04 63.8006 101.834C70.2217 99.9916 86.8319 103.087 88.7954 97.7649C90.4038 93.4118 89.5348 87.6049 89.5348 87.6049H78.5727Z" fill="#5988C6"/>
<path d="M56.4983 128.207L50.658 126.29L51.1551 123.758L57.6764 125.981L56.4983 128.207Z" fill="#263238"/>
<path d="M50.591 131.165L54.1169 131.9C54.1828 131.921 54.2389 131.966 54.2749 132.025C54.311 132.084 54.3246 132.154 54.3133 132.222L54.0375 135.882C53.9874 136.299 53.7033 136.55 53.3984 136.487C52.1785 136.207 51.602 135.99 50.0563 135.652C49.1038 135.455 46.5095 134.816 45.2019 134.486C43.8943 134.156 44.1867 132.477 44.7841 132.468C47.3701 132.431 49.0453 132.005 50.0396 131.286C50.1181 131.229 50.2076 131.189 50.3026 131.168C50.3975 131.147 50.4957 131.146 50.591 131.165Z" fill="#263238"/>
<path d="M49.1414 131.955C49.3867 131.821 49.6176 131.663 49.8307 131.483C49.8415 131.473 49.8495 131.46 49.8539 131.446C49.8583 131.432 49.8589 131.417 49.8558 131.403C49.8512 131.39 49.8428 131.378 49.8317 131.369C49.8206 131.36 49.8073 131.355 49.7931 131.353C49.672 131.332 48.5942 131.194 48.3143 131.503C48.2838 131.539 48.2625 131.582 48.2523 131.628C48.2422 131.674 48.2433 131.721 48.2558 131.767C48.2675 131.84 48.2984 131.908 48.3453 131.966C48.3923 132.023 48.4537 132.067 48.5231 132.092C48.7392 132.125 48.9597 132.076 49.1414 131.955ZM49.6135 131.466C49.1581 131.825 48.778 131.996 48.5816 131.934C48.5375 131.915 48.4992 131.886 48.4705 131.847C48.4419 131.809 48.424 131.764 48.4187 131.717C48.4119 131.694 48.411 131.671 48.4161 131.648C48.4212 131.625 48.4322 131.604 48.4479 131.587C48.5942 131.441 49.179 131.428 49.6135 131.466Z" fill="#5988C6"/>
<path d="M49.8307 131.483L49.8599 131.457C49.8662 131.447 49.8695 131.436 49.8695 131.424C49.8695 131.412 49.8662 131.401 49.8599 131.391C49.8599 131.361 49.4923 130.505 49.0703 130.375C49.016 130.357 48.958 130.352 48.9013 130.361C48.8446 130.37 48.7908 130.392 48.7445 130.426C48.6884 130.456 48.6441 130.504 48.6191 130.562C48.594 130.621 48.5896 130.686 48.6066 130.747C48.6943 131.09 49.4171 131.466 49.7889 131.491L49.8307 131.483ZM48.8573 130.518C48.8849 130.505 48.9148 130.499 48.945 130.499C48.9752 130.499 49.0051 130.505 49.0327 130.518C49.3268 130.712 49.552 130.994 49.6761 131.324C49.3013 131.244 48.9711 131.024 48.7528 130.71C48.7278 130.676 48.7528 130.609 48.828 130.551L48.8573 130.518Z" fill="#5988C6"/>
<path d="M90.6586 65.3674C91.4337 69.1194 91.7368 72.9535 91.561 76.7807C91.535 77.4509 91.3079 78.0978 90.9093 78.6372C90.5107 79.1766 89.959 79.5836 89.326 79.8053C84.8601 81.3385 73.2922 81.9192 69.5491 81.4471L71.0656 79.8471C71.0656 79.8471 86.9405 76.7473 86.5604 75.5065C86.5604 75.5065 85.8084 67.569 85.3071 66.4076L90.6586 65.3674Z" fill="#FFC3BD"/>
<path d="M71.3914 79.8805L68.701 78.1217L65.9146 80.01C65.9146 80.01 68.0368 81.8356 70.0379 81.3677L71.3914 79.8805Z" fill="#FFC3BD"/>
<path d="M66.2446 78.7358L64.7782 79.868C64.7534 79.8881 64.735 79.9152 64.7254 79.9458C64.7159 79.9763 64.7155 80.009 64.7245 80.0398C64.7334 80.0705 64.7512 80.098 64.7756 80.1187C64.8 80.1394 64.83 80.1524 64.8618 80.1562L66.5913 80.3191L68.6801 78.1217L66.2446 78.7358Z" fill="#FFC3BD"/>
<path d="M78.4934 63.2327C78.8081 63.3056 79.1051 63.4406 79.3669 63.6297C79.6288 63.8189 79.8503 64.0584 80.0183 64.3343C80.1864 64.6102 80.2978 64.9168 80.3458 65.2362C80.3938 65.5557 80.3776 65.8815 80.2981 66.1946C80.1561 66.7628 75.6234 77.3572 75.402 77.7123C73.9064 81.3719 71.2578 81.1296 67.6358 81.2549C64.7615 81.2215 62.6226 81.4638 59.8069 80.8372L60.4962 79.3332C62.4806 79.2497 66.6874 77.7917 69.1564 77.0982C69.6259 76.9872 70.0657 76.7759 70.4458 76.4788C70.8258 76.1817 71.137 75.8058 71.358 75.377C72.5236 72.8705 75.2098 66.4829 75.5941 64.9747C75.7522 64.3612 76.144 63.8337 76.6857 63.5051C77.2274 63.1764 77.8762 63.0727 78.4934 63.216V63.2327Z" fill="#FFC3BD"/>
<path d="M60.6257 79.3541L58.3196 78.3431L56.3854 80.5907C56.3854 80.5907 59.481 81.5766 60.0199 80.6325L60.6257 79.3541Z" fill="#FFC3BD"/>
<path d="M55.5165 80.2314L54.9484 80.7662C54.9166 80.7984 54.8967 80.8405 54.8919 80.8855C54.8871 80.9305 54.8976 80.9758 54.9218 81.0141C54.946 81.0523 54.9825 81.0813 55.0252 81.0962C55.068 81.1111 55.1145 81.1111 55.1572 81.0962L56.4105 80.5907L58.3448 78.3431L56.3061 79.6298C56.0242 79.8045 55.7597 80.0059 55.5165 80.2314Z" fill="#FFC3BD"/>
<path d="M80.929 50.2193L83.3394 51.7191L86.9155 53.6742C86.9263 54.5793 87.0003 55.4824 87.1369 56.3772C87.4252 57.5135 87.8304 58.4284 89.8357 58.6373C89.8357 58.6373 92.4467 60.4838 87.822 61.1856C83.1974 61.8875 81.823 59.807 81.823 59.807C83.3436 57.8268 81.8856 52.7468 80.929 50.2193Z" fill="#FFC3BD"/>
<path d="M89.28 45.3399C89.3636 45.6156 89.5766 45.8078 89.7604 45.7577C89.9443 45.7075 90.0278 45.4443 89.9443 45.1686C89.8607 44.8929 89.6435 44.7049 89.4597 44.7508C89.2758 44.7968 89.1965 45.0642 89.28 45.3399Z" fill="#263238"/>
<path d="M88.01 44.7091C88.038 44.7048 88.0642 44.6928 88.0856 44.6743C88.1071 44.6558 88.1229 44.6317 88.1312 44.6046C88.2071 44.4006 88.3286 44.2167 88.4864 44.0668C88.6443 43.9169 88.8343 43.8051 89.0419 43.7398C89.0638 43.7349 89.0846 43.7257 89.103 43.7127C89.1214 43.6998 89.137 43.6833 89.149 43.6643C89.1611 43.6453 89.1692 43.6241 89.1731 43.602C89.1769 43.5798 89.1763 43.5571 89.1714 43.5351C89.1665 43.5132 89.1573 43.4924 89.1443 43.4741C89.1313 43.4557 89.1149 43.44 89.0959 43.428C89.0769 43.416 89.0557 43.4078 89.0335 43.404C89.0113 43.4001 88.9887 43.4007 88.9667 43.4056C88.7041 43.4836 88.4633 43.6216 88.2632 43.8087C88.0631 43.9957 87.9092 44.2267 87.8137 44.4835C87.7983 44.5257 87.7997 44.5721 87.8176 44.6133C87.8355 44.6545 87.8685 44.6873 87.9098 44.7049C87.9423 44.7146 87.9768 44.716 88.01 44.7091Z" fill="#263238"/>
<path d="M89.4763 45.624C89.9362 46.3057 90.484 46.9237 91.1056 47.4621C90.9639 47.6122 90.7908 47.7293 90.5988 47.8052C90.4068 47.881 90.2004 47.9136 89.9943 47.9008L89.4763 45.624Z" fill="#ED847E"/>
<path d="M79.6339 46.9984C80.8579 50.3405 81.4135 52.4001 83.6736 53.6826C84.6518 54.2612 85.8084 54.4604 86.9238 54.2424C87.5777 54.1124 88.1969 53.8462 88.7411 53.4612C89.3855 52.9956 89.9006 52.3734 90.2376 51.6534C90.5745 50.9334 90.7224 50.1393 90.667 49.3462C90.4999 46.071 88.5197 41.1163 84.7598 40.6359C83.9414 40.5054 83.103 40.5936 82.3296 40.8916C81.5563 41.1896 80.8755 41.6869 80.3563 42.3329C79.8371 42.9789 79.498 43.7507 79.3733 44.5701C79.2486 45.3894 79.3428 46.2272 79.6464 46.9984H79.6339Z" fill="#FFC3BD"/>
<path opacity="0.2" d="M86.9239 54.2341C87.5777 54.1041 88.1969 53.8379 88.7411 53.4529C88.6492 53.4863 87.4878 53.9082 86.8821 53.5991L86.9239 54.2341Z" fill="black"/>
<path d="M78.0172 49.7849C79.2226 51.566 80.6457 53.1897 82.2533 54.6184C83.4314 54.2633 84.4591 54.0628 85.6623 53.7829C86.1302 52.4293 86.2304 48.189 86.6774 47.4663C87.1244 46.7436 88.0351 45.7952 88.4278 45.0516C88.677 44.5266 88.7849 43.9456 88.7409 43.3661C88.697 42.7866 88.5027 42.2286 88.1772 41.7471C87.4974 40.793 86.475 40.1388 85.3239 39.9215C84.3335 39.7241 83.3108 39.7602 82.3369 40.0271C81.363 40.2939 80.4647 40.7842 79.7133 41.4589C79.0612 41.9846 78.6171 42.7249 78.46 43.5477C76.8224 44.6464 76.3461 47.2491 78.0172 49.7849Z" fill="#263238"/>
<path d="M78.272 41.8307C78.1985 42.4036 78.2454 42.9856 78.4098 43.5393C78.2088 43.4783 78.031 43.3578 77.8997 43.1938C77.7685 43.0297 77.69 42.8298 77.6746 42.6203C77.6578 42.2025 77.8876 41.9978 78.272 41.8307Z" fill="#263238"/>
<path d="M85.5953 47.742C85.9785 48.5475 86.6095 49.2093 87.3959 49.6303C88.3776 50.1191 88.7954 49.2125 88.4612 48.0929C88.152 47.0987 87.2873 45.6365 86.3139 45.6198C85.3405 45.6031 85.1024 46.7101 85.5953 47.742Z" fill="#FFC3BD"/>
<path d="M95.112 59.6817C94.7987 58.8461 93.2362 57.856 91.7699 58.0106H90.7965C89.9439 58.024 89.0935 58.1008 88.2523 58.2404C85.8641 58.5022 83.4928 58.9011 81.1504 59.4352C80.0725 59.7193 79.0323 60.0785 78.226 60.3877C77.3905 60.1412 78.1467 67.4312 78.3054 76.3922C78.3806 80.6492 78.4976 84.856 78.6062 87.7553H96.428C96.428 87.7553 96.1857 82.3704 96.2358 76.0789C96.2567 72.3023 96.4029 63.1199 95.112 59.6817Z" fill="#263238"/>
<path opacity="0.2" d="M77.9086 72.131C78.0423 73.731 78.1801 75.4104 78.3263 77.0898C80.1687 71.0573 81.3468 64.9998 81.3468 64.9998L77.9086 72.131Z" fill="black"/>
<path d="M76.5466 61.0854C74.2531 62.9068 71.9846 71.8219 71.9846 71.8219L77.449 74.7211C79.3205 72.2856 82.2699 66.8964 82.2908 64.7742C82.3493 61.5115 79.4667 59.1094 76.5466 61.0854Z" fill="#263238"/>
<path d="M72.1643 136.086C72.166 136.446 72.0608 136.798 71.8621 137.098C71.6634 137.398 71.3802 137.632 71.0483 137.771C70.7164 137.91 70.3507 137.947 69.9977 137.878C69.6446 137.809 69.32 137.636 69.065 137.383C68.81 137.129 68.6361 136.805 68.5653 136.452C68.4945 136.1 68.53 135.734 68.6673 135.401C68.8046 135.069 69.0375 134.784 69.3366 134.584C69.6356 134.384 69.9873 134.277 70.347 134.277C70.5858 134.277 70.8224 134.323 71.0431 134.415C71.2639 134.506 71.4644 134.64 71.6333 134.808C71.8021 134.977 71.936 135.178 72.0271 135.399C72.1182 135.619 72.1649 135.856 72.1643 136.095V136.086Z" fill="#263238"/>
<path d="M99.2728 136.086C99.2728 136.446 99.3794 136.797 99.5791 137.096C99.7788 137.395 100.063 137.628 100.395 137.765C100.727 137.903 101.092 137.939 101.445 137.869C101.797 137.798 102.121 137.625 102.375 137.371C102.629 137.117 102.802 136.793 102.872 136.441C102.943 136.088 102.907 135.723 102.769 135.391C102.631 135.059 102.399 134.775 102.1 134.575C101.801 134.376 101.45 134.269 101.09 134.269C100.608 134.269 100.146 134.46 99.8051 134.801C99.4643 135.142 99.2728 135.604 99.2728 136.086Z" fill="#263238"/>
<path d="M83.9493 135.506C83.9493 135.865 84.0559 136.216 84.2556 136.515C84.4553 136.814 84.7391 137.047 85.0712 137.185C85.4032 137.322 85.7686 137.358 86.1211 137.288C86.4737 137.218 86.7975 137.045 87.0516 136.791C87.3058 136.536 87.4788 136.213 87.549 135.86C87.6191 135.508 87.5831 135.142 87.4455 134.81C87.308 134.478 87.0751 134.194 86.7762 133.995C86.4774 133.795 86.126 133.688 85.7666 133.688C85.2846 133.688 84.8224 133.88 84.4816 134.221C84.1408 134.561 83.9493 135.024 83.9493 135.506Z" fill="#263238"/>
<path d="M103.505 133.229C103.475 133.428 103.373 133.61 103.22 133.74C103.066 133.871 102.871 133.941 102.669 133.939L85.2612 133.68L68.9684 134.098C68.7669 134.1 68.5714 134.029 68.4179 133.899C68.2643 133.768 68.1631 133.587 68.1329 133.388C68.0868 133.166 68.1274 132.935 68.2463 132.742C68.3652 132.55 68.5533 132.41 68.7721 132.351L77.6746 130.467C78.5958 130.279 79.5335 130.184 80.4736 130.183H90.0404C90.9792 130.184 91.9155 130.279 92.8352 130.467L102.862 132.209C103.078 132.266 103.265 132.403 103.385 132.592C103.504 132.781 103.547 133.009 103.505 133.229Z" fill="#263238"/>
<path d="M88.925 114.083H82.4789V130.171H88.925V114.083Z" fill="#263238"/>
<path d="M88.0016 106.596H83.4062V114.079H88.0016V106.596Z" fill="#5988C6"/>
<path opacity="0.2" d="M88.0016 106.596H83.4062V114.079H88.0016V106.596Z" fill="black"/>
<path opacity="0.5" d="M88.0016 106.596H83.4062V114.079H88.0016V106.596Z" fill="black"/>
<path opacity="0.5" d="M83.4062 108.794L88.0016 109.951V106.596H83.4062V108.794Z" fill="black"/>
<path d="M70.1799 89.6687H67.8446V99.6323H70.1799V89.6687Z" fill="#5988C6"/>
<path opacity="0.5" d="M70.1799 89.6687H67.8446V99.6323H70.1799V89.6687Z" fill="black"/>
<path d="M81.8899 106.596V66.1069C81.8896 65.2959 82.0627 64.4942 82.3978 63.7556C82.7329 63.0171 83.222 62.3587 83.8325 61.8248L86.9198 59.1219C87.9605 58.2117 89.297 57.7112 90.6796 57.714H96.357L101.788 63.5126V106.596H81.8899Z" fill="#5988C6"/>
<path d="M65.2837 98.2161H90.7255V106.596H61.1395C60.609 106.596 60.088 106.455 59.6295 106.188C59.1709 105.921 58.791 105.538 58.5281 105.077C58.2653 104.616 58.1288 104.094 58.1325 103.563C58.1363 103.033 58.2801 102.512 58.5494 102.055C59.2414 100.885 60.2265 99.9159 61.4074 99.2426C62.5883 98.5694 63.9244 98.2156 65.2837 98.2161Z" fill="#5988C6"/>
<path opacity="0.7" d="M101.796 63.5167V106.601H61.1395C60.609 106.6 60.088 106.459 59.6295 106.192C59.1709 105.925 58.791 105.542 58.5281 105.081C58.2653 104.62 58.1288 104.098 58.1325 103.567C58.1363 103.037 58.2801 102.517 58.5494 102.06C59.24 100.891 60.223 99.9225 61.4016 99.2494C62.5803 98.5762 63.9139 98.2215 65.2712 98.2203H78.0756C79.085 98.2203 80.053 97.8193 80.7667 97.1056C81.4805 96.3918 81.8814 95.4238 81.8814 94.4145V66.1069C81.8809 65.2964 82.054 64.4953 82.3891 63.7574C82.7242 63.0195 83.2135 62.3619 83.824 61.829L86.9113 59.1261C87.9511 58.2142 89.2882 57.7135 90.6712 57.7182H96.3485L101.796 63.5167Z" fill="white"/>
<path d="M85.5953 106.596V66.1069C85.5958 65.296 85.7694 64.4946 86.1044 63.7561C86.4394 63.0177 86.9281 62.3592 87.5379 61.8248L90.6252 59.1219C91.666 58.2117 93.0024 57.7112 94.3851 57.714H97.6018C98.379 57.7138 99.148 57.8727 99.8614 58.181C100.575 58.4892 101.218 58.9402 101.75 59.5062L103.969 61.8708C104.962 62.9254 105.515 64.3197 105.514 65.7685V102.26C105.514 102.83 105.402 103.393 105.184 103.92C104.966 104.446 104.647 104.924 104.244 105.326C103.841 105.729 103.363 106.048 102.837 106.266C102.311 106.484 101.747 106.596 101.178 106.596H85.5953Z" fill="#5988C6"/>
<path opacity="0.5" d="M85.5953 106.596V66.1069C85.5958 65.296 85.7694 64.4946 86.1044 63.7561C86.4394 63.0177 86.9281 62.3592 87.5379 61.8248L90.6252 59.1219C91.666 58.2117 93.0024 57.7112 94.3851 57.714H97.6018C98.379 57.7138 99.148 57.8727 99.8614 58.181C100.575 58.4892 101.218 58.9402 101.75 59.5062L103.969 61.8708C104.962 62.9254 105.515 64.3197 105.514 65.7685V102.26C105.514 102.83 105.402 103.393 105.184 103.92C104.966 104.446 104.647 104.924 104.244 105.326C103.841 105.729 103.363 106.048 102.837 106.266C102.311 106.484 101.747 106.596 101.178 106.596H85.5953Z" fill="white"/>
<path d="M76.9434 92.6264C71.8035 90.8343 66.2084 90.8343 61.0685 92.6264C60.553 92.8217 59.9837 92.8212 59.4686 92.6248C58.9535 92.4285 58.5283 92.05 58.2736 91.5611C57.7974 90.5543 58.4366 89.2509 59.7316 88.7955C65.7338 86.6982 72.2698 86.6982 78.2719 88.7955C79.567 89.2467 80.2062 90.5543 79.7299 91.5611C79.4747 92.0475 79.0509 92.424 78.5379 92.6201C78.0249 92.8162 77.458 92.8185 76.9434 92.6264Z" fill="#5988C6"/>
<path opacity="0.7" d="M76.9434 92.6264C71.8035 90.8343 66.2084 90.8343 61.0685 92.6264C60.553 92.8217 59.9837 92.8212 59.4686 92.6248C58.9535 92.4285 58.5283 92.05 58.2736 91.5611C57.7974 90.5543 58.4366 89.2509 59.7316 88.7955C65.7338 86.6982 72.2698 86.6982 78.2719 88.7955C79.567 89.2467 80.2062 90.5543 79.7299 91.5611C79.4747 92.0475 79.0509 92.424 78.5379 92.6201C78.0249 92.8162 77.458 92.8185 76.9434 92.6264Z" fill="white"/>
<path d="M106.484 15.1774L117.972 15.0604C118.381 15.0605 118.774 14.8998 119.065 14.6129C119.357 14.3261 119.524 13.9362 119.53 13.5272V1.74216C119.539 1.66858 119.539 1.59432 119.53 1.52074C119.473 1.15592 119.286 0.824036 119.004 0.586109C118.721 0.348181 118.362 0.220197 117.993 0.225679L92.3884 0.380249C91.9791 0.380225 91.5863 0.541663 91.2953 0.829505C91.0044 1.11735 90.8387 1.50835 90.8343 1.91762V13.6985C90.8261 13.7721 90.8261 13.8464 90.8343 13.9199C90.8916 14.2848 91.0787 14.6166 91.3611 14.8546C91.6436 15.0925 92.0024 15.2205 92.3716 15.215H102.766L104.825 21.6653L106.484 15.1774Z" fill="white"/>
<path d="M104.863 22.4047L102.628 15.4072H92.3882C92.1565 15.4195 91.9247 15.3835 91.7077 15.3013C91.4907 15.2191 91.2931 15.0927 91.1277 14.93C90.9622 14.7673 90.8325 14.5719 90.7467 14.3563C90.6609 14.1407 90.621 13.9095 90.6294 13.6776V1.90091C90.637 1.4387 90.8245 0.997672 91.1522 0.671578C91.4798 0.345484 91.9218 0.160036 92.384 0.154659L117.997 8.91704e-05C118.417 -0.00414326 118.824 0.142417 119.144 0.413084C119.465 0.68375 119.677 1.06052 119.743 1.47479C119.752 1.55953 119.752 1.64489 119.743 1.72963V13.5105C119.735 13.9727 119.546 14.4133 119.218 14.7386C118.889 15.0639 118.447 15.2483 117.985 15.2526L106.651 15.3654L104.863 22.4047ZM102.933 14.9894L104.812 20.8924L106.329 14.9685L117.98 14.8515C118.335 14.8516 118.676 14.7117 118.929 14.4623C119.181 14.2128 119.325 13.8739 119.33 13.5189V1.74216C119.336 1.67826 119.336 1.61389 119.33 1.54999C119.28 1.23607 119.118 0.950658 118.875 0.74587C118.632 0.541082 118.323 0.430588 118.005 0.434563L92.4091 0.593311C92.0545 0.593296 91.7142 0.733301 91.4623 0.98287C91.2104 1.23244 91.0672 1.57138 91.0639 1.92598V13.7027C91.0554 13.7665 91.0554 13.8311 91.0639 13.8949C91.1131 14.2084 91.2736 14.4938 91.5161 14.6986C91.7585 14.9035 92.0666 15.0141 92.384 15.0103L102.933 14.9894Z" fill="#5988C6"/>
<path d="M107.862 2.74478H96.307V3.16254H107.862V2.74478Z" fill="#5988C6"/>
<path d="M117.529 2.74478H110.557V3.16254H117.529V2.74478Z" fill="#5988C6"/>
<path d="M99.5696 5.82787H93.2405V6.24564H99.5696V5.82787Z" fill="#5988C6"/>
<path d="M117.095 5.82787H101.826V6.24564H117.095V5.82787Z" fill="#5988C6"/>
<path d="M109.291 8.91096H93.207V9.32872H109.291V8.91096Z" fill="#5988C6"/>
<path d="M117.061 8.91096H111.806V9.32872H117.061V8.91096Z" fill="#5988C6"/>
<path d="M97.4517 11.994H93.274V12.4118H97.4517V11.994Z" fill="#5988C6"/>
<path d="M121.887 17.0657L139.37 16.9111C139.739 16.9058 140.097 17.0339 140.379 17.2719C140.661 17.5099 140.847 17.8417 140.903 18.2062C140.909 18.2799 140.909 18.3539 140.903 18.4276L140.882 30.2085C140.877 30.6174 140.711 31.0078 140.42 31.2954C140.129 31.583 139.737 31.7448 139.328 31.7459L128.249 31.8629C125.872 35.2676 121.941 35.8065 121.941 35.8065C121.941 35.8065 124.159 33.5548 124.564 31.8837H121.882C121.513 31.8884 121.155 31.7601 120.873 31.5223C120.591 31.2845 120.403 30.9531 120.345 30.5887C120.341 30.5149 120.341 30.441 120.345 30.3673V18.5864C120.355 18.1825 120.521 17.7982 120.809 17.5145C121.096 17.2308 121.483 17.0699 121.887 17.0657Z" fill="white"/>
<path d="M121.343 36.1031L121.761 35.6645C121.782 35.6436 123.716 33.6634 124.268 32.101H121.866C121.446 32.1059 121.039 31.9595 120.719 31.6886C120.399 31.4178 120.188 31.0406 120.124 30.6263C120.115 30.5415 120.115 30.4562 120.124 30.3714V18.5947C120.131 18.1325 120.319 17.6915 120.646 17.3654C120.974 17.0393 121.416 16.8538 121.878 16.8484L139.362 16.6939C139.592 16.6871 139.822 16.727 140.036 16.8111C140.251 16.8952 140.447 17.0218 140.611 17.1833C140.776 17.3448 140.906 17.5379 140.994 17.751C141.083 17.9641 141.127 18.1928 141.124 18.4234L141.104 30.2043C141.095 30.6665 140.906 31.1071 140.578 31.4324C140.249 31.7577 139.807 31.9421 139.345 31.9464L128.37 32.0592C126.803 34.1411 124.506 35.553 121.941 36.0112L121.343 36.1031ZM124.811 31.679L124.748 31.938C124.447 33.1913 123.215 34.6994 122.53 35.4639C124.758 34.9042 126.724 33.5905 128.094 31.7459L128.157 31.6581L139.341 31.5412C139.517 31.5423 139.691 31.5087 139.854 31.4423C140.018 31.3759 140.166 31.278 140.291 31.1543C140.417 31.0305 140.516 30.8833 140.585 30.721C140.653 30.5588 140.689 30.3846 140.69 30.2085L140.711 18.4318C140.715 18.3678 140.715 18.3036 140.711 18.2396C140.663 17.9257 140.502 17.6398 140.26 17.4348C140.017 17.2298 139.708 17.1195 139.391 17.1242L121.903 17.2787C121.548 17.2776 121.207 17.4171 120.954 17.6668C120.701 17.9165 120.557 18.2561 120.554 18.6114V30.3881C120.55 30.4521 120.55 30.5163 120.554 30.5803C120.604 30.8935 120.765 31.1783 121.007 31.383C121.249 31.5877 121.557 31.6987 121.874 31.6957L124.811 31.679Z" fill="#5988C6"/>
<path d="M129.047 22.5133H122.718V22.9311H129.047V22.5133Z" fill="#5988C6"/>
<path d="M136.245 19.4302H124.69V19.848H136.245V19.4302Z" fill="#5988C6"/>
<path d="M138.305 22.5133H130.208V22.9311H138.305V22.5133Z" fill="#5988C6"/>
<path d="M137.674 25.5964H121.59V26.0142H137.674V25.5964Z" fill="#5988C6"/>
<path d="M125.834 28.6795H121.657V29.0973H125.834V28.6795Z" fill="#5988C6"/>
<path d="M85.1232 30.0623L84.1122 33.3208L82.7837 30.0038C81.1463 29.6702 79.6931 28.7354 78.7107 27.3836C77.7284 26.0318 77.288 24.361 77.4763 22.7006C77.6647 21.0401 78.4682 19.5105 79.7285 18.4131C80.9888 17.3157 82.6144 16.7302 84.285 16.772C85.9556 16.8138 87.5499 17.4798 88.7538 18.6387C89.9576 19.7977 90.6837 21.3656 90.7889 23.0334C90.8941 24.7012 90.3707 26.3478 89.322 27.6489C88.2733 28.9499 86.7753 29.811 85.1232 30.0623Z" fill="white"/>
<path d="M84.1373 33.9433L82.6334 30.1834C80.9584 29.8145 79.4807 28.8351 78.4885 27.436C77.4963 26.037 77.0606 24.3186 77.2663 22.6158C77.472 20.913 78.3044 19.3478 79.6012 18.2254C80.8981 17.1029 82.5664 16.5035 84.2811 16.544C85.9958 16.5846 87.634 17.2622 88.8763 18.4448C90.1186 19.6274 90.876 21.2302 91.001 22.9408C91.1259 24.6514 90.6094 26.3472 89.5522 27.6978C88.4949 29.0483 86.9726 29.9568 85.282 30.2461L84.1373 33.9433ZM84.1123 16.9529C82.5041 16.9537 80.9535 17.5517 79.7612 18.631C78.569 19.7103 77.8201 21.1939 77.6598 22.7941C77.4995 24.3943 77.9393 25.997 78.8938 27.2914C79.8483 28.5857 81.2494 29.4794 82.8255 29.7991L82.9383 29.82L84.0872 32.6942L84.9603 29.8743L85.0898 29.8534C86.7054 29.6053 88.1678 28.7564 89.1847 27.4766C90.2015 26.1969 90.6977 24.5804 90.5742 22.9505C90.4507 21.3206 89.7165 19.7974 88.5185 18.6855C87.3204 17.5735 85.7468 16.9547 84.1123 16.9529Z" fill="#5988C6"/>
<path d="M84.8016 22.4214C84.8392 22.0036 84.4758 21.7572 83.9452 21.7572C83.6737 21.7578 83.4068 21.8266 83.1688 21.9572C82.9309 22.0879 82.7295 22.2762 82.5833 22.505L81.1128 21.6694C81.7436 20.7462 82.7838 20.1362 84.3254 20.1362C85.9254 20.1362 87.0032 20.8172 86.8946 22.083C86.7526 23.7039 85.0314 23.9421 84.9479 24.8946H83.0888C83.2183 23.541 84.7348 23.1984 84.8016 22.4214ZM82.7128 26.5489C82.7455 26.2443 82.8936 25.9637 83.1267 25.7648C83.3597 25.5659 83.6601 25.4638 83.9661 25.4794C84.1111 25.464 84.2577 25.4809 84.3953 25.529C84.533 25.577 84.6582 25.655 84.7621 25.7573C84.866 25.8596 84.9459 25.9836 84.9961 26.1205C85.0463 26.2574 85.0655 26.4037 85.0523 26.5489C85.0167 26.8575 84.8654 27.1412 84.629 27.3427C84.3925 27.5443 84.0885 27.6487 83.7781 27.6351C83.6333 27.6467 83.4876 27.6265 83.3514 27.5758C83.2152 27.5251 83.0918 27.4451 82.9899 27.3416C82.8879 27.238 82.8099 27.1134 82.7613 26.9764C82.7127 26.8395 82.6947 26.6936 82.7086 26.5489H82.7128Z" fill="#5988C6"/>
<path d="M74.5706 39.8087C74.9467 39.8087 75.2516 39.5038 75.2516 39.1277C75.2516 38.7517 74.9467 38.4468 74.5706 38.4468C74.1945 38.4468 73.8896 38.7517 73.8896 39.1277C73.8896 39.5038 74.1945 39.8087 74.5706 39.8087Z" fill="white"/>
<path d="M74.5705 40.0217C74.3937 40.0217 74.2209 39.9693 74.0738 39.8711C73.9268 39.7728 73.8122 39.6332 73.7446 39.4699C73.6769 39.3065 73.6592 39.1267 73.6937 38.9533C73.7282 38.7799 73.8133 38.6206 73.9384 38.4956C74.0634 38.3705 74.2227 38.2854 74.3961 38.2509C74.5695 38.2164 74.7493 38.2341 74.9126 38.3018C75.076 38.3694 75.2156 38.484 75.3139 38.631C75.4121 38.7781 75.4645 38.9509 75.4645 39.1277C75.4645 39.3648 75.3703 39.5922 75.2027 39.7599C75.035 39.9276 74.8076 40.0217 74.5705 40.0217ZM74.5705 38.6557C74.4762 38.6557 74.3839 38.6837 74.3055 38.7362C74.2271 38.7887 74.1661 38.8634 74.1301 38.9506C74.0942 39.0379 74.085 39.1339 74.1038 39.2264C74.1225 39.3189 74.1682 39.4037 74.2353 39.4702C74.3023 39.5366 74.3875 39.5816 74.4802 39.5995C74.5729 39.6174 74.6687 39.6074 74.7557 39.5707C74.8426 39.534 74.9167 39.4723 74.9686 39.3935C75.0204 39.3146 75.0476 39.2221 75.0468 39.1277C75.0457 39.0022 74.995 38.8821 74.9058 38.7937C74.8166 38.7053 74.6961 38.6557 74.5705 38.6557Z" fill="#5988C6"/>
<path d="M73.2712 36.5418C73.3605 36.6759 73.4203 36.8275 73.4465 36.9865C73.4728 37.1455 73.4649 37.3082 73.4234 37.464C73.3819 37.6197 73.3078 37.7648 73.206 37.8896C73.1041 38.0145 72.9769 38.1163 72.8327 38.1883C72.6885 38.2602 72.5307 38.3007 72.3697 38.3069C72.2086 38.3132 72.0481 38.2852 71.8988 38.2247C71.7494 38.1642 71.6146 38.0726 71.5034 37.9561C71.3921 37.8395 71.3069 37.7006 71.2535 37.5486C69.6502 38.0328 67.9235 37.8976 66.4152 37.1695C64.9069 36.4415 63.7269 35.1738 63.1086 33.6172C62.4904 32.0607 62.4791 30.3288 63.0768 28.7643C63.6746 27.1998 64.8379 25.9166 66.3365 25.1689C67.8351 24.4211 69.5598 24.2632 71.1693 24.7264C72.7788 25.1896 74.1558 26.2401 75.0277 27.67C75.8997 29.1 76.203 30.8051 75.8777 32.4481C75.5525 34.091 74.6223 35.552 73.2712 36.5418Z" fill="white"/>
<path d="M72.323 38.5095C72.0798 38.5082 71.8413 38.4417 71.6326 38.3167C71.4239 38.1918 71.2526 38.0131 71.1366 37.7993C70.544 37.959 69.9331 38.0405 69.3193 38.0416C67.6917 38.0389 66.1178 37.459 64.8775 36.405C63.6372 35.351 62.8111 33.8912 62.546 32.2853C62.2808 30.6794 62.5939 29.0315 63.4296 27.6347C64.2653 26.238 65.5693 25.183 67.1097 24.6573C68.6501 24.1317 70.3271 24.1694 71.8422 24.764C73.3574 25.3585 74.6125 26.4712 75.3844 27.9042C76.1563 29.3372 76.3949 30.9975 76.0577 32.5898C75.7205 34.1821 74.8294 35.6032 73.5429 36.6003C73.6243 36.7772 73.667 36.9695 73.6682 37.1643C73.6671 37.5207 73.525 37.8622 73.273 38.1142C73.021 38.3663 72.6795 38.5084 72.323 38.5095ZM71.3914 37.2896L71.4583 37.4776C71.5052 37.5982 71.577 37.7077 71.6688 37.7989C71.7607 37.8902 71.8706 37.9612 71.9916 38.0074C72.1125 38.0536 72.2418 38.074 72.3711 38.0672C72.5004 38.0604 72.6268 38.0266 72.7423 37.968C72.8577 37.9094 72.9596 37.8273 73.0414 37.7269C73.1232 37.6265 73.1831 37.5102 73.2172 37.3853C73.2513 37.2604 73.2588 37.1297 73.2394 37.0017C73.2199 36.8737 73.1739 36.7512 73.1042 36.6421L72.9956 36.4791L73.1544 36.3622C74.4661 35.4034 75.37 33.9872 75.6873 32.3937C76.0046 30.8003 75.712 29.1458 74.8676 27.7578C74.0231 26.3697 72.6883 25.3493 71.1274 24.8985C69.5665 24.4477 67.8932 24.5994 66.4388 25.3235C64.9843 26.0476 63.8548 27.2914 63.2737 28.8086C62.6925 30.3259 62.7023 32.006 63.3009 33.5164C63.8994 35.0269 65.0433 36.2575 66.506 36.9648C67.9687 37.672 69.6436 37.8043 71.1992 37.3355L71.3914 37.2896Z" fill="#5988C6"/>
<path d="M70.017 30.0205C70.0546 29.6027 69.6911 29.3563 69.1606 29.3563C68.8891 29.3569 68.6221 29.4257 68.3842 29.5563C68.1462 29.687 67.9449 29.8753 67.7986 30.1041L66.3281 29.2685C66.9589 28.3453 67.9992 27.7353 69.5407 27.7353C71.1408 27.7353 72.2186 28.4163 72.11 29.6821C71.9679 31.303 70.2467 31.5412 70.1632 32.4937H68.3167C68.4336 31.1401 69.9501 30.7975 70.017 30.0205ZM67.9282 34.148C67.9609 33.8434 68.1089 33.5628 68.342 33.3639C68.5751 33.165 68.8754 33.0629 69.1814 33.0785C69.3264 33.0631 69.473 33.08 69.6106 33.1281C69.7483 33.1761 69.8736 33.2541 69.9775 33.3564C70.0813 33.4587 70.1613 33.5827 70.2114 33.7196C70.2616 33.8565 70.2808 34.0028 70.2676 34.148C70.232 34.4566 70.0807 34.7403 69.8443 34.9418C69.6079 35.1434 69.3038 35.2479 68.9934 35.2342C68.8486 35.2458 68.703 35.2256 68.5668 35.1749C68.4306 35.1242 68.3072 35.0442 68.2052 34.9407C68.1032 34.8371 68.0252 34.7125 67.9766 34.5756C67.9281 34.4386 67.9101 34.2927 67.924 34.148H67.9282Z" fill="#5988C6"/>
</svg>
