<svg width="162" height="146" viewBox="0 0 162 146" fill="none" xmlns="http://www.w3.org/2000/svg">
<path d="M43.0548 34.7382C64.0548 28.5732 72.2928 -17.2938 102.683 7.08416C124.241 24.3792 110.045 67.8162 82.6758 63.3012C66.1128 60.5682 68.6838 60.2082 54.4488 68.6862C40.0248 77.2932 24.2328 81.7512 9.2598 67.2822C1.5108 59.7822 -1.2402 41.2422 6.6018 31.4652C16.4058 19.2402 30.2268 38.5032 43.0548 34.7382Z" fill="#5988C6"/>
<path opacity="0.9" d="M43.0548 34.7382C64.0548 28.5732 72.2928 -17.2938 102.683 7.08416C124.241 24.3792 110.045 67.8162 82.6758 63.3012C66.1128 60.5682 68.6838 60.2082 54.4488 68.6862C40.0248 77.2932 24.2328 81.7512 9.2598 67.2822C1.5108 59.7822 -1.2402 41.2422 6.6018 31.4652C16.4058 19.2402 30.2268 38.5032 43.0548 34.7382Z" fill="white"/>
<path d="M58.167 142.8C90.2917 142.8 116.334 141.28 116.334 139.404C116.334 137.529 90.2917 136.008 58.167 136.008C26.0423 136.008 0 137.529 0 139.404C0 141.28 26.0423 142.8 58.167 142.8Z" fill="#F5F5F5"/>
<path d="M60.4951 65.0646L60.9991 65.6886L13.0801 103.858L15.1231 106.387L15.4021 106.732L63.3211 68.5626L63.8251 69.1866L64.7221 65.0556L60.4951 65.0646Z" fill="#5988C6"/>
<path opacity="0.7" d="M60.4951 65.0646L60.9991 65.6886L13.0801 103.858L15.1231 106.387L15.4021 106.732L63.3211 68.5626L63.8251 69.1866L64.7221 65.0556L60.4951 65.0646Z" fill="white"/>
<path d="M3.25856 120.193C3.25935 119.775 3.42586 119.374 3.72162 119.078C4.01738 118.782 4.41829 118.616 4.83656 118.615C4.9902 118.615 5.14298 118.638 5.28956 118.684C5.26542 118.523 5.25339 118.361 5.25356 118.198C5.25356 117.759 5.34003 117.325 5.50801 116.92C5.676 116.514 5.92222 116.146 6.23259 115.836C6.54296 115.526 6.91141 115.28 7.31686 115.112C7.72231 114.945 8.15682 114.859 8.59556 114.859C8.79691 114.859 8.9978 114.878 9.19556 114.916C9.52708 114.381 10.0228 113.967 10.6087 113.737C11.1947 113.506 11.8395 113.471 12.4468 113.637C13.0542 113.803 13.5916 114.161 13.9788 114.658C14.3661 115.154 14.5824 115.763 14.5956 116.392H14.6856C15.0574 116.362 15.4316 116.409 15.7844 116.53C16.1373 116.652 16.4611 116.845 16.7355 117.098C17.0099 117.35 17.2289 117.657 17.3787 117.999C17.5285 118.341 17.6058 118.71 17.6058 119.083C17.6058 119.456 17.5285 119.825 17.3787 120.167C17.2289 120.509 17.0099 120.816 16.7355 121.069C16.4611 121.322 16.1373 121.515 15.7844 121.636C15.4316 121.758 15.0574 121.805 14.6856 121.774H4.78556C4.37518 121.762 3.9859 121.589 3.70067 121.294C3.41544 120.999 3.2568 120.604 3.25856 120.193Z" fill="#5988C6"/>
<path opacity="0.8" d="M3.25856 120.193C3.25935 119.775 3.42586 119.374 3.72162 119.078C4.01738 118.782 4.41829 118.616 4.83656 118.615C4.9902 118.615 5.14298 118.638 5.28956 118.684C5.26542 118.523 5.25339 118.361 5.25356 118.198C5.25356 117.759 5.34003 117.325 5.50801 116.92C5.676 116.514 5.92222 116.146 6.23259 115.836C6.54296 115.526 6.91141 115.28 7.31686 115.112C7.72231 114.945 8.15682 114.859 8.59556 114.859C8.79691 114.859 8.9978 114.878 9.19556 114.916C9.52708 114.381 10.0228 113.967 10.6087 113.737C11.1947 113.506 11.8395 113.471 12.4468 113.637C13.0542 113.803 13.5916 114.161 13.9788 114.658C14.3661 115.154 14.5824 115.763 14.5956 116.392H14.6856C15.0574 116.362 15.4316 116.409 15.7844 116.53C16.1373 116.652 16.4611 116.845 16.7355 117.098C17.0099 117.35 17.2289 117.657 17.3787 117.999C17.5285 118.341 17.6058 118.71 17.6058 119.083C17.6058 119.456 17.5285 119.825 17.3787 120.167C17.2289 120.509 17.0099 120.816 16.7355 121.069C16.4611 121.322 16.1373 121.515 15.7844 121.636C15.4316 121.758 15.0574 121.805 14.6856 121.774H4.78556C4.37518 121.762 3.9859 121.589 3.70067 121.294C3.41544 120.999 3.2568 120.604 3.25856 120.193Z" fill="white"/>
<path d="M134.868 98.7316L136.065 100.214L113.79 118.205L118.632 124.199L119.295 125.021L141.567 107.027L142.764 108.509L144.894 98.7106L134.868 98.7316Z" fill="#5988C6"/>
<path opacity="0.5" d="M134.868 98.7316L136.065 100.214L113.79 118.205L118.632 124.199L119.295 125.021L141.567 107.027L142.764 108.509L144.894 98.7106L134.868 98.7316Z" fill="white"/>
<path d="M120.495 124.02C120.036 123.283 119.395 122.676 118.634 122.258C117.872 121.839 117.016 121.623 116.148 121.631C115.279 121.638 114.427 121.868 113.673 122.299C112.918 122.73 112.287 123.348 111.84 124.092C111.436 123.974 111.009 123.952 110.594 124.028C110.179 124.104 109.788 124.276 109.451 124.531C109.115 124.786 108.843 125.115 108.657 125.494C108.472 125.873 108.377 126.29 108.381 126.711H106.947C106.763 126.703 106.579 126.732 106.407 126.796C106.234 126.86 106.077 126.959 105.943 127.086C105.81 127.214 105.704 127.367 105.631 127.536C105.559 127.705 105.521 127.888 105.521 128.072C105.521 128.256 105.559 128.438 105.631 128.608C105.704 128.777 105.81 128.93 105.943 129.057C106.077 129.184 106.234 129.283 106.407 129.348C106.579 129.412 106.763 129.441 106.947 129.432H111.912C112.322 130.08 112.873 130.626 113.524 131.03C114.175 131.434 114.909 131.685 115.671 131.765C116.433 131.845 117.203 131.751 117.924 131.491C118.645 131.231 119.297 130.812 119.832 130.263C119.918 130.268 120.004 130.268 120.09 130.263C120.889 130.265 121.658 129.962 122.242 129.417C122.826 128.872 123.18 128.125 123.233 127.328C123.286 126.531 123.034 125.744 122.528 125.126C122.022 124.509 121.299 124.107 120.507 124.002L120.495 124.02Z" fill="#5988C6"/>
<path opacity="0.8" d="M120.495 124.02C120.036 123.283 119.395 122.676 118.634 122.258C117.872 121.839 117.016 121.623 116.148 121.631C115.279 121.638 114.427 121.868 113.673 122.299C112.918 122.73 112.287 123.348 111.84 124.092C111.436 123.974 111.009 123.952 110.594 124.028C110.179 124.104 109.788 124.276 109.451 124.531C109.115 124.786 108.843 125.115 108.657 125.494C108.472 125.873 108.377 126.29 108.381 126.711H106.947C106.763 126.703 106.579 126.732 106.407 126.796C106.234 126.86 106.077 126.959 105.943 127.086C105.81 127.214 105.704 127.367 105.631 127.536C105.559 127.705 105.521 127.888 105.521 128.072C105.521 128.256 105.559 128.438 105.631 128.608C105.704 128.777 105.81 128.93 105.943 129.057C106.077 129.184 106.234 129.283 106.407 129.348C106.579 129.412 106.763 129.441 106.947 129.432H111.912C112.322 130.08 112.873 130.626 113.524 131.03C114.175 131.434 114.909 131.685 115.671 131.765C116.433 131.845 117.203 131.751 117.924 131.491C118.645 131.231 119.297 130.812 119.832 130.263C119.918 130.268 120.004 130.268 120.09 130.263C120.889 130.265 121.658 129.962 122.242 129.417C122.826 128.872 123.18 128.125 123.233 127.328C123.286 126.531 123.034 125.744 122.528 125.126C122.022 124.509 121.299 124.107 120.507 124.002L120.495 124.02Z" fill="white"/>
<path d="M78.9138 39.9434L78.4818 39.4784C78.4246 39.4181 78.3531 39.3733 78.2739 39.3481C78.1947 39.3229 78.1103 39.3182 78.0288 39.3344L77.3718 39.4784C77.2691 39.4988 77.1754 39.5509 77.1039 39.6273C77.0323 39.7037 76.9865 39.8006 76.9728 39.9044L76.6428 42.6044L77.6448 42.9914C78.8688 42.4574 78.8058 40.8434 78.8058 40.8434L78.9798 40.5224C79.0315 40.4313 79.0529 40.3262 79.0411 40.2222C79.0292 40.1181 78.9846 40.0205 78.9138 39.9434Z" fill="#FFB573"/>
<path d="M62.8448 49.2129C62.8448 49.2129 63.8078 49.2699 64.3718 49.2579C64.9358 49.2459 65.5058 49.2399 66.0608 49.2069C66.6158 49.1739 67.1648 49.1319 67.6688 49.0629C67.8992 49.0321 68.1275 48.988 68.3528 48.9309L68.5688 48.8619C68.6348 48.8319 68.5688 48.8829 68.5988 48.8619C68.7549 48.7059 68.9002 48.5396 69.0338 48.3639C69.1988 48.1539 69.3638 47.9289 69.5288 47.7009C69.8588 47.2419 70.1828 46.7649 70.5098 46.2849L72.4688 43.3779L74.0018 44.1909C73.7768 44.7519 73.5308 45.2919 73.2878 45.8379C73.0448 46.3839 72.7748 46.9179 72.5108 47.4549C72.2468 47.9919 71.9588 48.5259 71.6528 49.0599C71.4998 49.3269 71.3528 49.5939 71.1668 49.8669C70.9717 50.1812 70.7488 50.4774 70.5008 50.7519C70.3008 50.9602 70.0689 51.1354 69.8138 51.2709C69.6206 51.3744 69.42 51.4636 69.2138 51.5379C68.8773 51.662 68.5324 51.7622 68.1818 51.8379C67.556 51.9793 66.9217 52.0795 66.2828 52.1379C65.06 52.2624 63.8306 52.3104 62.6018 52.2819L62.8448 49.2129Z" fill="#5988C6"/>
<path opacity="0.7" d="M74.0148 44.204C73.7898 44.762 73.5468 45.302 73.3038 45.848C73.0608 46.394 72.7908 46.928 72.5238 47.468C72.2568 48.008 71.9748 48.536 71.6688 49.07C71.5158 49.337 71.3688 49.604 71.1798 49.877C70.987 50.192 70.765 50.4883 70.5168 50.762C70.3119 50.9703 70.0749 51.1446 69.8148 51.278C69.6219 51.3829 69.4213 51.4732 69.2148 51.548C68.8788 51.6703 68.535 51.7705 68.1858 51.848C67.5598 51.9879 66.9255 52.0881 66.2868 52.148C66.0198 52.175 65.7558 52.196 65.4948 52.217C64.5318 52.286 63.5838 52.31 62.6058 52.289L62.6538 51.659L62.8428 49.238C62.8428 49.238 63.8028 49.298 64.3668 49.283C64.9308 49.268 65.5008 49.265 66.0588 49.232C66.6168 49.199 67.1628 49.16 67.6668 49.088C67.8976 49.0595 68.1261 49.0154 68.3508 48.956C68.4243 48.9378 68.4964 48.9147 68.5668 48.887C68.6328 48.857 68.5668 48.911 68.5968 48.887C68.7529 48.731 68.8983 48.5646 69.0318 48.389C69.1968 48.179 69.3618 47.954 69.5238 47.726C69.8538 47.267 70.1808 46.79 70.5078 46.31L72.4668 43.403L74.0148 44.204Z" fill="white"/>
<path opacity="0.1" d="M65.499 55.2161C64.536 55.2851 63.588 55.309 62.61 55.288L62.658 54.6581L62.892 54.106C63.8717 54.1256 64.8059 54.5234 65.499 55.2161Z" fill="black"/>
<path d="M37.9731 124.97C37.9731 124.97 35.2731 123.101 35.4231 121.847C35.4287 121.818 35.4282 121.788 35.4217 121.759C35.4152 121.731 35.4028 121.704 35.3853 121.68C35.3679 121.656 35.3457 121.637 35.3202 121.622C35.2947 121.607 35.2664 121.598 35.2371 121.595L32.9361 121.247C32.8799 121.236 32.8218 121.242 32.7686 121.263C32.7154 121.284 32.6695 121.32 32.6361 121.367L31.2861 123.284L31.8861 123.503L32.2131 123.275L32.3691 123.68C35.6841 124.88 37.1301 125.363 37.8621 125.393C38.0781 125.135 37.9731 124.97 37.9731 124.97Z" fill="black"/>
<path d="M53.7558 76.1044C53.7558 76.1044 53.6178 76.4644 53.3748 77.0884C53.1138 77.7634 52.7298 78.7474 52.2678 79.9174C51.9678 80.6974 51.6168 81.5614 51.2478 82.4704C49.5528 86.6704 47.3628 91.8934 45.9138 94.5244C43.1388 99.5584 35.9088 109.119 35.9088 109.119L33.0198 108.063C33.0198 108.063 38.2218 98.2174 40.8468 93.2284C41.8419 91.2139 42.7193 89.1434 43.4748 87.0274C43.9098 85.8664 44.3418 84.6574 44.7588 83.4604C44.9478 82.9204 45.1338 82.3804 45.3138 81.8494C45.7908 80.4454 46.2378 79.0924 46.6308 77.8864C46.6788 77.7364 46.7268 77.5864 46.7748 77.4424C46.9338 76.9474 47.0748 76.4794 47.2188 76.0474C47.7828 74.2714 48.1338 73.1014 48.1458 73.0474L50.7228 74.4514L53.7558 76.1044Z" fill="#263238"/>
<path opacity="0.3" d="M57.9854 78.266C57.7244 78.941 57.3404 79.925 56.8784 81.095C56.5784 81.875 56.2274 82.739 55.8584 83.648C53.5004 84.122 51.1004 84.443 49.3754 84.638C49.5644 84.098 49.7504 83.558 49.9304 83.027C50.4074 81.623 50.8544 80.27 51.2474 79.064C51.2954 78.914 51.3434 78.764 51.3914 78.62C51.5504 78.125 51.6914 77.657 51.8354 77.225C53.5694 77.462 55.8854 77.816 57.9854 78.266Z" fill="black"/>
<path d="M49.0411 53.084C49.4564 54.5923 49.7227 56.1377 49.8361 57.698C49.9411 58.943 49.9801 60.167 49.9861 61.268C49.9921 62.369 49.9561 63.353 49.9201 64.103C49.8721 65.069 49.8151 65.66 49.8151 65.66L58.9291 66.131C61.6651 56.231 59.0191 51.479 59.0191 51.479C58.2072 51.4079 57.3915 51.3888 56.5771 51.422C56.4091 51.422 56.2351 51.44 56.0611 51.455C54.6893 51.6127 53.3279 51.8511 51.9841 52.169C51.7411 52.223 51.4951 52.286 51.2551 52.349C50.0671 52.673 49.0411 53.084 49.0411 53.084Z" fill="#5988C6"/>
<path opacity="0.7" d="M58.9343 66.1286L49.8203 65.6606C49.8203 65.6606 49.8773 65.0606 49.9253 64.1006C49.9253 63.8186 49.9493 63.5006 49.9613 63.1496C49.9793 62.5886 49.9913 61.9496 49.9913 61.2656C49.9913 60.9326 49.9913 60.5876 49.9733 60.2336C49.9733 60.1766 49.9733 60.1196 49.9733 60.0626C49.9583 59.5016 49.9313 58.9196 49.8923 58.3286C49.8743 58.1186 49.8593 57.9086 49.8413 57.6986C49.8413 57.5336 49.8143 57.3656 49.7993 57.2006C49.7543 56.7806 49.7063 56.3606 49.6463 55.9466C49.6313 55.8326 49.6133 55.7186 49.5953 55.6076C49.5683 55.4186 49.5383 55.2356 49.5053 55.0496C49.3888 54.3849 49.2366 53.7269 49.0493 53.0786C49.0493 53.0786 50.0783 52.6766 51.2693 52.3496C51.5063 52.2866 51.7523 52.2236 51.9953 52.1696C53.3395 51.8537 54.7008 51.6153 56.0723 51.4556C56.2493 51.4556 56.4203 51.4286 56.5913 51.4256C57.4056 51.3907 58.2213 51.4088 59.0333 51.4796C59.0333 51.4796 61.6703 56.2136 58.9343 66.1286Z" fill="white"/>
<path d="M68.0808 103.359C68.0808 103.359 65.4768 101.337 65.7168 100.095C65.7238 100.066 65.7249 100.037 65.72 100.008C65.7151 99.9786 65.7043 99.9508 65.6883 99.9261C65.6723 99.9014 65.6514 99.8802 65.6269 99.8638C65.6024 99.8475 65.5748 99.8363 65.5458 99.831L63.2658 99.351C63.211 99.3387 63.1538 99.342 63.1007 99.3605C63.0477 99.3791 63.0009 99.4122 62.9658 99.456L61.4988 101.283L62.0988 101.538L62.4378 101.328L62.5698 101.739C65.8128 103.128 67.2288 103.695 67.9698 103.767C68.1768 103.521 68.0808 103.359 68.0808 103.359Z" fill="black"/>
<path d="M53.9627 78.8868H54.1757L65.1047 80.4768L58.8767 90.7998L61.9907 91.9998C61.9907 91.9998 73.2557 79.8558 70.7387 77.0868C68.6687 74.8098 58.5287 73.4238 58.5287 73.4238L58.8617 71.0478L49.4897 69.1998C45.4787 77.9658 52.6217 78.7998 53.9627 78.8868Z" fill="#263238"/>
<path d="M49.7321 70.2197L49.5341 70.1807L49.7141 69.5507L49.8911 69.5837L49.7321 70.2197Z" fill="#263238"/>
<path d="M58.5102 71.9174L54.5052 71.1434L54.6613 70.5074L58.6512 71.2814L58.5102 71.9174Z" fill="#263238"/>
<path d="M60.6562 71.6688L62.3482 71.9958L62.2342 72.6378L60.5212 72.3048L60.6562 71.6688Z" fill="#263238"/>
<path d="M50.4013 69.6802L53.1553 70.2142L52.9933 70.8472L50.2483 70.3162L50.4013 69.6802Z" fill="#263238"/>
<g opacity="0.2">
<path d="M49.7321 70.2197L49.5341 70.1807L49.7141 69.5507L49.8911 69.5837L49.7321 70.2197Z" fill="white"/>
<path d="M58.5106 71.9174L54.5056 71.1434L54.6616 70.5074L58.6516 71.2814L58.5106 71.9174Z" fill="white"/>
<path d="M60.6562 71.6688L62.3482 71.9958L62.2342 72.6378L60.5212 72.3048L60.6562 71.6688Z" fill="white"/>
<path d="M50.4013 69.6802L53.1553 70.2142L52.9933 70.8472L50.2483 70.3162L50.4013 69.6802Z" fill="white"/>
</g>
<path d="M57.7734 71.8228H57.7374L56.7354 71.6428C56.7073 71.6384 56.6805 71.6281 56.6568 71.6126C56.633 71.597 56.6127 71.5767 56.5974 71.5528C56.5814 71.5293 56.5707 71.5027 56.566 71.4747C56.5613 71.4468 56.5628 71.4181 56.5704 71.3908L56.6694 70.9888C56.6816 70.937 56.7135 70.8921 56.7583 70.8635C56.8031 70.8349 56.8573 70.825 56.9094 70.8358L57.9024 71.0278C57.93 71.0322 57.9564 71.0425 57.9797 71.0581C58.003 71.0736 58.0227 71.094 58.0374 71.1178C58.0526 71.141 58.0629 71.1671 58.0675 71.1944C58.0722 71.2218 58.0711 71.2498 58.0644 71.2768L57.9744 71.6638C57.9636 71.709 57.9379 71.7493 57.9015 71.7781C57.865 71.807 57.8199 71.8227 57.7734 71.8228ZM56.8734 71.0038C56.8665 71.0041 56.8599 71.0066 56.8545 71.011C56.8492 71.0153 56.8453 71.0211 56.8434 71.0278L56.7444 71.4298C56.7427 71.4335 56.7419 71.4376 56.7419 71.4418C56.7419 71.4459 56.7427 71.45 56.7444 71.4538C56.7477 71.4552 56.7513 71.4559 56.7549 71.4559C56.7585 71.4559 56.7621 71.4552 56.7654 71.4538L57.7674 71.6338C57.7752 71.6342 57.7829 71.6321 57.7894 71.6278C57.7959 71.6234 57.8008 71.6171 57.8034 71.6098L57.8934 71.2228C57.8952 71.219 57.8962 71.2149 57.8962 71.2108C57.8962 71.2066 57.8952 71.2025 57.8934 71.1988C57.8907 71.1972 57.8876 71.1964 57.8844 71.1964C57.8812 71.1964 57.8781 71.1972 57.8754 71.1988L56.8824 71.0038H56.8734Z" fill="white"/>
<path d="M57.227 71.4991H57.212L56.912 71.4451C56.9005 71.4433 56.8895 71.4392 56.8796 71.433C56.8697 71.4269 56.8611 71.4188 56.8544 71.4093C56.8477 71.3998 56.843 71.389 56.8405 71.3777C56.838 71.3663 56.8378 71.3545 56.84 71.3431C56.8414 71.3314 56.8452 71.3201 56.8512 71.31C56.8573 71.2999 56.8654 71.2912 56.875 71.2844C56.8846 71.2776 56.8955 71.2729 56.9071 71.2706C56.9186 71.2683 56.9305 71.2685 56.942 71.2711L57.242 71.3251C57.2535 71.3269 57.2645 71.331 57.2744 71.3371C57.2843 71.3433 57.2929 71.3514 57.2996 71.3609C57.3063 71.3704 57.311 71.3811 57.3135 71.3925C57.316 71.4039 57.3161 71.4157 57.314 71.4271C57.3099 71.4472 57.299 71.4653 57.2832 71.4784C57.2674 71.4915 57.2475 71.4988 57.227 71.4991Z" fill="white"/>
<path d="M54.3783 46.7033L56.7573 48.6773C56.5263 49.6433 56.9313 50.5343 57.3993 50.6993C57.3993 50.6993 57.7473 51.5273 57.0783 51.6653C55.7193 51.9473 54.1713 50.6333 54.1713 50.6333C54.8913 49.8623 54.6303 47.9363 54.3783 46.7033Z" fill="#EBB376"/>
<path opacity="0.2" d="M55.7914 47.8229L57.2014 48.9899C57.1417 49.214 57.1015 49.4429 57.0814 49.6739C56.5534 49.6049 55.8244 49.0409 55.7644 48.4889C55.7345 48.267 55.7436 48.0416 55.7914 47.8229Z" fill="black"/>
<path d="M57.1635 41.2347C57.7395 41.5947 58.5195 42.6777 57.5505 42.9387C56.5815 43.1997 56.1705 40.6167 57.1635 41.2347Z" fill="#263238"/>
<path d="M53.0592 44.9793C54.0672 46.3053 54.5892 47.1363 55.7592 47.3793C57.5202 47.7393 58.7982 45.9453 58.2072 44.3373C57.6732 42.8913 56.1072 40.9623 54.4002 41.3373C54.0223 41.4197 53.6711 41.596 53.3793 41.85C53.0875 42.104 52.8645 42.4275 52.7308 42.7905C52.5972 43.1535 52.5572 43.5444 52.6146 43.927C52.672 44.3096 52.8249 44.6715 53.0592 44.9793Z" fill="#FFB573"/>
<path d="M52.7695 43.8563L51.5695 42.4463C51.5695 42.4463 49.9705 43.6223 50.6965 44.3333C50.2195 45.4583 52.1185 47.0333 53.7805 46.7093C53.9755 45.6923 52.4935 43.9583 52.4935 43.9583C52.5871 43.9289 52.6792 43.8948 52.7695 43.8563Z" fill="#263238"/>
<path d="M53.451 48.0202C53.613 48.1494 53.799 48.2451 53.9983 48.3018C54.1977 48.3584 54.4063 48.3749 54.612 48.3502C55.161 48.2812 55.212 47.7322 54.897 47.3212C54.582 46.9102 53.955 46.5442 53.487 46.8202C53.3866 46.8833 53.3032 46.9702 53.2443 47.0731C53.1854 47.1761 53.1527 47.292 53.1491 47.4106C53.1456 47.5291 53.1712 47.6468 53.2239 47.7531C53.2765 47.8594 53.3545 47.9511 53.451 48.0202Z" fill="#FFB573"/>
<path d="M56.4928 44.8444C56.5678 44.9554 56.6908 45.0064 56.7628 44.9584C56.8348 44.9104 56.8348 44.7754 56.7628 44.6584C56.6908 44.5414 56.5678 44.4964 56.4928 44.5444C56.4178 44.5924 56.4178 44.7424 56.4928 44.8444Z" fill="#263238"/>
<path d="M58.26 43.6574C58.338 43.7714 58.458 43.8224 58.53 43.7714C58.602 43.7204 58.602 43.5884 58.53 43.4714C58.458 43.3544 58.335 43.3064 58.26 43.3574C58.185 43.4084 58.185 43.5434 58.26 43.6574Z" fill="#263238"/>
<path d="M57.7722 44.2426C58.1333 44.4828 58.5261 44.6716 58.9392 44.8036C58.8612 45.1036 58.4652 45.2566 58.4652 45.2566L57.7722 44.2426Z" fill="#ED893E"/>
<path d="M57.2204 46.6616C57.1678 46.6893 57.1176 46.7214 57.0704 46.7576C57.0635 46.7649 57.0596 46.7746 57.0596 46.7846C57.0596 46.7947 57.0635 46.8044 57.0704 46.8116C57.0738 46.8155 57.078 46.8185 57.0826 46.8206C57.0873 46.8227 57.0923 46.8238 57.0974 46.8238C57.1025 46.8238 57.1076 46.8227 57.1122 46.8206C57.1169 46.8185 57.1211 46.8155 57.1244 46.8116C57.2581 46.7088 57.4144 46.6393 57.5803 46.609C57.7463 46.5788 57.917 46.5886 58.0784 46.6376C58.0833 46.6395 58.0886 46.6404 58.0939 46.6402C58.0991 46.64 58.1043 46.6388 58.1091 46.6365C58.1138 46.6343 58.1181 46.6311 58.1216 46.6272C58.1251 46.6232 58.1278 46.6186 58.1294 46.6136C58.1334 46.6041 58.1334 46.5934 58.1295 46.5838C58.1256 46.5742 58.118 46.5666 58.1084 46.5626C57.9615 46.5174 57.8069 46.5029 57.6542 46.5199C57.5014 46.537 57.3538 46.5852 57.2204 46.6616Z" fill="#263238"/>
<path d="M55.2778 44.274C55.2919 44.2748 55.306 44.2719 55.3186 44.2655C55.3312 44.2592 55.342 44.2497 55.3498 44.238C55.4026 44.1536 55.4743 44.0826 55.5591 44.0306C55.644 43.9786 55.7397 43.9468 55.8388 43.938C55.8494 43.9384 55.86 43.9366 55.8699 43.9327C55.8798 43.9287 55.8887 43.9227 55.8961 43.9151C55.9035 43.9074 55.9091 43.8983 55.9127 43.8882C55.9163 43.8782 55.9177 43.8676 55.9168 43.857C55.9168 43.8363 55.9086 43.8164 55.894 43.8018C55.8793 43.7872 55.8595 43.779 55.8388 43.779C55.712 43.7884 55.5893 43.8279 55.4808 43.8941C55.3723 43.9604 55.2811 44.0515 55.2148 44.16C55.2035 44.1779 55.1996 44.1996 55.2041 44.2204C55.2086 44.2411 55.2211 44.2593 55.2388 44.271C55.2512 44.2759 55.2648 44.2769 55.2778 44.274Z" fill="#263238"/>
<path d="M58.0507 42.3174C58.0552 42.3017 58.0552 42.285 58.0507 42.2693C58.0444 42.2492 58.0306 42.2324 58.0121 42.2223C57.9936 42.2122 57.9719 42.2097 57.9517 42.2154C57.8297 42.2461 57.717 42.3058 57.623 42.3893C57.529 42.4729 57.4565 42.5779 57.4117 42.6953C57.4058 42.7156 57.4077 42.7374 57.4172 42.7563C57.4266 42.7752 57.4429 42.7899 57.4627 42.7974C57.4725 42.8006 57.4829 42.8019 57.4932 42.8011C57.5036 42.8002 57.5136 42.7974 57.5229 42.7926C57.5321 42.7879 57.5403 42.7813 57.5469 42.7734C57.5536 42.7655 57.5586 42.7563 57.5617 42.7463C57.5977 42.6531 57.6559 42.57 57.7311 42.5041C57.8063 42.4383 57.8964 42.3917 57.9937 42.3683C58.0067 42.3655 58.0189 42.3593 58.0288 42.3503C58.0388 42.3414 58.0463 42.33 58.0507 42.3174Z" fill="#263238"/>
<path d="M52.4208 43.0309C52.4208 43.0309 55.5888 41.6989 55.7838 40.1809C55.9788 38.6629 54.6378 39.2809 54.6378 39.2809C54.6378 39.2809 55.2588 39.2389 55.1988 39.6889C55.1988 39.6889 54.1278 38.9599 53.0988 39.5869C53.2383 39.5871 53.3759 39.6181 53.502 39.6777C53.628 39.7374 53.7393 39.8242 53.8278 39.9319C53.0825 40.12 52.3833 40.4578 51.7728 40.9249C50.6958 41.7349 48.7428 44.6179 52.4208 43.0309Z" fill="#263238"/>
<path opacity="0.3" d="M60.5334 74.7141L55.3704 74.1141C57.1192 73.883 58.8855 73.8107 60.6474 73.8981L60.5334 74.7141Z" fill="black"/>
<path opacity="0.1" d="M50.1028 59.8592C50.0848 59.6492 50.0698 59.4392 50.0518 59.2292C50.0518 59.0642 50.0248 58.8962 50.0098 58.7312C49.9648 58.3112 49.9168 57.8912 49.8568 57.4772C49.8418 57.3632 49.8238 57.2492 49.8058 57.1382C49.9481 57.0256 50.0996 56.9253 50.2588 56.8382C50.4233 57.8448 50.3701 58.8749 50.1028 59.8592Z" fill="black"/>
<path d="M37.8886 71.2886L36.9886 73.3886L38.9296 73.8686C38.9296 73.8686 39.7637 72.4856 38.9507 71.4296L37.8886 71.2886Z" fill="#EBB376"/>
<path d="M37.1308 75.861L38.6638 75.873L38.9338 74.718L36.9928 74.238L37.1308 75.861Z" fill="#EBB376"/>
<path d="M46.9125 55.1697C47.0475 56.4897 46.5945 57.0267 46.5945 57.0267C46.5945 57.0267 45.3165 57.8307 44.7615 58.2417C44.2905 58.5987 43.8285 58.9587 43.3905 59.3187C43.1745 59.5017 42.9645 59.6847 42.7725 59.8677C42.6016 60.0282 42.4412 60.1995 42.2925 60.3807C42.2375 60.4571 42.1864 60.5362 42.1395 60.6177C42.0855 60.7047 42.0285 60.8367 41.9685 60.9447C41.8515 61.1847 41.7345 61.4427 41.6235 61.7097C41.4015 62.2467 41.1915 62.8047 40.9935 63.3717C40.5765 64.4997 40.1895 65.6637 39.7935 66.8067L38.0205 66.3837C38.2005 65.1417 38.4435 63.9267 38.7255 62.6997C38.8725 62.0997 39.0255 61.4757 39.2265 60.8517C39.3195 60.5517 39.4245 60.2247 39.5445 59.9007C39.6165 59.7297 39.6765 59.5767 39.7665 59.3937C39.854 59.2012 39.9542 59.0148 40.0665 58.8357C40.2805 58.5174 40.5192 58.2165 40.7805 57.9357C41.0175 57.6777 41.2545 57.4407 41.4945 57.2097C41.9715 56.7537 42.4605 56.3367 42.9585 55.9347C43.9515 55.1277 44.9475 54.3897 46.0155 53.6757C46.0245 53.6847 46.7925 53.9757 46.9125 55.1697Z" fill="#5988C6"/>
<path opacity="0.7" d="M46.9125 55.1697C47.0475 56.4897 46.5945 57.0267 46.5945 57.0267C46.5945 57.0267 45.3165 57.8307 44.7615 58.2417C44.2905 58.5987 43.8285 58.9587 43.3905 59.3187C43.1745 59.5017 42.9645 59.6847 42.7725 59.8677C42.6016 60.0282 42.4412 60.1995 42.2925 60.3807C42.2375 60.4571 42.1864 60.5362 42.1395 60.6177C42.0855 60.7047 42.0285 60.8367 41.9685 60.9447C41.8515 61.1847 41.7345 61.4427 41.6235 61.7097C41.4015 62.2467 41.1915 62.8047 40.9935 63.3717C40.5765 64.4997 40.1895 65.6637 39.7935 66.8067L38.0205 66.3837C38.2005 65.1417 38.4435 63.9267 38.7255 62.6997C38.8725 62.0997 39.0255 61.4757 39.2265 60.8517C39.3195 60.5517 39.4245 60.2247 39.5445 59.9007C39.6165 59.7297 39.6765 59.5767 39.7665 59.3937C39.854 59.2012 39.9542 59.0148 40.0665 58.8357C40.2805 58.5174 40.5192 58.2165 40.7805 57.9357C41.0175 57.6777 41.2545 57.4407 41.4945 57.2097C41.9715 56.7537 42.4605 56.3367 42.9585 55.9347C43.9515 55.1277 44.9475 54.3897 46.0155 53.6757C46.0245 53.6847 46.7925 53.9757 46.9125 55.1697Z" fill="white"/>
<path d="M53.4969 53.1336L54.1629 54.1806C54.1629 54.1806 51.8379 57.0006 47.3859 57.9306L47.0859 58.8306L48.0339 59.0796C48.0339 59.0796 52.8339 57.8346 54.7599 54.2286L55.7499 53.1246L54.5829 52.7316L53.4969 53.1336Z" fill="#5988C6"/>
<path d="M53.0098 51.9984L54.0958 51.0504L56.2528 52.2324L56.5048 50.9394L57.6448 51.5934L57.9718 53.2704L56.3788 52.5804L54.9568 53.8524L53.0098 51.9984Z" fill="#5988C6"/>
<path opacity="0.6" d="M53.0098 51.9984L54.0958 51.0504L56.2528 52.2324L56.5048 50.9394L57.6448 51.5934L57.9718 53.2704L56.3788 52.5804L54.9568 53.8524L53.0098 51.9984Z" fill="white"/>
<path d="M91.559 26.2831C91.559 26.2831 89.54 28.785 87.494 28.578C85.448 28.371 84.4009 29.202 84.4009 29.202L84.2 30.2011L85.298 30.051C85.298 30.051 85.298 29.2591 87.434 29.3491C89.57 29.4391 91.172 27.603 91.796 26.769L91.559 26.2831Z" fill="#5988C6"/>
<path d="M110.537 19.6631L110.495 19.4651C110.477 19.3684 110.449 19.2739 110.411 19.1831C110.304 18.912 110.137 18.6689 109.922 18.4721C109.656 18.2319 109.343 18.0482 109.004 17.9321C108.575 17.7802 108.13 17.6795 107.678 17.6321C107.279 17.5871 106.898 17.5661 106.523 17.5571C105.776 17.5361 105.056 17.5571 104.345 17.6171C102.929 17.7111 101.519 17.8804 100.121 18.1241L100.637 21.0791C101.93 20.8751 103.28 20.6861 104.585 20.5511C105.239 20.4821 105.89 20.4431 106.517 20.4221C106.817 20.4221 107.138 20.4221 107.417 20.4221C107.599 20.4318 107.78 20.4518 107.96 20.4821C107.966 20.592 107.966 20.7021 107.96 20.8121C107.921 21.3898 107.813 21.9609 107.639 22.5131C107.259 23.7607 106.774 24.974 106.19 26.1401L107.615 27.0881C108.526 25.9477 109.291 24.698 109.892 23.3681C110.221 22.6415 110.449 21.8734 110.57 21.0851C110.634 20.6123 110.623 20.1323 110.537 19.6631Z" fill="#5988C6"/>
<path opacity="0.7" d="M110.562 21.0957C110.467 21.7538 110.29 22.3976 110.037 23.0127C109.989 23.1357 109.938 23.2587 109.887 23.3787C109.285 24.7078 108.519 25.9565 107.607 27.0957L106.2 26.1537C106.791 24.9963 107.284 23.7922 107.676 22.5537C107.795 22.1606 107.887 21.7596 107.949 21.3537C107.975 21.1908 107.991 21.0265 107.997 20.8617C108.004 20.7518 108.004 20.6416 107.997 20.5317C107.818 20.5015 107.636 20.4815 107.454 20.4717C107.154 20.4537 106.854 20.4537 106.554 20.4717H106.485C105.885 20.4927 105.252 20.5347 104.619 20.5977C103.353 20.7297 102.051 20.8977 100.794 21.1107L100.674 21.1287L100.158 18.1707C101.556 17.9285 102.965 17.7592 104.379 17.6637C105.093 17.6187 105.813 17.5827 106.56 17.6037C106.935 17.6037 107.313 17.6337 107.715 17.6787C108.167 17.7276 108.612 17.8283 109.041 17.9787C109.38 18.096 109.692 18.2795 109.959 18.5187C110.174 18.7155 110.342 18.9587 110.448 19.2297C110.485 19.3211 110.513 19.4154 110.532 19.5117L110.574 19.7097C110.642 20.1696 110.638 20.6371 110.562 21.0957Z" fill="white"/>
<path opacity="0.1" d="M106.697 20.9354C106.097 20.9564 105.464 20.9984 104.831 21.0614C103.565 21.1934 102.263 21.3614 101.006 21.5744C101.465 20.4464 101.936 19.3064 101.936 19.3064C103.609 19.5569 105.222 20.1088 106.697 20.9354Z" fill="black"/>
<path opacity="0.1" d="M112.409 24.4872C112.361 24.6102 112.31 24.7332 112.259 24.8532C111.657 26.1823 110.891 27.4309 109.979 28.5702L108.572 27.6282C109.162 26.4708 109.656 25.2667 110.048 24.0282C110.167 23.635 110.258 23.2341 110.321 22.8282C111.06 23.3253 111.758 23.88 112.409 24.4872Z" fill="black"/>
<path d="M87.0923 21.279C87.1763 21.381 87.1853 21.51 87.1193 21.579C87.0533 21.648 86.9303 21.579 86.8463 21.489C86.7623 21.399 86.7533 21.255 86.8223 21.204C86.8913 21.153 87.0113 21.162 87.0923 21.279Z" fill="#263238"/>
<path d="M87.3624 21.6292C87.4892 22.0447 87.5579 22.4758 87.5664 22.9102C87.6774 22.904 87.7858 22.8741 87.8841 22.8223C87.9825 22.7705 88.0685 22.6982 88.1364 22.6102L87.3624 21.6292Z" fill="#DE5753"/>
<path d="M86.8392 20.0495C86.8459 20.0423 86.8509 20.0338 86.854 20.0244C86.8571 20.0151 86.8582 20.0053 86.8572 19.9955C86.8568 19.9853 86.8544 19.9752 86.8501 19.9659C86.8458 19.9566 86.8398 19.9482 86.8322 19.9412C86.8247 19.9342 86.8159 19.9288 86.8063 19.9253C86.7967 19.9217 86.7864 19.9201 86.7762 19.9205C86.6531 19.9233 86.5325 19.9556 86.4245 20.0146C86.3165 20.0735 86.2241 20.1575 86.1552 20.2595C86.145 20.2775 86.1422 20.2988 86.1472 20.3189C86.1522 20.339 86.1647 20.3564 86.1822 20.3675C86.1998 20.3775 86.2205 20.3803 86.2401 20.3752C86.2597 20.3702 86.2766 20.3577 86.2872 20.3405C86.3431 20.26 86.4175 20.194 86.5042 20.1481C86.5908 20.1022 86.6871 20.0776 86.7852 20.0765C86.7956 20.0762 86.8058 20.0736 86.8152 20.0689C86.8245 20.0643 86.8327 20.0576 86.8392 20.0495Z" fill="#263238"/>
<path d="M91.3773 19.0683C92.3703 19.7823 94.2663 20.9133 95.3433 20.4843C95.3433 20.4843 96.3123 21.2913 95.3823 23.3133C94.3593 25.5393 93.7893 23.8713 93.7893 23.8713C94.0563 22.5213 93.1413 22.1403 92.1963 21.9633L91.3773 19.0683Z" fill="#E4897B"/>
<path d="M90.208 16.8266C91.135 18.1616 91.747 18.8966 91.618 20.0576C91.429 21.8066 89.395 22.4576 88.087 21.4346C86.908 20.5046 85.588 18.4766 86.434 16.9856C86.6191 16.6555 86.8857 16.3782 87.2082 16.1801C87.5307 15.9821 87.8985 15.8697 88.2766 15.8538C88.6548 15.8378 89.0307 15.9189 89.3687 16.0891C89.7068 16.2594 89.9957 16.5132 90.208 16.8266Z" fill="#E4897B"/>
<path d="M91.2237 18.1781C91.0827 18.9371 88.5237 19.9781 87.3807 18.3401C87.3807 18.3401 85.9287 18.3401 85.0557 17.4401C84.1827 16.5401 84.3717 15.6191 85.1517 15.1031C85.8417 14.6471 87.6237 11.2961 89.6997 13.6871C91.9527 13.6091 91.3947 17.2361 91.2237 18.1781Z" fill="#263238"/>
<path d="M86.8452 15.5082C86.8452 15.5082 85.5072 15.4422 84.7452 16.0542C83.9832 16.6662 84.1902 18.5502 84.4872 18.9042C84.5573 19.0017 84.6467 19.0838 84.75 19.1452C84.8532 19.2067 84.968 19.2461 85.0872 19.2612C85.0872 19.2612 84.6342 19.0241 84.6342 18.6611C84.6342 18.6611 84.8322 19.1262 85.7412 19.2612C85.6702 19.2054 85.6134 19.1337 85.5753 19.0519C85.5372 18.97 85.5191 18.8804 85.5222 18.7901C85.5222 18.7901 86.0142 19.4291 87.1542 18.7901C88.2942 18.1511 86.8452 15.5082 86.8452 15.5082Z" fill="#263238"/>
<path d="M89.0514 19.9829C89.2801 20.3165 89.3929 20.716 89.3724 21.1199C89.3394 21.6509 88.8954 21.6929 88.5444 21.3569C88.1934 21.0209 87.8694 20.4179 88.0764 19.9739C88.2834 19.5299 88.7694 19.5869 89.0514 19.9829Z" fill="#E4897B"/>
<path d="M93.1654 24.4318C93.1654 24.4318 92.9164 21.4108 94.8874 19.7158L97.2364 19.9318C97.2364 19.9318 95.8834 23.2348 93.1654 24.4318Z" fill="#5988C6"/>
<path opacity="0.6" d="M93.1654 24.4318C93.1654 24.4318 92.9164 21.4108 94.8874 19.7158L97.2364 19.9318C97.2364 19.9318 95.8834 23.2348 93.1654 24.4318Z" fill="white"/>
<path d="M99.6635 30.7923C99.6635 30.7923 96.1115 27.3033 92.1875 24.8643C92.1875 24.8643 94.8005 18.7233 98.1125 18.1743C98.1125 18.1743 106.671 20.7603 109.155 27.7743L99.6635 30.7923Z" fill="#5988C6"/>
<path d="M101.973 63.9975L100.443 64.6485L98.7841 61.1655L100.317 60.5145L101.973 63.9975Z" fill="#E4897B"/>
<path d="M108.093 31.5302L107.193 41.1302C106.508 41.5616 105.746 41.8589 104.949 42.0062C103.077 42.4412 100.581 42.6392 98.4243 42.7562C96.0033 42.8882 94.0143 42.9122 93.8343 43.0562C93.4143 43.3862 98.7453 54.3962 98.7453 54.3962L96.2013 54.7142C96.2013 54.7142 89.5143 45.5402 88.6473 42.3542C88.3293 41.1782 88.0083 39.7052 90.1683 38.3282C92.0703 37.1282 99.1503 36.2072 99.1503 36.2072L98.6043 34.5722L108.093 31.5302Z" fill="#263238"/>
<path opacity="0.2" d="M108.859 43.4233C106.987 43.8583 104.491 44.0563 102.334 44.1733C102.034 40.6333 103.834 37.2373 103.834 37.2373L106.366 36.5893L108.859 43.4233Z" fill="black"/>
<path d="M132.819 63.4012L133.092 65.0422L129.315 65.8342L129.042 64.1902L132.819 63.4012Z" fill="#E4897B"/>
<path d="M134.765 65.7673C134.759 65.7629 134.752 65.7606 134.744 65.7606C134.737 65.7606 134.729 65.7629 134.723 65.7673C134.716 65.7703 134.71 65.7753 134.706 65.7817C134.701 65.7881 134.699 65.7956 134.699 65.8033C134.699 65.8333 134.723 66.5023 134.93 66.7033C134.968 66.7416 135.02 66.7632 135.074 66.7633C135.105 66.7661 135.136 66.7593 135.163 66.7437C135.19 66.7281 135.211 66.7046 135.224 66.6763C135.269 66.5653 135.185 66.3763 135.074 66.1933C134.984 66.0422 134.881 65.8996 134.765 65.7673ZM134.783 65.9083C134.984 66.1483 135.203 66.5083 135.152 66.6283C135.152 66.6463 135.128 66.6673 135.074 66.6703C135.04 66.6697 135.008 66.6557 134.984 66.6313C134.966 66.6138 134.951 66.5936 134.939 66.5713C134.845 66.3623 134.792 66.1372 134.783 65.9083Z" fill="#5988C6"/>
<path d="M134.596 65.7554C134.59 65.752 134.584 65.7502 134.577 65.7502C134.57 65.7502 134.563 65.752 134.557 65.7554C134.557 65.7554 134.182 66.0404 134.146 66.3104C134.135 66.389 134.156 66.4688 134.203 66.5324C134.269 66.6194 134.332 66.6164 134.374 66.5984C134.551 66.5264 134.647 65.9984 134.62 65.7794C134.62 65.7794 134.62 65.7794 134.62 65.7644C134.617 65.7612 134.614 65.7587 134.609 65.7572C134.605 65.7556 134.601 65.755 134.596 65.7554ZM134.224 66.3284C134.28 66.1462 134.393 65.9866 134.545 65.8724C134.545 66.1094 134.449 66.4724 134.344 66.5324C134.344 66.5324 134.308 66.5474 134.266 66.4904C134.265 66.4835 134.265 66.4763 134.266 66.4694C134.236 66.429 134.221 66.3789 134.224 66.3284Z" fill="#5988C6"/>
<path d="M134.012 64.6199L133.058 63.0719C133.041 63.043 133.035 63.0094 133.039 62.9764C133.043 62.9434 133.058 62.9126 133.082 62.8889L134.168 61.8329C134.194 61.8074 134.226 61.7882 134.261 61.7768C134.296 61.7653 134.333 61.7619 134.369 61.7668C134.406 61.7717 134.44 61.7848 134.471 61.8051C134.502 61.8254 134.527 61.8523 134.546 61.8839C134.882 62.4479 135.347 63.2729 135.779 63.9839C136.283 64.8059 136.766 65.4839 137.357 66.4499C137.717 67.0319 137.228 67.5539 137.024 67.3499C136.097 66.3899 135.524 65.5019 134.324 64.9079C134.196 64.8421 134.088 64.7425 134.012 64.6199Z" fill="#263238"/>
<path d="M112.152 31.5302C112.152 31.5302 115.203 39.3692 110.052 42.4112C110.052 42.4112 109.986 51.4711 111.288 52.5331C112.869 53.8231 124.458 54.4802 124.458 54.4802L124.359 57.3601C124.359 57.3601 111.951 58.3742 108.195 57.0272C103.794 55.4492 102.816 34.6921 102.816 34.6921L112.152 31.5302Z" fill="#263238"/>
<path opacity="0.2" d="M110.908 38.012L112.759 37.454C112.891 38.2634 112.975 39.0798 113.011 39.899L112.153 40.637L111.34 40.379C111.241 39.5824 111.097 38.7922 110.908 38.012Z" fill="black"/>
<path d="M103.181 35.7538L103.421 36.5158L102.734 36.7288L102.494 35.9728L103.181 35.7538Z" fill="#263238"/>
<path d="M106.739 34.3417L106.997 35.1307L104.162 36.0097L103.91 35.2477L106.739 34.3417Z" fill="#263238"/>
<path d="M111.524 32.7667L111.782 33.5917L108.611 34.5757L108.359 33.7807L111.524 32.7667Z" fill="#263238"/>
<path d="M115.489 32.582L113.536 33.188H113.533L113.272 32.36L115.21 31.739L115.489 32.582Z" fill="#263238"/>
<g opacity="0.2">
<path d="M103.181 35.7537L103.421 36.5157L102.734 36.7287L102.494 35.9727L103.181 35.7537Z" fill="white"/>
<path d="M106.739 34.3417L106.997 35.1307L104.162 36.0097L103.91 35.2477L106.739 34.3417Z" fill="white"/>
<path d="M111.525 32.7668L111.782 33.5918L108.611 34.5758L108.359 33.7808L111.525 32.7668Z" fill="white"/>
<path d="M115.489 32.582L113.536 33.188H113.533L113.272 32.36L115.21 31.739L115.489 32.582Z" fill="white"/>
</g>
<path d="M100.03 65.4623C100.037 65.4602 100.044 65.456 100.05 65.4501C100.055 65.4443 100.058 65.4371 100.06 65.4293C100.061 65.421 100.06 65.4124 100.056 65.4048C100.053 65.3972 100.046 65.3911 100.039 65.3873C100.015 65.3873 99.4238 65.0573 99.1388 65.1383C99.0867 65.1528 99.0425 65.1873 99.0158 65.2343C98.9981 65.2599 98.9886 65.2902 98.9886 65.3213C98.9886 65.3524 98.9981 65.3827 99.0158 65.4083C99.0878 65.5013 99.2948 65.5253 99.5078 65.5193C99.6832 65.5169 99.858 65.4978 100.03 65.4623ZM99.9008 65.4053C99.6008 65.4563 99.1718 65.4653 99.0908 65.3603C99.0908 65.3453 99.0698 65.3213 99.0908 65.2733C99.098 65.2586 99.1085 65.2458 99.1215 65.2359C99.1346 65.226 99.1497 65.2193 99.1658 65.2163C99.1906 65.2118 99.216 65.2118 99.2408 65.2163C99.471 65.2357 99.6952 65.2999 99.9008 65.4053Z" fill="#5988C6"/>
<path d="M100.214 65.2968C100.22 65.2924 100.225 65.2864 100.227 65.2795C100.23 65.2726 100.23 65.2651 100.229 65.2578C100.206 65.0235 100.111 64.8021 99.956 64.6248C99.925 64.6002 99.8894 64.5819 99.8513 64.5711C99.8132 64.5603 99.7733 64.5571 99.734 64.5618C99.626 64.5618 99.596 64.6308 99.59 64.6758C99.566 64.8648 99.971 65.2158 100.175 65.2998H100.19L100.214 65.2968ZM99.914 64.6968C100.042 64.839 100.122 65.0171 100.145 65.2068C99.938 65.0868 99.659 64.8108 99.674 64.6968C99.674 64.6968 99.674 64.6608 99.752 64.6518H99.776C99.8223 64.6491 99.8684 64.6606 99.908 64.6848L99.914 64.6968Z" fill="#5988C6"/>
<path d="M99.0979 65.2479L100.916 65.2059C100.949 65.2045 100.982 65.2148 101.008 65.2351C101.035 65.2555 101.053 65.2844 101.06 65.3169L101.426 66.7869C101.434 66.8225 101.434 66.8593 101.426 66.8948C101.418 66.9303 101.402 66.9636 101.38 66.9923C101.358 67.021 101.329 67.0444 101.297 67.0608C101.264 67.0771 101.228 67.0861 101.192 67.0869C100.535 67.0869 99.5869 67.0869 98.7649 67.0869C97.7989 67.1079 96.9649 67.1799 95.8399 67.2069C95.1559 67.2249 94.9399 66.5379 95.2399 66.4689C96.5359 66.1509 97.5979 66.0969 98.7079 65.3769C98.8243 65.3003 98.9588 65.2558 99.0979 65.2479Z" fill="#263238"/>
<path opacity="0.7" d="M109.155 27.7695L99.6635 30.7935C99.6635 30.7935 97.9895 29.1525 95.6705 27.3315C95.2295 26.9865 94.7705 26.6355 94.2875 26.2875C93.6125 25.7955 92.9045 25.3125 92.1875 24.8655C92.1875 24.8655 94.8035 18.7245 98.1155 18.1785C98.1125 18.1785 106.671 20.7615 109.155 27.7695Z" fill="white"/>
<path opacity="0.1" d="M96.4949 30.2944C96.0539 29.9494 95.5949 29.5984 95.1119 29.2504L95.2979 28.6894C95.803 29.1364 96.2105 29.6828 96.4949 30.2944Z" fill="black"/>
<path d="M77.5016 39.6375L76.8476 39.7935C76.7677 39.812 76.6951 39.8538 76.639 39.9137C76.583 39.9735 76.5459 40.0486 76.5326 40.1295L76.3856 41.0295C76.3699 41.1228 76.3867 41.2186 76.4331 41.301C76.4795 41.3834 76.5527 41.4475 76.6406 41.4825L77.1206 41.6715C77.1206 41.6715 78.5006 42.6675 79.6676 42.0255L79.1636 40.6905L78.1766 39.7905C78.0848 39.7125 77.9754 39.6578 77.8579 39.6311C77.7403 39.6045 77.6181 39.6067 77.5016 39.6375Z" fill="#E4897B"/>
<path d="M90.4439 27.6856C90.6971 27.8616 90.9089 28.0908 91.0643 28.3571C91.2198 28.6235 91.3152 28.9205 91.3439 29.2276C91.3439 29.2276 90.6839 31.0276 90.3029 31.9066C90.0419 32.5066 89.7719 33.1066 89.4569 33.7066C89.1319 34.3648 88.742 34.9889 88.2929 35.5696L88.1879 35.6926L88.0679 35.8246C87.9729 35.9219 87.8728 36.014 87.7679 36.1006C87.7038 36.1544 87.6367 36.2045 87.5669 36.2506C87.5009 36.2956 87.4049 36.3586 87.3779 36.3706L87.1229 36.5026C86.7929 36.6676 86.4839 36.8026 86.1749 36.9256C85.5569 37.1776 84.9479 37.3996 84.3359 37.6096C83.1059 38.0206 81.8849 38.3956 80.6309 38.7106L80.0309 37.1056C81.1559 36.5296 82.3019 35.9836 83.4209 35.4226C83.9819 35.1436 84.5399 34.8646 85.0739 34.5826C85.3379 34.4416 85.6019 34.2826 85.8299 34.1566L85.9919 34.0546C86.0339 34.0306 85.9919 34.0546 85.9919 34.0546C85.9919 34.0546 85.9709 34.0726 85.9919 34.0546C86.0129 34.0366 86.0129 34.0336 86.0399 33.9946L86.0759 33.9496L86.1179 33.8866C86.4081 33.4339 86.6609 32.9583 86.8739 32.4646C87.1109 31.9246 87.3509 31.3636 87.5699 30.7906C88.0049 29.6506 88.4219 28.4626 88.8119 27.3106C89.3834 27.2326 89.9638 27.3659 90.4439 27.6856Z" fill="#5988C6"/>
<path opacity="0.7" d="M90.4439 27.6856C90.6971 27.8616 90.9089 28.0908 91.0643 28.3571C91.2198 28.6235 91.3152 28.9205 91.3439 29.2276C91.3439 29.2276 90.6839 31.0276 90.3029 31.9066C90.0419 32.5066 89.7719 33.1066 89.4569 33.7066C89.1319 34.3648 88.742 34.9889 88.2929 35.5696L88.1879 35.6926L88.0679 35.8246C87.9729 35.9219 87.8728 36.014 87.7679 36.1006C87.7038 36.1544 87.6367 36.2045 87.5669 36.2506C87.5009 36.2956 87.4049 36.3586 87.3779 36.3706L87.1229 36.5026C86.7929 36.6676 86.4839 36.8026 86.1749 36.9256C85.5569 37.1776 84.9479 37.3996 84.3359 37.6096C83.1059 38.0206 81.8849 38.3956 80.6309 38.7106L80.0309 37.1056C81.1559 36.5296 82.3019 35.9836 83.4209 35.4226C83.9819 35.1436 84.5399 34.8646 85.0739 34.5826C85.3379 34.4416 85.6019 34.2826 85.8299 34.1566L85.9919 34.0546C86.0339 34.0306 85.9919 34.0546 85.9919 34.0546C85.9919 34.0546 85.9709 34.0726 85.9919 34.0546C86.0129 34.0366 86.0129 34.0336 86.0399 33.9946L86.0759 33.9496L86.1179 33.8866C86.4081 33.4339 86.6609 32.9583 86.8739 32.4646C87.1109 31.9246 87.3509 31.3636 87.5699 30.7906C88.0049 29.6506 88.4219 28.4626 88.8119 27.3106C89.3834 27.2326 89.9638 27.3659 90.4439 27.6856Z" fill="white"/>
<path d="M18.1307 118.594H68.7947L95.6087 96.9341L96.7847 98.3891H103.388L110.117 67.4201L103.508 67.4321L103.511 67.4201L71.8187 67.4831L75.6017 72.1661L18.1307 118.594Z" fill="#5988C6"/>
<path opacity="0.2" d="M18.1307 118.594H62.1917L92.9987 93.7061L96.7847 98.3891L103.511 67.4201L71.8187 67.4831L75.6017 72.1661L18.1307 118.594Z" fill="white"/>
<path d="M15.9258 133.394H52.3038C52.2859 133.239 52.2769 133.082 52.2768 132.926C52.2764 132.371 52.3855 131.821 52.5977 131.307C52.81 130.794 53.1213 130.328 53.5138 129.935C53.9064 129.542 54.3725 129.231 54.8855 129.018C55.3986 128.805 55.9485 128.696 56.5038 128.696H56.6598C56.9669 127.875 57.5527 127.187 58.3149 126.754C59.0771 126.321 59.9672 126.169 60.83 126.325C61.6927 126.481 62.4732 126.935 63.0352 127.608C63.5972 128.281 63.905 129.13 63.9048 130.007C64.7889 130.049 65.6259 130.418 66.2534 131.042C66.881 131.666 67.2542 132.501 67.3008 133.385H67.4718C67.725 133.375 67.9775 133.416 68.2144 133.506C68.4512 133.596 68.6675 133.733 68.8502 133.908C69.0329 134.084 69.1782 134.294 69.2775 134.527C69.3768 134.76 69.4279 135.011 69.4279 135.264C69.4279 135.518 69.3768 135.768 69.2775 136.002C69.1782 136.235 69.0329 136.445 68.8502 136.621C68.6675 136.796 68.4512 136.933 68.2144 137.023C67.9775 137.113 67.725 137.154 67.4718 137.144H15.9258C15.6727 137.154 15.4201 137.113 15.1833 137.023C14.9464 136.933 14.7302 136.796 14.5475 136.621C14.3648 136.445 14.2195 136.235 14.1202 136.002C14.0209 135.768 13.9697 135.518 13.9697 135.264C13.9697 135.011 14.0209 134.76 14.1202 134.527C14.2195 134.294 14.3648 134.084 14.5475 133.908C14.7302 133.733 14.9464 133.596 15.1833 133.506C15.4201 133.416 15.6727 133.375 15.9258 133.385V133.394Z" fill="#5988C6"/>
<path opacity="0.7" d="M15.9258 133.394H52.3038C52.2859 133.239 52.2769 133.082 52.2768 132.926C52.2764 132.371 52.3855 131.821 52.5977 131.307C52.81 130.794 53.1213 130.328 53.5138 129.935C53.9064 129.542 54.3725 129.231 54.8855 129.018C55.3986 128.805 55.9485 128.696 56.5038 128.696H56.6598C56.9669 127.875 57.5527 127.187 58.3149 126.754C59.0771 126.321 59.9672 126.169 60.83 126.325C61.6927 126.481 62.4732 126.935 63.0352 127.608C63.5972 128.281 63.905 129.13 63.9048 130.007C64.7889 130.049 65.6259 130.418 66.2534 131.042C66.881 131.666 67.2542 132.501 67.3008 133.385H67.4718C67.725 133.375 67.9775 133.416 68.2144 133.506C68.4512 133.596 68.6675 133.733 68.8502 133.908C69.0329 134.084 69.1782 134.294 69.2775 134.527C69.3768 134.76 69.4279 135.011 69.4279 135.264C69.4279 135.518 69.3768 135.768 69.2775 136.002C69.1782 136.235 69.0329 136.445 68.8502 136.621C68.6675 136.796 68.4512 136.933 68.2144 137.023C67.9775 137.113 67.725 137.154 67.4718 137.144H15.9258C15.6727 137.154 15.4201 137.113 15.1833 137.023C14.9464 136.933 14.7302 136.796 14.5475 136.621C14.3648 136.445 14.2195 136.235 14.1202 136.002C14.0209 135.768 13.9697 135.518 13.9697 135.264C13.9697 135.011 14.0209 134.76 14.1202 134.527C14.2195 134.294 14.3648 134.084 14.5475 133.908C14.7302 133.733 14.9464 133.596 15.1833 133.506C15.4201 133.416 15.6727 133.375 15.9258 133.385V133.394Z" fill="white"/>
</svg>
