<svg width="64" height="64" viewBox="0 0 64 64" fill="none" xmlns="http://www.w3.org/2000/svg">
<path d="M32 50.5333C25.0134 50.5333 19.3334 44.8533 19.3334 37.8666C19.3334 30.88 25.0134 25.2 32 25.2C38.9867 25.2 44.6667 30.88 44.6667 37.8666C44.6667 44.8533 38.9867 50.5333 32 50.5333ZM32 29.2C27.2267 29.2 23.3334 33.0933 23.3334 37.8666C23.3334 42.64 27.2267 46.5333 32 46.5333C36.7734 46.5333 40.6667 42.64 40.6667 37.8666C40.6667 33.0933 36.7734 29.2 32 29.2Z" fill="white"/>
<path d="M30.5067 42.2133C29.6533 42.2133 28.8 41.8933 28.16 41.2533L26.4267 39.52C25.6533 38.7466 25.6533 37.4666 26.4267 36.6933C27.2 35.92 28.48 35.92 29.2533 36.6933L30.5333 37.9733L34.8267 34.0266C35.6267 33.28 36.9067 33.3333 37.6533 34.1333C38.4 34.9333 38.3467 36.2133 37.5467 36.96L32.8 41.3333C32.1333 41.92 31.3333 42.2133 30.5067 42.2133Z" fill="white"/>
<path d="M42.6666 60.6666H21.3333C9.01329 60.6666 6.71996 54.9333 6.13329 49.3599L4.13329 27.9999C3.83996 25.1999 3.75996 21.0666 6.53329 17.9733C8.93329 15.3066 12.9066 14.0266 18.6666 14.0266H45.3333C51.12 14.0266 55.0933 15.3333 57.4666 17.9733C60.2399 21.0666 60.16 25.1999 59.8666 28.0266L57.8666 49.3333C57.28 54.9333 54.9866 60.6666 42.6666 60.6666ZM18.6666 17.9999C14.16 17.9999 11.0666 18.8799 9.49329 20.6399C8.18662 22.0799 7.75996 24.2933 8.10662 27.5999L10.1066 48.9599C10.56 53.1733 11.7066 56.6666 21.3333 56.6666H42.6666C52.2666 56.6666 53.4399 53.1733 53.8933 48.9333L55.8933 27.6266C56.2399 24.2933 55.8133 22.0799 54.5066 20.6399C52.9333 18.8799 49.84 17.9999 45.3333 17.9999H18.6666Z" fill="white"/>
<path d="M42.6667 18C41.5734 18 40.6667 17.0934 40.6667 16V13.8667C40.6667 9.12004 40.6667 7.33337 34.1334 7.33337H29.8667C23.3334 7.33337 23.3334 9.12004 23.3334 13.8667V16C23.3334 17.0934 22.4267 18 21.3334 18C20.24 18 19.3334 17.0934 19.3334 16V13.8667C19.3334 9.17337 19.3334 3.33337 29.8667 3.33337H34.1334C44.6667 3.33337 44.6667 9.17337 44.6667 13.8667V16C44.6667 17.0934 43.76 18 42.6667 18Z" fill="white"/>
<path d="M42.6934 38.3733C41.7867 38.3733 40.9867 37.76 40.7467 36.8533C40.4801 35.7867 41.1201 34.6933 42.1867 34.4267C47.3867 33.12 52.2134 30.8533 56.5334 27.7067C57.4134 27.0667 58.6667 27.2533 59.3334 28.16C59.9734 29.04 59.7867 30.2933 58.8801 30.96C54.1334 34.4 48.8534 36.88 43.1467 38.32C43.0134 38.3467 42.8534 38.3733 42.6934 38.3733Z" fill="white"/>
<path d="M21.3333 38.4533C21.1733 38.4533 21.0133 38.4266 20.8533 38.4C15.4933 37.0933 10.4533 34.8266 5.83997 31.68C4.93331 31.0666 4.69331 29.8133 5.30664 28.9066C5.91997 28 7.17331 27.76 8.07997 28.3733C12.2933 31.2533 16.88 33.3066 21.7866 34.5066C22.8533 34.7733 23.52 35.84 23.2533 36.9333C23.0666 37.84 22.24 38.4533 21.3333 38.4533Z" fill="white"/>
</svg>
