<svg width="64" height="64" viewBox="0 0 64 64" fill="none" xmlns="http://www.w3.org/2000/svg">
<path d="M2.66663 58.6666H61.3333" stroke="white" stroke-width="3" stroke-miterlimit="10" stroke-linecap="round" stroke-linejoin="round"/>
<path d="M52.7468 58.6933V46.7999" stroke="white" stroke-width="3" stroke-miterlimit="10" stroke-linecap="round" stroke-linejoin="round"/>
<path d="M52.8 29.04C49.5467 29.04 46.9333 31.6534 46.9333 34.9067V40.96C46.9333 44.2133 49.5467 46.8267 52.8 46.8267C56.0534 46.8267 58.6667 44.2133 58.6667 40.96V34.9067C58.6667 31.6534 56.0534 29.04 52.8 29.04Z" stroke="white" stroke-width="3" stroke-miterlimit="10" stroke-linecap="round" stroke-linejoin="round"/>
<path d="M5.59998 58.6667V16.0801C5.59998 10.7201 8.26678 8.02673 13.5734 8.02673H30.1867C35.4934 8.02673 38.1333 10.7201 38.1333 16.0801V58.6667" stroke="white" stroke-width="3" stroke-miterlimit="10" stroke-linecap="round" stroke-linejoin="round"/>
<path d="M15.4667 22H28.6667" stroke="white" stroke-width="3" stroke-miterlimit="10" stroke-linecap="round" stroke-linejoin="round"/>
<path d="M15.4667 32H28.6667" stroke="white" stroke-width="3" stroke-miterlimit="10" stroke-linecap="round" stroke-linejoin="round"/>
<path d="M22 58.6666V48.6666" stroke="white" stroke-width="3" stroke-miterlimit="10" stroke-linecap="round" stroke-linejoin="round"/>
</svg>
