<svg width="64" height="64" viewBox="0 0 64 64" fill="none" xmlns="http://www.w3.org/2000/svg">
<path d="M32.0267 45.3333C29.76 45.3333 27.4667 44.7466 25.68 43.6L9.62667 33.12C6.64 31.1733 4.85333 27.8933 4.85333 24.32C4.85333 20.7466 6.64 17.4666 9.62667 15.52L25.7067 5.06664C29.28 2.74664 34.8533 2.74664 38.4 5.0933L54.3733 15.5733C57.3333 17.52 59.12 20.8 59.12 24.3466C59.12 27.8933 57.3333 31.1733 54.3733 33.12L38.4 43.6C36.6133 44.7733 34.32 45.3333 32.0267 45.3333ZM32.0267 7.3333C30.5067 7.3333 28.9867 7.67997 27.8933 8.42664L11.84 18.88C9.97333 20.1066 8.88 22.08 8.88 24.32C8.88 26.56 9.94667 28.5333 11.84 29.76L27.8933 40.24C30.1067 41.68 34 41.68 36.2133 40.24L52.1867 29.76C54.0533 28.5333 55.12 26.56 55.12 24.32C55.12 22.08 54.0533 20.1066 52.1867 18.88L36.2133 8.39997C35.0933 7.70664 33.5733 7.3333 32.0267 7.3333Z" fill="white"/>
<path d="M32 60.6667C30.8267 60.6667 29.6267 60.5067 28.6667 60.1867L20.16 57.36C16.1333 56.0267 12.96 51.6267 12.9867 47.3867L13.0133 34.88C13.0133 33.7867 13.92 32.88 15.0133 32.88C16.1067 32.88 17.0133 33.7867 17.0133 34.88L16.9867 47.3867C16.9867 49.8933 19.0667 52.7733 21.44 53.5733L29.9467 56.4C31.0133 56.7467 32.9867 56.7467 34.0533 56.4L42.56 53.5733C44.9333 52.7733 47.0133 49.8933 47.0133 47.4133V35.04C47.0133 33.9467 47.92 33.04 49.0133 33.04C50.1067 33.04 51.0133 33.9467 51.0133 35.04V47.4133C51.0133 51.6533 47.8667 56.0267 43.84 57.3867L35.3333 60.2133C34.3733 60.5067 33.1733 60.6667 32 60.6667Z" fill="white"/>
<path d="M57.0667 42C55.9733 42 55.0667 41.0933 55.0667 40V24C55.0667 22.9067 55.9733 22 57.0667 22C58.16 22 59.0667 22.9067 59.0667 24V40C59.0667 41.0933 58.16 42 57.0667 42Z" fill="white"/>
</svg>
