<svg width="40" height="43" viewBox="0 0 40 43" fill="none" xmlns="http://www.w3.org/2000/svg">
<g clip-path="url(#clip0_843_8803)">
<path d="M20.2468 32.8498C19.3629 32.3526 18.479 31.868 17.6054 31.3553C13.9224 29.1912 10.2431 27.0138 6.55644 24.8556C6.20804 24.6516 6.06293 24.4372 6.06366 24.0159C6.0806 18.887 6.07324 13.7581 6.08355 8.62842C6.08355 8.46269 6.20803 8.29696 6.27433 8.13196C6.43196 8.24318 6.58222 8.36767 6.74869 8.46416C9.40043 9.98891 12.0522 11.5112 14.7039 13.031C15.7801 13.6454 16.871 14.2354 17.956 14.8364C17.9228 14.9911 17.914 15.1554 17.8536 15.2975C17.0514 17.1957 16.225 19.0844 15.4442 20.9914C15.2166 21.5468 14.9197 21.9622 14.3165 22.0963C13.8944 22.1913 13.7581 22.4396 13.9062 22.8705H17.8389C17.9862 22.4234 17.8219 22.2075 17.4028 22.1088C17.0617 22.0278 16.7354 21.8842 16.3716 21.7567C16.762 20.8095 17.1192 19.9153 17.5074 19.035C17.5493 18.9657 17.6067 18.9069 17.675 18.8633C17.7434 18.8198 17.8209 18.7926 17.9015 18.7838C18.6867 18.7654 19.4726 18.7838 20.2586 18.7905L20.2468 32.8498Z" fill="#5988C6"/>
<path d="M17.9515 14.8357C16.8665 14.2347 15.7756 13.6446 14.6995 13.0303C12.0443 11.5154 9.39257 9.9931 6.74426 8.46344C6.57779 8.36695 6.42753 8.24246 6.2699 8.13124C6.56822 7.90216 6.84518 7.63477 7.16854 7.44989C10.8608 5.34323 14.5573 3.24344 18.258 1.15053C18.8551 0.811701 19.449 0.467957 20.0398 0.119303C20.3035 -0.0375919 20.5149 -0.0420119 20.8022 0.130351C23.6056 1.81273 26.4209 3.47523 29.2347 5.13919C30.7396 6.03047 32.2488 6.91438 33.7537 7.8064C33.9202 7.90437 34.0682 8.03253 34.2251 8.1467C34.1323 8.21079 34.0439 8.28224 33.9467 8.33822C31.125 9.95873 28.3014 11.576 25.4759 13.1902C24.5558 13.7154 23.6226 14.217 22.6959 14.7289C22.626 14.6553 22.5287 14.5912 22.4897 14.5035C22.0293 13.4605 21.5888 12.4079 21.1101 11.3737C21.0364 11.2065 20.8022 11.0194 20.6298 11.0054C20.3256 10.9833 19.9521 10.8279 19.7459 11.2802C19.371 12.0904 18.9526 12.8823 18.5489 13.68C18.3537 14.0682 18.1512 14.4512 17.9515 14.8357Z" fill="#C2E0F4"/>
<path d="M22.6989 14.7289C23.6255 14.217 24.5588 13.7154 25.4788 13.1902C28.3054 11.5785 31.129 9.96121 33.9496 8.33824C34.0469 8.28226 34.1353 8.21081 34.2281 8.14673C34.259 8.29773 34.3179 8.448 34.3179 8.599C34.3224 13.7984 34.3246 18.998 34.3246 24.1978C34.3246 24.4564 34.2936 24.6398 34.0299 24.7938C29.5465 27.4219 25.0698 30.0582 20.5996 32.7026C20.4851 32.7604 20.3664 32.8096 20.2446 32.8499L20.2534 18.7905C20.8427 18.7846 21.432 18.7647 22.0212 18.7831C22.1479 18.7868 22.3358 18.8951 22.3844 19.0041C22.7917 19.9131 23.1725 20.8338 23.5843 21.8069C23.2292 21.9181 22.9103 22.0448 22.5788 22.1155C22.1288 22.2113 21.9896 22.4455 22.1472 22.8698H26.8025C26.9328 22.4315 26.7914 22.1892 26.3605 22.1089C25.7874 22.0028 25.4928 21.6235 25.2748 21.0975C24.4645 19.1492 23.6204 17.2164 22.7976 15.274C22.7284 15.109 22.7306 14.9123 22.6989 14.7289Z" fill="#3568B2"/>
<path d="M0 42.1517C0.117118 42.0213 0.209928 41.829 0.355774 41.7708C0.718178 41.6235 0.923688 41.3944 1.07911 41.0342C1.95271 39.0049 2.85209 36.983 3.74853 34.9669C3.86049 34.715 3.97466 34.497 4.34738 34.5043C4.72009 34.5117 4.75619 34.7761 4.85268 34.9979C5.71597 36.997 6.57926 38.9968 7.42339 41.004C7.58618 41.3907 7.78654 41.678 8.21302 41.7988C8.34487 41.8364 8.434 42.0257 8.54154 42.145L8.45536 42.2548H5.39776C5.34473 41.5476 6.07764 41.8622 6.31998 41.474C6.099 40.9584 5.86255 40.3846 5.60327 39.8211C5.57409 39.7695 5.5335 39.7253 5.4846 39.6919C5.4357 39.6584 5.37979 39.6366 5.32115 39.6281C4.45197 39.6129 3.58279 39.6129 2.71361 39.6281C2.64777 39.637 2.58485 39.6609 2.52969 39.6979C2.47452 39.7349 2.42859 39.7841 2.3954 39.8417C2.15233 40.3765 1.93945 40.9245 1.7251 41.446C1.93282 41.8496 2.70919 41.5499 2.65984 42.2644H0.126694L0 42.1517ZM5.19151 38.8421L3.99013 35.9311L2.79537 38.8421H5.19151Z" fill="#3B6CB3"/>
<path d="M10.9937 36.4451V37.3939C11.6205 36.675 12.3247 36.3678 13.1777 36.3958C14.3739 36.4348 15.067 37.1088 15.0928 38.3109C15.1098 39.2125 15.1179 40.1156 15.0877 41.0172C15.0737 41.4444 15.1856 41.6926 15.6261 41.7958C15.7734 41.8296 15.8817 42.0167 16.0077 42.1339L15.9237 42.2569H13.1327C12.9891 41.9622 13.1394 41.837 13.4038 41.7818C13.8347 41.6919 13.9651 41.4304 13.943 41.0002C13.8959 40.0684 13.9231 39.1315 13.8605 38.2012C13.8178 37.5684 13.5025 37.3003 12.8779 37.2517C12.6002 37.2298 12.321 37.2397 12.0455 37.2812C11.2758 37.399 11.088 37.6289 11.088 38.4045C11.088 39.3068 11.1042 40.2091 11.0799 41.1107C11.0703 41.4621 11.1793 41.6492 11.513 41.767C11.6758 41.8252 11.7936 42.0094 11.9314 42.1353C11.9012 42.1781 11.8702 42.22 11.8393 42.2628H9.03433C8.88701 41.9873 9.00192 41.8341 9.28625 41.8002C9.82543 41.7361 9.94918 41.4363 9.92782 40.9244C9.88436 39.9749 9.88731 39.021 9.92782 38.0715C9.94697 37.6112 9.79744 37.3784 9.36212 37.2561C9.2148 37.2141 9.10873 37.0234 8.98424 36.9004C9.12641 36.8267 9.26194 36.7111 9.41294 36.6838C9.91014 36.5895 10.414 36.5291 10.9937 36.4451Z" fill="#3A6CB3"/>
<path d="M16.7553 36.7243L18.7788 36.4518C18.7788 37.3114 18.7692 38.1261 18.7788 38.9407C18.7883 39.53 18.8067 40.1193 18.8605 40.7086C18.9054 41.1925 19.206 41.4989 19.6936 41.5254C20.0992 41.553 20.5067 41.5282 20.906 41.4518C21.3819 41.3523 21.6426 41.071 21.6073 40.5053C21.5528 39.6722 21.5749 38.8325 21.6014 38.0008C21.6132 37.6259 21.4776 37.4366 21.1329 37.3099C20.9517 37.2436 20.814 37.058 20.6563 36.9254C20.8464 36.8436 21.0298 36.7251 21.2287 36.686C21.7082 36.5932 22.1951 36.5387 22.7387 36.4592C22.7483 36.6801 22.7623 36.8503 22.763 37.0226C22.763 38.269 22.7851 39.516 22.7527 40.7616C22.7409 41.2146 22.8698 41.4761 23.3176 41.577C23.5688 41.6337 23.806 41.7243 23.6403 42.1059L21.7251 42.4049V41.4606C21.5675 41.5726 21.4725 41.6197 21.4032 41.6919C20.7749 42.346 19.9846 42.4845 19.139 42.3548C18.1571 42.2075 17.6319 41.5549 17.6127 40.4927C17.598 39.6729 17.5847 38.8516 17.6194 38.0333C17.6378 37.5979 17.4971 37.3578 17.0743 37.262C16.8253 37.2075 16.5911 37.1074 16.7553 36.7243Z" fill="#396BB3"/>
<path d="M36.8466 42.4167C35.0007 42.3762 33.834 41.1645 33.8863 39.351C33.9386 37.5176 35.2313 36.3487 37.1516 36.3988C38.8546 36.4422 40.0346 37.704 39.9993 39.4438C39.9632 41.2301 38.6616 42.4573 36.8466 42.4167ZM38.7809 39.4019C38.6336 38.9098 38.5239 38.3272 38.2852 37.8035C38.009 37.1987 37.4514 36.9519 36.7877 36.9851C36.124 37.0182 35.6659 37.36 35.4309 37.9537C35.2358 38.4241 35.1428 38.9306 35.158 39.4397C35.1732 39.9488 35.2964 40.4488 35.5193 40.9067C35.8287 41.5616 36.376 41.8591 37.114 41.8179C37.8079 41.7796 38.2454 41.4061 38.4627 40.7867C38.6071 40.3778 38.6616 39.9359 38.7809 39.4019Z" fill="#3A6BB3"/>
<path d="M28.7986 36.5674C28.7662 36.8134 28.7448 36.9733 28.7176 37.1766H26.5756C26.5756 38.4347 26.5594 39.6464 26.5837 40.8596C26.5933 41.3295 27.2415 41.658 27.9051 41.5659C28.1784 41.5276 28.4473 41.4569 28.8583 41.3722C28.7684 41.6094 28.7552 41.8414 28.6447 41.9033C27.897 42.3261 27.1067 42.5589 26.2485 42.2421C25.6276 42.0131 25.4022 41.6919 25.4007 41.0179C25.397 39.7576 25.4007 38.4973 25.4007 37.1876H24.4431C24.3466 36.8554 24.3695 36.6403 24.7378 36.616C25.3123 36.5777 25.5112 36.2278 25.5524 35.7012C25.6128 34.9322 25.6563 34.9093 26.5667 34.9337V36.5667L28.7986 36.5674Z" fill="#3A6CB3"/>
<path d="M31.8511 36.4938C31.8511 38.0296 31.8754 39.5035 31.8378 40.9759C31.8253 41.4916 31.9851 41.7302 32.4868 41.7862C32.7394 41.8142 33.0532 41.8311 32.9007 42.2657H29.6163C29.4756 41.963 29.6214 41.8613 29.8954 41.8009C30.7889 41.605 30.6733 41.6706 30.677 40.8168C30.677 39.8983 30.6526 38.979 30.6887 38.062C30.7057 37.6281 30.5414 37.4491 30.1466 37.3445C29.9087 37.2819 29.4837 37.3283 29.6207 36.7855L31.8511 36.4938Z" fill="#3A6BB3"/>
<path d="M31.1403 35.4309C30.6607 35.4221 30.2998 35.1142 30.3064 34.7208C30.3138 34.3098 30.7005 34.01 31.2058 34.024C31.7111 34.038 32.0522 34.3246 32.0345 34.7275C32.0153 35.1518 31.6485 35.4405 31.1403 35.4309Z" fill="#3B6DB4"/>
<path d="M22.6989 14.729C22.7305 14.9124 22.7283 15.1091 22.799 15.2755C23.6218 17.2179 24.4682 19.1507 25.2762 21.099C25.4972 21.625 25.7918 22.0043 26.3619 22.1104C26.7914 22.1907 26.9328 22.433 26.8039 22.8713H22.1472C21.9917 22.447 22.1287 22.2128 22.5788 22.117C22.9103 22.0434 23.2292 21.9196 23.5842 21.8084C23.1725 20.8353 22.7917 19.9146 22.3843 19.0056C22.3357 18.8951 22.1479 18.7847 22.0212 18.7847C21.4319 18.7662 20.8426 18.7847 20.2534 18.792C19.4674 18.7861 18.6815 18.767 17.8963 18.7854C17.8157 18.7941 17.7382 18.8213 17.6698 18.8649C17.6015 18.9084 17.5441 18.9672 17.5022 19.0366C17.114 19.9168 16.7568 20.811 16.3664 21.7583C16.731 21.8857 17.0573 22.0294 17.3976 22.1104C17.8167 22.2106 17.9795 22.4249 17.8337 22.872H13.9017C13.7544 22.4411 13.8899 22.1929 14.312 22.0979C14.9153 21.9631 15.2121 21.5476 15.4397 20.993C16.2205 19.0859 17.047 17.1973 17.8491 15.2991C17.9095 15.1569 17.9184 14.9927 17.9515 14.838C18.1511 14.4535 18.3537 14.0705 18.5496 13.6837C18.9533 12.886 19.3717 12.0949 19.7466 11.2839C19.9551 10.8317 20.3285 10.9893 20.6305 11.0092C20.8029 11.0217 21.0334 11.2088 21.1108 11.3775C21.5896 12.4087 22.03 13.4642 22.4904 14.5073C22.5302 14.5912 22.6289 14.6546 22.6989 14.729ZM20.9421 15.7661C20.6303 14.9077 20.3182 14.0484 20.0059 13.188L19.8888 13.177C19.5804 13.9519 19.272 14.7263 18.9636 15.5002L18.0546 17.6083H21.8312L20.9421 15.7661Z" fill="#FCFDFD"/>
<path d="M20.26 17.6105H18.0546L18.9636 15.5023L20.2467 16.2028L20.26 17.6105Z" fill="#628EC9"/>
<path d="M20.2468 16.2029L18.9636 15.5024C19.2715 14.7285 19.5799 13.9541 19.8888 13.1792L20.0059 13.1902C20.3182 14.0491 20.6303 14.9085 20.9421 15.7683L20.2468 16.2029Z" fill="#C3E0F4"/>
<path d="M20.2468 16.2029L20.9421 15.7661L21.8312 17.6076H20.26L20.2468 16.2029Z" fill="#386AB2"/>
</g>
<defs>
<clipPath id="clip0_843_8803">
<rect width="40" height="42.4182" fill="white"/>
</clipPath>
</defs>
</svg>
